G04*
G04 #@! TF.GenerationSoftware,Altium Limited,Altium Designer,18.0.7 (293)*
G04*
G04 Layer_Color=65535*
%FSLAX25Y25*%
%MOIN*%
G70*
G01*
G75*
%ADD10C,0.00984*%
%ADD11C,0.01000*%
%ADD12C,0.00299*%
%ADD13C,0.00500*%
%ADD14C,0.01575*%
%ADD15C,0.00787*%
%ADD16C,0.00591*%
%ADD17C,0.00700*%
%ADD18C,0.00394*%
%ADD19C,0.00787*%
%ADD20C,0.00400*%
%ADD21C,0.00300*%
%ADD22C,0.00600*%
%ADD23C,0.00100*%
%ADD24C,0.00197*%
G36*
X84898Y76962D02*
X83898Y78462D01*
X82798Y76962D01*
X84898D01*
D02*
G37*
G36*
X16455Y219922D02*
X17955Y220922D01*
X16455Y222023D01*
Y219922D01*
D02*
G37*
D10*
X162832Y38529D02*
G03*
X162832Y38529I-492J0D01*
G01*
X35572Y92511D02*
G03*
X35572Y92511I-492J0D01*
G01*
X35512Y103471D02*
G03*
X35512Y103471I-492J0D01*
G01*
X24492Y103451D02*
G03*
X24492Y103451I-492J0D01*
G01*
X24512Y92531D02*
G03*
X24512Y92531I-492J0D01*
G01*
X57772Y103471D02*
G03*
X57772Y103471I-492J0D01*
G01*
Y92471D02*
G03*
X57772Y92471I-492J0D01*
G01*
X151612Y38509D02*
G03*
X151612Y38509I-492J0D01*
G01*
X173590Y27609D02*
G03*
X173590Y27609I-492J0D01*
G01*
X151612Y49509D02*
G03*
X151612Y49509I-492J0D01*
G01*
X151590Y27609D02*
G03*
X151590Y27609I-492J0D01*
G01*
X46652Y103471D02*
G03*
X46652Y103471I-492J0D01*
G01*
X162490Y27609D02*
G03*
X162490Y27609I-492J0D01*
G01*
X46692Y92491D02*
G03*
X46692Y92491I-492J0D01*
G01*
X184492Y27629D02*
G03*
X184492Y27629I-492J0D01*
G01*
X184532Y49549D02*
G03*
X184532Y49549I-492J0D01*
G01*
X184492Y38549D02*
G03*
X184492Y38549I-492J0D01*
G01*
X173752Y49569D02*
G03*
X173752Y49569I-492J0D01*
G01*
X32583Y73520D02*
G03*
X32583Y73520I-492J0D01*
G01*
X173712Y38529D02*
G03*
X173712Y38529I-492J0D01*
G01*
X162632Y49549D02*
G03*
X162632Y49549I-492J0D01*
G01*
X57832Y81551D02*
G03*
X57832Y81551I-492J0D01*
G01*
D11*
X7503Y169406D02*
G03*
X13408Y163501I5906J0D01*
G01*
Y175312D02*
G03*
X7503Y169406I0J-5906D01*
G01*
X20785Y158383D02*
G03*
X20785Y158383I-880J0D01*
G01*
X185997Y209834D02*
G03*
X180092Y215739I-5906J0D01*
G01*
Y203928D02*
G03*
X185997Y209834I0J5906D01*
G01*
X174476Y220857D02*
G03*
X174476Y220857I-880J0D01*
G01*
X45779Y70605D02*
G03*
X45779Y70605I-538J0D01*
G01*
X181298Y228302D02*
Y238538D01*
X171062Y236522D02*
Y238538D01*
Y228302D02*
Y230390D01*
X82910Y288602D02*
X84998D01*
X74762D02*
X76778D01*
X74762Y298838D02*
X84998D01*
X112409Y298678D02*
X122645D01*
X112409Y288442D02*
X114425D01*
X120557D02*
X122645D01*
X13408Y161532D02*
X21676D01*
Y178068D01*
X13408D02*
X21676D01*
X13408Y161532D02*
Y178068D01*
X171824Y217708D02*
X180092D01*
X171824Y201172D02*
Y217708D01*
Y201172D02*
X180092D01*
Y217708D01*
D12*
X16391Y206970D02*
G03*
X16391Y206970I-264J0D01*
G01*
X24237Y120430D02*
G03*
X24237Y120430I-264J0D01*
G01*
X82059Y84162D02*
G03*
X82059Y84162I-361J0D01*
G01*
X24016Y223123D02*
G03*
X24016Y223123I-361J0D01*
G01*
D13*
X14565Y205553D02*
G03*
X14565Y205553I-249J0D01*
G01*
X26033Y121847D02*
G03*
X26033Y121847I-249J0D01*
G01*
X110959Y105138D02*
G03*
X110959Y105138I-440J0D01*
G01*
X139692Y174395D02*
Y261009D01*
X49141D02*
X139692D01*
X49141Y174395D02*
Y261009D01*
Y174395D02*
X139692D01*
X56622Y271639D02*
X131818D01*
X56622Y163765D02*
X132212D01*
X150322Y264946D02*
Y271639D01*
X143629D02*
X150322D01*
Y163765D02*
Y170458D01*
X143629Y163765D02*
X150322D01*
X38511D02*
Y170458D01*
Y163765D02*
X45204D01*
X38511Y264946D02*
Y271639D01*
X45204D01*
X29974Y32131D02*
X65171D01*
X29974Y45793D02*
Y54454D01*
X65171Y45793D02*
Y54454D01*
X107862Y106418D02*
X110716Y108780D01*
X85039Y34793D02*
X110826D01*
X78346Y46014D02*
Y64715D01*
X86810D01*
X108858D02*
X117322D01*
Y45817D02*
Y64715D01*
X130346Y28537D02*
Y31140D01*
Y28537D02*
X138681D01*
Y31159D01*
X141641Y31116D02*
Y41793D01*
X126999D02*
X141641D01*
X126999Y31116D02*
Y41793D01*
Y31116D02*
X141641D01*
D14*
X90747Y71014D02*
G03*
X90747Y71014I-787J0D01*
G01*
D15*
X167852Y41088D02*
Y52112D01*
X156828Y52112D02*
X167852D01*
X156828Y41088D02*
Y52112D01*
X156828Y41088D02*
X167852D01*
X29568Y78928D02*
Y89952D01*
X29568Y78928D02*
X40592D01*
Y89952D01*
X29568Y89952D02*
X40592D01*
X29508Y89888D02*
Y100912D01*
X29508Y89888D02*
X40532D01*
Y100912D01*
X29508Y100912D02*
X40532D01*
X18488Y89868D02*
Y100892D01*
X18488Y89868D02*
X29512D01*
Y100892D01*
X18488Y100892D02*
X29512D01*
X18508Y78948D02*
Y89972D01*
X18508Y78948D02*
X29532D01*
Y89972D01*
X18508Y89972D02*
X29532D01*
X51768Y89888D02*
Y100912D01*
X51768Y89888D02*
X62792D01*
Y100912D01*
X51768Y100912D02*
X62792D01*
X51768Y78888D02*
Y89912D01*
X51768Y78888D02*
X62792D01*
Y89912D01*
X51768Y89912D02*
X62792D01*
X156632Y41068D02*
Y52092D01*
X145608Y52092D02*
X156632D01*
X145608Y41068D02*
Y52092D01*
X145608Y41068D02*
X156632D01*
X178610Y30168D02*
Y41192D01*
X167586Y41192D02*
X178610D01*
X167586Y30168D02*
Y41192D01*
X167586Y30168D02*
X178610D01*
X156632Y52068D02*
Y63092D01*
X145608Y63092D02*
X156632D01*
X145608Y52068D02*
Y63092D01*
X145608Y52068D02*
X156632D01*
X156610Y30168D02*
Y41192D01*
X145586Y41192D02*
X156610D01*
X145586Y30168D02*
Y41192D01*
X145586Y30168D02*
X156610D01*
X40648Y89888D02*
Y100912D01*
X40648Y89888D02*
X51672D01*
Y100912D01*
X40648Y100912D02*
X51672D01*
X167510Y30168D02*
Y41192D01*
X156486Y41192D02*
X167510D01*
X156486Y30168D02*
Y41192D01*
X156486Y30168D02*
X167510D01*
X40688Y78908D02*
Y89932D01*
X40688Y78908D02*
X51712D01*
Y89932D01*
X40688Y89932D02*
X51712D01*
X189512Y30188D02*
Y41212D01*
X178488Y41212D02*
X189512D01*
X178488Y30188D02*
Y41212D01*
X178488Y30188D02*
X189512D01*
X189552Y52108D02*
Y63132D01*
X178528Y63132D02*
X189552D01*
X178528Y52108D02*
Y63132D01*
X178528Y52108D02*
X189552D01*
X189512Y41108D02*
Y52132D01*
X178488Y52132D02*
X189512D01*
X178488Y41108D02*
Y52132D01*
X178488Y41108D02*
X189512D01*
X178772Y52128D02*
Y63152D01*
X167748Y63152D02*
X178772D01*
X167748Y52128D02*
Y63152D01*
X167748Y52128D02*
X178772D01*
X18508Y79032D02*
X29532D01*
X18508Y68008D02*
Y79032D01*
Y68008D02*
X29532D01*
X29532Y68008D02*
Y79032D01*
X178732Y41088D02*
Y52112D01*
X167708Y52112D02*
X178732D01*
X167708Y41088D02*
Y52112D01*
X167708Y41088D02*
X178732D01*
X167652Y52108D02*
Y63132D01*
X156628Y63132D02*
X167652D01*
X156628Y52108D02*
Y63132D01*
X156628Y52108D02*
X167652D01*
X51828Y67968D02*
Y78992D01*
X51828Y67968D02*
X62852D01*
Y78992D01*
X51828Y78992D02*
X62852D01*
X32296Y66737D02*
X35052D01*
X176248Y71742D02*
Y74498D01*
X176128Y81702D02*
Y84458D01*
X88482Y71348D02*
X91238D01*
X125816Y93037D02*
X128572D01*
X94782Y105092D02*
X97538D01*
X124402Y126371D02*
Y129126D01*
X93391Y111129D02*
Y112311D01*
X104244Y122898D02*
Y124079D01*
D16*
X22080Y183020D02*
Y183520D01*
X13080D02*
X22080D01*
X13080Y183020D02*
Y183520D01*
Y179520D02*
Y180020D01*
Y179520D02*
X22080D01*
Y180020D01*
X17580Y179520D02*
Y183520D01*
X173624Y196460D02*
Y196960D01*
Y196460D02*
X182624D01*
Y196960D01*
Y199960D02*
Y200460D01*
X173624D02*
X182624D01*
X173624Y199960D02*
Y200460D01*
X178124Y196460D02*
Y200460D01*
X163580Y202960D02*
Y206960D01*
X168080Y202960D02*
Y203460D01*
X159080Y202960D02*
X168080D01*
X159080D02*
Y203460D01*
Y206460D02*
Y206960D01*
X168080D01*
Y206460D02*
Y206960D01*
X120551Y147459D02*
X124551D01*
X120551Y142959D02*
X121051D01*
X120551D02*
Y151959D01*
X121051D01*
X124051D02*
X124551D01*
Y142959D02*
Y151959D01*
X124051Y142959D02*
X124551D01*
X163584Y190040D02*
Y194040D01*
X168084Y190040D02*
Y190540D01*
X159084Y190040D02*
X168084D01*
X159084D02*
Y190540D01*
Y193540D02*
Y194040D01*
X168084D01*
Y193540D02*
Y194040D01*
X64960Y136756D02*
X68960D01*
X68460Y141256D02*
X68960D01*
Y132256D02*
Y141256D01*
X68460Y132256D02*
X68960D01*
X64960D02*
X65460D01*
X64960D02*
Y141256D01*
X65460D01*
X163504Y195340D02*
Y199340D01*
X168004Y195340D02*
Y195840D01*
X159004Y195340D02*
X168004D01*
X159004D02*
Y195840D01*
Y198840D02*
Y199340D01*
X168004D01*
Y198840D02*
Y199340D01*
X52860Y105820D02*
Y109820D01*
X57360Y105820D02*
Y106320D01*
X48360Y105820D02*
X57360D01*
X48360D02*
Y106320D01*
Y109320D02*
Y109820D01*
X57360D01*
Y109320D02*
Y109820D01*
X65231Y284131D02*
X69231D01*
X68731Y288631D02*
X69231D01*
Y279631D02*
Y288631D01*
X68731Y279631D02*
X69231D01*
X65231D02*
X65731D01*
X65231D02*
Y288631D01*
X65731D01*
X163624Y214900D02*
Y218900D01*
X168124Y214900D02*
Y215400D01*
X159124Y214900D02*
X168124D01*
X159124D02*
Y215400D01*
Y218400D02*
Y218900D01*
X168124D01*
Y218400D02*
Y218900D01*
X24931Y240175D02*
Y244175D01*
X20431Y243675D02*
Y244175D01*
X29431D01*
Y243675D02*
Y244175D01*
Y240175D02*
Y240675D01*
X20431Y240175D02*
X29431D01*
X20431D02*
Y240675D01*
X163624Y219780D02*
Y223780D01*
X168124Y219780D02*
Y220280D01*
X159124Y219780D02*
X168124D01*
X159124D02*
Y220280D01*
Y223280D02*
Y223780D01*
X168124D01*
Y223280D02*
Y223780D01*
X24931Y235095D02*
Y239095D01*
X20431Y238595D02*
Y239095D01*
X29431D01*
Y238595D02*
Y239095D01*
Y235095D02*
Y235595D01*
X20431Y235095D02*
X29431D01*
X20431D02*
Y235595D01*
X163624Y184635D02*
Y188635D01*
X168124Y184635D02*
Y185135D01*
X159124Y184635D02*
X168124D01*
X159124D02*
Y185135D01*
Y188135D02*
Y188635D01*
X168124D01*
Y188135D02*
Y188635D01*
X24931Y230255D02*
Y234255D01*
X20431Y233755D02*
Y234255D01*
X29431D01*
Y233755D02*
Y234255D01*
Y230255D02*
Y230755D01*
X20431Y230255D02*
X29431D01*
X20431D02*
Y230755D01*
X163624Y179595D02*
Y183595D01*
X168124Y179595D02*
Y180095D01*
X159124Y179595D02*
X168124D01*
X159124D02*
Y180095D01*
Y183095D02*
Y183595D01*
X168124D01*
Y183095D02*
Y183595D01*
X27120Y113440D02*
Y113940D01*
X18120D02*
X27120D01*
X18120Y113440D02*
Y113940D01*
Y109940D02*
Y110440D01*
Y109940D02*
X27120D01*
Y110440D01*
X22620Y109940D02*
Y113940D01*
X147840Y80300D02*
X148340D01*
X147840Y71300D02*
Y80300D01*
Y71300D02*
X148340D01*
X151340D02*
X151840D01*
Y80300D01*
X151340D02*
X151840D01*
X147840Y75800D02*
X151840D01*
X17040Y124540D02*
Y125040D01*
Y124540D02*
X26040D01*
Y125040D01*
Y128040D02*
Y128540D01*
X17040D02*
X26040D01*
X17040Y128040D02*
Y128540D01*
X21540Y124540D02*
Y128540D01*
X24636Y213260D02*
Y217260D01*
X29136Y213260D02*
Y213760D01*
X20136Y213260D02*
X29136D01*
X20136D02*
Y213760D01*
Y216760D02*
Y217260D01*
X29136D01*
Y216760D02*
Y217260D01*
X82200Y147496D02*
X86200D01*
X82200Y142996D02*
X82700D01*
X82200D02*
Y151996D01*
X82700D01*
X85700D02*
X86200D01*
Y142996D02*
Y151996D01*
X85700Y142996D02*
X86200D01*
X169560Y94340D02*
X173560D01*
X169560Y89840D02*
X170060D01*
X169560D02*
Y98840D01*
X170060D01*
X173060D02*
X173560D01*
Y89840D02*
Y98840D01*
X173060Y89840D02*
X173560D01*
X51863Y119385D02*
X52651D01*
X51863Y111511D02*
Y119385D01*
Y111511D02*
X52651D01*
X55013D02*
X55800D01*
Y119385D01*
X55013D02*
X55800D01*
X147740Y90524D02*
X148240D01*
X147740Y81524D02*
Y90524D01*
Y81524D02*
X148240D01*
X151240D02*
X151740D01*
Y90524D01*
X151240D02*
X151740D01*
X147740Y86024D02*
X151740D01*
X135353Y116897D02*
Y118079D01*
X124330D02*
X135353D01*
X124330Y116897D02*
Y118079D01*
Y112567D02*
Y113748D01*
Y112567D02*
X135353D01*
Y113748D01*
X129841Y112567D02*
Y118079D01*
X113604Y92800D02*
Y93300D01*
X104604D02*
X113604D01*
X104604Y92800D02*
Y93300D01*
Y89300D02*
Y89800D01*
Y89300D02*
X113604D01*
Y89800D01*
X109104Y89300D02*
Y93300D01*
X92960Y117240D02*
Y117740D01*
X83960D02*
X92960D01*
X83960Y117240D02*
Y117740D01*
Y113740D02*
Y114240D01*
Y113740D02*
X92960D01*
Y114240D01*
X88460Y113740D02*
Y117740D01*
X81001Y72123D02*
X85498D01*
X81001D02*
Y83147D01*
X82182D01*
X85331D02*
X86512D01*
Y72123D02*
Y83147D01*
X85331Y72123D02*
X86512D01*
X75980Y77044D02*
X79980D01*
X75980Y72544D02*
X76480D01*
X75980D02*
Y81544D01*
X76480D01*
X79480D02*
X79980D01*
Y72544D02*
Y81544D01*
X79480Y72544D02*
X79980D01*
X94691Y73563D02*
X95479D01*
X94691D02*
Y81437D01*
X95479D01*
X97841D02*
X98628D01*
Y73563D02*
Y81437D01*
X97841Y73563D02*
X98628D01*
X102472Y71479D02*
Y72464D01*
Y71479D02*
X121173D01*
Y72464D01*
Y79353D02*
Y80338D01*
X102472D02*
X121173D01*
X102472Y79353D02*
Y80338D01*
X111822Y71479D02*
Y80338D01*
X36978Y72331D02*
X42490D01*
X41309Y77843D02*
X42490D01*
Y66819D02*
Y77843D01*
X41309Y66819D02*
X42490D01*
X36978D02*
X38159D01*
X36978D02*
Y77843D01*
X38159D01*
X136272Y122163D02*
X137059D01*
X136272D02*
Y130037D01*
X137059D01*
X139421D02*
X140208D01*
Y122163D02*
Y130037D01*
X139421Y122163D02*
X140208D01*
X117175Y122053D02*
X117962D01*
Y114179D02*
Y122053D01*
X117175Y114179D02*
X117962D01*
X114025D02*
X114813D01*
X114025D02*
Y122053D01*
X114813D01*
X129841Y119063D02*
Y124575D01*
X135353Y119063D02*
Y120244D01*
X124330Y119063D02*
X135353D01*
X124330D02*
Y120244D01*
Y123393D02*
Y124575D01*
X135353D01*
Y123393D02*
Y124575D01*
X118860Y118660D02*
X122860D01*
X118860Y114160D02*
X119360D01*
X118860D02*
Y123160D01*
X119360D01*
X122360D02*
X122860D01*
Y114160D02*
Y123160D01*
X122360Y114160D02*
X122860D01*
X118420Y124380D02*
Y128380D01*
X113920Y127880D02*
Y128380D01*
X122920D01*
Y127880D02*
Y128380D01*
Y124380D02*
Y124880D01*
X113920Y124380D02*
X122920D01*
X113920D02*
Y124880D01*
X118880Y105440D02*
Y109440D01*
X123380Y105440D02*
Y105940D01*
X114380Y105440D02*
X123380D01*
X114380D02*
Y105940D01*
Y108940D02*
Y109440D01*
X123380D01*
Y108940D02*
Y109440D01*
X119451Y89531D02*
X120239D01*
X119451D02*
Y97405D01*
X120239D01*
X122601D02*
X123389D01*
Y89531D02*
Y97405D01*
X122601Y89531D02*
X123389D01*
X108431Y96083D02*
X109219D01*
X108431D02*
Y103957D01*
X109219D01*
X111581D02*
X112369D01*
Y96083D02*
Y103957D01*
X111581Y96083D02*
X112369D01*
X124330Y109693D02*
Y111268D01*
X137715D01*
Y109693D02*
Y111268D01*
Y104181D02*
Y105756D01*
X124330Y104181D02*
X137715D01*
X124330D02*
Y105756D01*
X131023Y104181D02*
Y111268D01*
X115503Y102501D02*
Y103288D01*
X123377D01*
Y102501D02*
Y103288D01*
Y99352D02*
Y100139D01*
X115503Y99352D02*
X123377D01*
X115503D02*
Y100139D01*
X102951Y89460D02*
Y90247D01*
X95077Y89460D02*
X102951D01*
X95077D02*
Y90247D01*
Y92610D02*
Y93397D01*
X102951D01*
Y92610D02*
Y93397D01*
X99040Y99480D02*
X103040D01*
X99040Y94980D02*
X99540D01*
X99040D02*
Y103980D01*
X99540D01*
X102540D02*
X103040D01*
Y94980D02*
Y103980D01*
X102540Y94980D02*
X103040D01*
X103771Y96063D02*
X104559D01*
X103771D02*
Y103937D01*
X104559D01*
X106921D02*
X107709D01*
Y96063D02*
Y103937D01*
X106921Y96063D02*
X107709D01*
X87703Y95684D02*
Y101196D01*
X82191Y100015D02*
Y101196D01*
X93214D01*
Y100015D02*
Y101196D01*
Y95684D02*
Y96865D01*
X82191Y95684D02*
X93214D01*
X82191D02*
Y96865D01*
X87663Y101904D02*
Y107416D01*
X82151Y106235D02*
Y107416D01*
X93174D01*
Y106235D02*
Y107416D01*
Y101904D02*
Y103085D01*
X82151Y101904D02*
X93174D01*
X82151D02*
Y103085D01*
X24691Y199875D02*
Y203875D01*
X20191Y203375D02*
Y203875D01*
X29191D01*
Y203375D02*
Y203875D01*
Y199875D02*
Y200375D01*
X20191Y199875D02*
X29191D01*
X20191D02*
Y200375D01*
X95911Y147399D02*
X99911D01*
X95911Y142899D02*
X96411D01*
X95911D02*
Y151899D01*
X96411D01*
X99411D02*
X99911D01*
Y142899D02*
Y151899D01*
X99411Y142899D02*
X99911D01*
X108977Y143052D02*
Y143839D01*
X101103Y143052D02*
X108977D01*
X101103D02*
Y143839D01*
Y146201D02*
Y146988D01*
X108977D01*
Y146201D02*
Y146988D01*
X11617Y219322D02*
Y223820D01*
X22640D01*
Y222639D02*
Y223820D01*
Y218308D02*
Y219489D01*
X11617Y218308D02*
X22640D01*
X11617D02*
Y219489D01*
X13160Y189120D02*
X17160D01*
X16660Y193620D02*
X17160D01*
Y184620D02*
Y193620D01*
X16660Y184620D02*
X17160D01*
X13160D02*
X13660D01*
X13160D02*
Y193620D01*
X13660D01*
X87960Y279720D02*
Y283720D01*
X92460Y279720D02*
Y280220D01*
X83460Y279720D02*
X92460D01*
X83460D02*
Y280220D01*
Y283220D02*
Y283720D01*
X92460D01*
Y283220D02*
Y283720D01*
X24467Y193735D02*
Y197735D01*
X28967Y193735D02*
Y194235D01*
X19967Y193735D02*
X28967D01*
X19967D02*
Y194235D01*
Y197235D02*
Y197735D01*
X28967D01*
Y197235D02*
Y197735D01*
X65131Y147635D02*
X69131D01*
X68631Y152135D02*
X69131D01*
Y143135D02*
Y152135D01*
X68631Y143135D02*
X69131D01*
X65131D02*
X65631D01*
X65131D02*
Y152135D01*
X65631D01*
X113660Y147096D02*
X117660D01*
X113660Y142596D02*
X114160D01*
X113660D02*
Y151596D01*
X114160D01*
X117160D02*
X117660D01*
Y142596D02*
Y151596D01*
X117160Y142596D02*
X117660D01*
X21474Y228676D02*
Y229464D01*
X29348D01*
Y228676D02*
Y229464D01*
Y225526D02*
Y226314D01*
X21474Y225526D02*
X29348D01*
X21474D02*
Y226314D01*
X72881Y287337D02*
X73668D01*
Y279463D02*
Y287337D01*
X72881Y279463D02*
X73668D01*
X69731D02*
X70519D01*
X69731D02*
Y287337D01*
X70519D01*
X51863Y120103D02*
X52651D01*
X51863D02*
Y127977D01*
X52651D01*
X55013D02*
X55800D01*
Y120103D02*
Y127977D01*
X55013Y120103D02*
X55800D01*
X176395Y89041D02*
Y89828D01*
X184269D01*
Y89041D02*
Y89828D01*
Y85891D02*
Y86679D01*
X176395Y85891D02*
X184269D01*
X176395D02*
Y86679D01*
X176531Y79141D02*
Y79928D01*
X184405D01*
Y79141D02*
Y79928D01*
Y75991D02*
Y76779D01*
X176531Y75991D02*
X184405D01*
X176531D02*
Y76779D01*
X114405Y279252D02*
Y280039D01*
X106531Y279252D02*
X114405D01*
X106531D02*
Y280039D01*
Y282401D02*
Y283189D01*
X114405D01*
Y282401D02*
Y283189D01*
X119180Y279428D02*
Y282972D01*
X122625Y279428D02*
Y280216D01*
X115735Y279428D02*
X122625D01*
X115735D02*
Y280216D01*
Y282184D02*
Y282972D01*
X122625D01*
Y282184D02*
Y282972D01*
X123352Y279155D02*
X124139D01*
X123352D02*
Y287029D01*
X124139D01*
X126501D02*
X127288D01*
Y279155D02*
Y287029D01*
X126501Y279155D02*
X127288D01*
X132750Y53627D02*
Y59139D01*
X127238Y57958D02*
Y59139D01*
X138262D01*
Y57958D02*
Y59139D01*
Y53627D02*
Y54808D01*
X127238Y53627D02*
X138262D01*
X127238D02*
Y54808D01*
X132686Y61076D02*
Y66587D01*
X127174Y65406D02*
Y66587D01*
X138198D01*
Y65406D02*
Y66587D01*
Y61076D02*
Y62257D01*
X127174Y61076D02*
X138198D01*
X127174D02*
Y62257D01*
D17*
X24780Y147795D02*
Y285160D01*
X163794D01*
X163794Y147795D01*
X24780D02*
X163794D01*
D18*
X28113Y127068D02*
X50553D01*
X28113Y112305D02*
Y127068D01*
Y112305D02*
X50553D01*
Y127068D01*
X152740Y88023D02*
X175180D01*
X152740Y73260D02*
Y88023D01*
Y73260D02*
X175180D01*
Y88023D01*
D19*
X30475Y114865D02*
Y124706D01*
Y114865D02*
X48191D01*
X30475Y124706D02*
X48191D01*
Y114865D02*
Y124706D01*
X155102Y75819D02*
Y85661D01*
Y75819D02*
X172818D01*
X155102Y85661D02*
X172818D01*
Y75819D02*
Y85661D01*
D20*
X48333Y127068D02*
X50553Y124785D01*
X172960Y88023D02*
X175180Y85740D01*
X103432Y106221D02*
X110913D01*
Y121280D01*
X96051D02*
X110913D01*
X96051Y106221D02*
Y121280D01*
Y106221D02*
X103432D01*
D21*
X15064Y210789D02*
X20418D01*
Y205238D02*
Y210789D01*
X15064Y205238D02*
X20418D01*
X15064D02*
Y210789D01*
X15537Y206301D02*
Y209686D01*
Y206301D02*
X20025D01*
Y209726D01*
X15537D02*
X20025D01*
X15537Y209686D02*
Y209726D01*
X19682Y116611D02*
X25036D01*
X19682D02*
Y122162D01*
X25036D01*
Y116611D02*
Y122162D01*
X24564Y117713D02*
Y121099D01*
X20075D02*
X24564D01*
X20075Y117674D02*
Y121099D01*
Y117674D02*
X24564D01*
Y117713D01*
X51345Y69193D02*
X51540Y68998D01*
X44259Y69193D02*
X51345D01*
X51540Y65405D02*
Y68998D01*
X46240Y65405D02*
X51540D01*
X44259D02*
X46240D01*
X44259Y65256D02*
Y69193D01*
X45146D02*
X45240D01*
X44259Y68305D02*
X45146Y69193D01*
D22*
X80974Y88688D02*
X141014D01*
Y130909D01*
X80974D02*
X141014D01*
X80974Y88688D02*
Y130909D01*
D23*
X84831Y77062D02*
X84898Y76962D01*
X82798D02*
X84898D01*
X83898Y78462D02*
X84898Y76962D01*
X82798D02*
X83898Y78462D01*
X16455Y219922D02*
X16555Y219989D01*
X16455Y219922D02*
Y222023D01*
Y219922D02*
X17955Y220922D01*
X16455Y222023D02*
X17955Y220922D01*
D24*
X36680Y275900D02*
Y277081D01*
X37270D01*
X37467Y276884D01*
Y276490D01*
X37270Y276294D01*
X36680D01*
X38648Y275900D02*
X37861D01*
X38648Y276687D01*
Y276884D01*
X38451Y277081D01*
X38058D01*
X37861Y276884D01*
X24150Y68971D02*
X23757D01*
X23954D01*
Y67987D01*
X23757Y67790D01*
X23560D01*
X23363Y67987D01*
X25331Y68971D02*
X24937Y68774D01*
X24544Y68380D01*
Y67987D01*
X24741Y67790D01*
X25134D01*
X25331Y67987D01*
Y68183D01*
X25134Y68380D01*
X24544D01*
X158756Y186200D02*
Y187381D01*
X159347D01*
X159544Y187184D01*
Y186790D01*
X159347Y186594D01*
X158756D01*
X159150D02*
X159544Y186200D01*
X160724D02*
X159937D01*
X160724Y186987D01*
Y187184D01*
X160528Y187381D01*
X160134D01*
X159937Y187184D01*
X161118Y187381D02*
X161905D01*
Y187184D01*
X161118Y186397D01*
Y186200D01*
X20060Y236780D02*
Y237961D01*
X20650D01*
X20847Y237764D01*
Y237370D01*
X20650Y237174D01*
X20060D01*
X20454D02*
X20847Y236780D01*
X22028D02*
X21241D01*
X22028Y237567D01*
Y237764D01*
X21831Y237961D01*
X21438D01*
X21241Y237764D01*
X23209Y237961D02*
X22815Y237764D01*
X22421Y237370D01*
Y236977D01*
X22618Y236780D01*
X23012D01*
X23209Y236977D01*
Y237174D01*
X23012Y237370D01*
X22421D01*
X158756Y191200D02*
Y192381D01*
X159347D01*
X159544Y192184D01*
Y191790D01*
X159347Y191594D01*
X158756D01*
X159150D02*
X159544Y191200D01*
X160724D02*
X159937D01*
X160724Y191987D01*
Y192184D01*
X160528Y192381D01*
X160134D01*
X159937Y192184D01*
X161905Y192381D02*
X161118D01*
Y191790D01*
X161511Y191987D01*
X161708D01*
X161905Y191790D01*
Y191397D01*
X161708Y191200D01*
X161315D01*
X161118Y191397D01*
X20060Y241680D02*
Y242861D01*
X20650D01*
X20847Y242664D01*
Y242270D01*
X20650Y242074D01*
X20060D01*
X20454D02*
X20847Y241680D01*
X22028D02*
X21241D01*
X22028Y242467D01*
Y242664D01*
X21831Y242861D01*
X21438D01*
X21241Y242664D01*
X23012Y241680D02*
Y242861D01*
X22421Y242270D01*
X23209D01*
X158756Y226345D02*
Y227526D01*
X159347D01*
X159544Y227329D01*
Y226935D01*
X159347Y226739D01*
X158756D01*
X159150D02*
X159544Y226345D01*
X160724D02*
X159937D01*
X160724Y227132D01*
Y227329D01*
X160528Y227526D01*
X160134D01*
X159937Y227329D01*
X161118D02*
X161315Y227526D01*
X161708D01*
X161905Y227329D01*
Y227132D01*
X161708Y226935D01*
X161511D01*
X161708D01*
X161905Y226739D01*
Y226542D01*
X161708Y226345D01*
X161315D01*
X161118Y226542D01*
X20060Y246780D02*
Y247961D01*
X20650D01*
X20847Y247764D01*
Y247370D01*
X20650Y247174D01*
X20060D01*
X20454D02*
X20847Y246780D01*
X22028D02*
X21241D01*
X22028Y247567D01*
Y247764D01*
X21831Y247961D01*
X21438D01*
X21241Y247764D01*
X23209Y246780D02*
X22421D01*
X23209Y247567D01*
Y247764D01*
X23012Y247961D01*
X22618D01*
X22421Y247764D01*
X158756Y221485D02*
Y222666D01*
X159347D01*
X159544Y222469D01*
Y222075D01*
X159347Y221879D01*
X158756D01*
X159150D02*
X159544Y221485D01*
X160724D02*
X159937D01*
X160724Y222272D01*
Y222469D01*
X160528Y222666D01*
X160134D01*
X159937Y222469D01*
X161118D02*
X161315Y222666D01*
X161708D01*
X161905Y222469D01*
Y221682D01*
X161708Y221485D01*
X161315D01*
X161118Y221682D01*
Y222469D01*
X65080Y291336D02*
Y292517D01*
X65670D01*
X65867Y292320D01*
Y291927D01*
X65670Y291730D01*
X65080D01*
X65474D02*
X65867Y291336D01*
X66261D02*
X66654D01*
X66457D01*
Y292517D01*
X66261Y292320D01*
X67245Y291533D02*
X67441Y291336D01*
X67835D01*
X68032Y291533D01*
Y292320D01*
X67835Y292517D01*
X67441D01*
X67245Y292320D01*
Y292123D01*
X67441Y291927D01*
X68032D01*
X48080Y112360D02*
Y113541D01*
X48670D01*
X48867Y113344D01*
Y112950D01*
X48670Y112754D01*
X48080D01*
X48474D02*
X48867Y112360D01*
X49261D02*
X49654D01*
X49457D01*
Y113541D01*
X49261Y113344D01*
X50245Y113541D02*
X51032D01*
Y113344D01*
X50245Y112557D01*
Y112360D01*
X158636Y201945D02*
Y203126D01*
X159227D01*
X159423Y202929D01*
Y202535D01*
X159227Y202339D01*
X158636D01*
X159030D02*
X159423Y201945D01*
X159817D02*
X160211D01*
X160014D01*
Y203126D01*
X159817Y202929D01*
X160801D02*
X160998Y203126D01*
X161391D01*
X161588Y202929D01*
Y202732D01*
X161391Y202535D01*
X161195D01*
X161391D01*
X161588Y202339D01*
Y202142D01*
X161391Y201945D01*
X160998D01*
X160801Y202142D01*
X64800Y143960D02*
Y145141D01*
X65390D01*
X65587Y144944D01*
Y144550D01*
X65390Y144354D01*
X64800D01*
X65194D02*
X65587Y143960D01*
X65981D02*
X66374D01*
X66177D01*
Y145141D01*
X65981Y144944D01*
X67752Y143960D02*
X66965D01*
X67752Y144747D01*
Y144944D01*
X67555Y145141D01*
X67161D01*
X66965Y144944D01*
X158716Y196585D02*
Y197766D01*
X159307D01*
X159503Y197569D01*
Y197175D01*
X159307Y196979D01*
X158716D01*
X159110D02*
X159503Y196585D01*
X159897D02*
X160291D01*
X160094D01*
Y197766D01*
X159897Y197569D01*
X160881D02*
X161078Y197766D01*
X161471D01*
X161668Y197569D01*
Y196782D01*
X161471Y196585D01*
X161078D01*
X160881Y196782D01*
Y197569D01*
X158716Y209520D02*
Y210701D01*
X159307D01*
X159503Y210504D01*
Y210110D01*
X159307Y209914D01*
X158716D01*
X159110D02*
X159503Y209520D01*
X159897Y209717D02*
X160094Y209520D01*
X160487D01*
X160684Y209717D01*
Y210504D01*
X160487Y210701D01*
X160094D01*
X159897Y210504D01*
Y210307D01*
X160094Y210110D01*
X160684D01*
X120380Y154700D02*
Y155881D01*
X120970D01*
X121167Y155684D01*
Y155290D01*
X120970Y155094D01*
X120380D01*
X120774D02*
X121167Y154700D01*
X121561Y155684D02*
X121757Y155881D01*
X122151D01*
X122348Y155684D01*
Y155487D01*
X122151Y155290D01*
X122348Y155094D01*
Y154897D01*
X122151Y154700D01*
X121757D01*
X121561Y154897D01*
Y155094D01*
X121757Y155290D01*
X121561Y155487D01*
Y155684D01*
X121757Y155290D02*
X122151D01*
X175940Y88861D02*
Y87680D01*
X176727D01*
X177121D02*
X177514D01*
X177318D01*
Y88861D01*
X177121Y88664D01*
X178105D02*
X178301Y88861D01*
X178695D01*
X178892Y88664D01*
Y88467D01*
X178695Y88270D01*
X178498D01*
X178695D01*
X178892Y88074D01*
Y87877D01*
X178695Y87680D01*
X178301D01*
X178105Y87877D01*
X176020Y78841D02*
Y77660D01*
X176807D01*
X177201D02*
X177594D01*
X177398D01*
Y78841D01*
X177201Y78644D01*
X178972Y77660D02*
X178185D01*
X178972Y78447D01*
Y78644D01*
X178775Y78841D01*
X178381D01*
X178185Y78644D01*
X39694Y76853D02*
X38514D01*
Y76065D01*
Y75672D02*
Y75278D01*
Y75475D01*
X39694D01*
X39498Y75672D01*
X38514Y74688D02*
Y74294D01*
Y74491D01*
X39694D01*
X39498Y74688D01*
X156640Y55901D02*
Y54720D01*
Y55310D01*
X157427D01*
Y55901D01*
Y54720D01*
X158608D02*
X157821D01*
X158608Y55507D01*
Y55704D01*
X158411Y55901D01*
X158018D01*
X157821Y55704D01*
X159789Y54720D02*
X159001D01*
X159789Y55507D01*
Y55704D01*
X159592Y55901D01*
X159198D01*
X159001Y55704D01*
X29348Y96833D02*
Y95653D01*
Y96243D01*
X30135D01*
Y96833D01*
Y95653D01*
X31316D02*
X30529D01*
X31316Y96440D01*
Y96636D01*
X31119Y96833D01*
X30726D01*
X30529Y96636D01*
X31710Y95653D02*
X32103D01*
X31907D01*
Y96833D01*
X31710Y96636D01*
X29348Y107813D02*
Y106632D01*
Y107223D01*
X30135D01*
Y107813D01*
Y106632D01*
X31316D02*
X30529D01*
X31316Y107420D01*
Y107616D01*
X31119Y107813D01*
X30726D01*
X30529Y107616D01*
X31710D02*
X31907Y107813D01*
X32300D01*
X32497Y107616D01*
Y106829D01*
X32300Y106632D01*
X31907D01*
X31710Y106829D01*
Y107616D01*
X18340Y107801D02*
Y106620D01*
Y107210D01*
X19127D01*
Y107801D01*
Y106620D01*
X19521D02*
X19914D01*
X19717D01*
Y107801D01*
X19521Y107604D01*
X20505Y106817D02*
X20701Y106620D01*
X21095D01*
X21292Y106817D01*
Y107604D01*
X21095Y107801D01*
X20701D01*
X20505Y107604D01*
Y107407D01*
X20701Y107210D01*
X21292D01*
X18348Y96873D02*
Y95692D01*
Y96283D01*
X19136D01*
Y96873D01*
Y95692D01*
X19529D02*
X19923D01*
X19726D01*
Y96873D01*
X19529Y96676D01*
X20513D02*
X20710Y96873D01*
X21103D01*
X21300Y96676D01*
Y96480D01*
X21103Y96283D01*
X21300Y96086D01*
Y95889D01*
X21103Y95692D01*
X20710D01*
X20513Y95889D01*
Y96086D01*
X20710Y96283D01*
X20513Y96480D01*
Y96676D01*
X20710Y96283D02*
X21103D01*
X51592Y107868D02*
Y106687D01*
Y107278D01*
X52379D01*
Y107868D01*
Y106687D01*
X52772D02*
X53166D01*
X52969D01*
Y107868D01*
X52772Y107671D01*
X53756Y107868D02*
X54544D01*
Y107671D01*
X53756Y106884D01*
Y106687D01*
X51600Y96868D02*
Y95688D01*
Y96278D01*
X52387D01*
Y96868D01*
Y95688D01*
X52781D02*
X53174D01*
X52978D01*
Y96868D01*
X52781Y96671D01*
X54552Y96868D02*
X54158Y96671D01*
X53765Y96278D01*
Y95884D01*
X53961Y95688D01*
X54355D01*
X54552Y95884D01*
Y96081D01*
X54355Y96278D01*
X53765D01*
X145400Y55841D02*
Y54660D01*
Y55250D01*
X146187D01*
Y55841D01*
Y54660D01*
X146581D02*
X146974D01*
X146777D01*
Y55841D01*
X146581Y55644D01*
X148352Y55841D02*
X147565D01*
Y55250D01*
X147958Y55447D01*
X148155D01*
X148352Y55250D01*
Y54857D01*
X148155Y54660D01*
X147761D01*
X147565Y54857D01*
X167380Y44941D02*
Y43760D01*
Y44350D01*
X168167D01*
Y44941D01*
Y43760D01*
X168561D02*
X168954D01*
X168757D01*
Y44941D01*
X168561Y44744D01*
X170135Y43760D02*
Y44941D01*
X169545Y44350D01*
X170332D01*
X145400Y66841D02*
Y65660D01*
Y66250D01*
X146187D01*
Y66841D01*
Y65660D01*
X146581D02*
X146974D01*
X146777D01*
Y66841D01*
X146581Y66644D01*
X147565D02*
X147761Y66841D01*
X148155D01*
X148352Y66644D01*
Y66447D01*
X148155Y66250D01*
X147958D01*
X148155D01*
X148352Y66054D01*
Y65857D01*
X148155Y65660D01*
X147761D01*
X147565Y65857D01*
X145380Y44941D02*
Y43760D01*
Y44350D01*
X146167D01*
Y44941D01*
Y43760D01*
X146561D02*
X146954D01*
X146757D01*
Y44941D01*
X146561Y44744D01*
X148332Y43760D02*
X147545D01*
X148332Y44547D01*
Y44744D01*
X148135Y44941D01*
X147741D01*
X147545Y44744D01*
X40478Y107860D02*
Y106679D01*
Y107269D01*
X41265D01*
Y107860D01*
Y106679D01*
X41659D02*
X42052D01*
X41855D01*
Y107860D01*
X41659Y107663D01*
X42643Y106679D02*
X43036D01*
X42839D01*
Y107860D01*
X42643Y107663D01*
X156280Y44941D02*
Y43760D01*
Y44350D01*
X157067D01*
Y44941D01*
Y43760D01*
X157461D02*
X157854D01*
X157658D01*
Y44941D01*
X157461Y44744D01*
X158445D02*
X158641Y44941D01*
X159035D01*
X159232Y44744D01*
Y43957D01*
X159035Y43760D01*
X158641D01*
X158445Y43957D01*
Y44744D01*
X40472Y96888D02*
Y95707D01*
Y96298D01*
X41259D01*
Y96888D01*
Y95707D01*
X41652Y95904D02*
X41849Y95707D01*
X42243D01*
X42440Y95904D01*
Y96691D01*
X42243Y96888D01*
X41849D01*
X41652Y96691D01*
Y96495D01*
X41849Y96298D01*
X42440D01*
X178248Y44953D02*
Y43773D01*
Y44363D01*
X179035D01*
Y44953D01*
Y43773D01*
X179429Y44756D02*
X179626Y44953D01*
X180019D01*
X180216Y44756D01*
Y44560D01*
X180019Y44363D01*
X180216Y44166D01*
Y43969D01*
X180019Y43773D01*
X179626D01*
X179429Y43969D01*
Y44166D01*
X179626Y44363D01*
X179429Y44560D01*
Y44756D01*
X179626Y44363D02*
X180019D01*
X178300Y66941D02*
Y65760D01*
Y66350D01*
X179087D01*
Y66941D01*
Y65760D01*
X179481Y66941D02*
X180268D01*
Y66744D01*
X179481Y65957D01*
Y65760D01*
X178300Y55941D02*
Y54760D01*
Y55350D01*
X179087D01*
Y55941D01*
Y54760D01*
X180268Y55941D02*
X179874Y55744D01*
X179481Y55350D01*
Y54957D01*
X179677Y54760D01*
X180071D01*
X180268Y54957D01*
Y55154D01*
X180071Y55350D01*
X179481D01*
X167600Y66941D02*
Y65760D01*
Y66350D01*
X168387D01*
Y66941D01*
Y65760D01*
X169568Y66941D02*
X168781D01*
Y66350D01*
X169174Y66547D01*
X169371D01*
X169568Y66350D01*
Y65957D01*
X169371Y65760D01*
X168977D01*
X168781Y65957D01*
X18346Y82772D02*
Y81591D01*
Y82182D01*
X19133D01*
Y82772D01*
Y81591D01*
X20117D02*
Y82772D01*
X19527Y82182D01*
X20314D01*
X167500Y55841D02*
Y54660D01*
Y55250D01*
X168287D01*
Y55841D01*
Y54660D01*
X168681Y55644D02*
X168877Y55841D01*
X169271D01*
X169468Y55644D01*
Y55447D01*
X169271Y55250D01*
X169074D01*
X169271D01*
X169468Y55054D01*
Y54857D01*
X169271Y54660D01*
X168877D01*
X168681Y54857D01*
X156480Y66861D02*
Y65680D01*
Y66270D01*
X157267D01*
Y66861D01*
Y65680D01*
X158448D02*
X157661D01*
X158448Y66467D01*
Y66664D01*
X158251Y66861D01*
X157858D01*
X157661Y66664D01*
X51680Y85881D02*
Y84700D01*
Y85290D01*
X52467D01*
Y85881D01*
Y84700D01*
X52861D02*
X53254D01*
X53057D01*
Y85881D01*
X52861Y85684D01*
X158765Y231781D02*
X159552D01*
X159158D01*
Y230600D01*
X159945D02*
Y231781D01*
X160536D01*
X160732Y231584D01*
Y231190D01*
X160536Y230994D01*
X159945D01*
X161126Y230600D02*
X161520D01*
X161323D01*
Y231781D01*
X161126Y231584D01*
X169440Y101604D02*
Y102785D01*
X170030D01*
X170227Y102588D01*
Y102194D01*
X170030Y101997D01*
X169440D01*
X169834D02*
X170227Y101604D01*
X171408D02*
X170621D01*
X171408Y102391D01*
Y102588D01*
X171211Y102785D01*
X170817D01*
X170621Y102588D01*
X82020Y154760D02*
Y155941D01*
X82610D01*
X82807Y155744D01*
Y155350D01*
X82610Y155154D01*
X82020D01*
X82414D02*
X82807Y154760D01*
X83201D02*
X83594D01*
X83398D01*
Y155941D01*
X83201Y155744D01*
X19765Y219805D02*
Y220986D01*
X20355D01*
X20552Y220789D01*
Y220395D01*
X20355Y220199D01*
X19765D01*
X20159D02*
X20552Y219805D01*
X20946Y220986D02*
X21733D01*
Y220789D01*
X20946Y220002D01*
Y219805D01*
X130420Y106461D02*
X131207D01*
X130814D01*
Y105280D01*
X131601D02*
Y106461D01*
X132191D01*
X132388Y106264D01*
Y105870D01*
X132191Y105674D01*
X131601D01*
X132781Y106264D02*
X132978Y106461D01*
X133372D01*
X133569Y106264D01*
Y106067D01*
X133372Y105870D01*
X133175D01*
X133372D01*
X133569Y105674D01*
Y105477D01*
X133372Y105280D01*
X132978D01*
X132781Y105477D01*
X133962Y106264D02*
X134159Y106461D01*
X134553D01*
X134749Y106264D01*
Y105477D01*
X134553Y105280D01*
X134159D01*
X133962Y105477D01*
Y106264D01*
X78406Y98832D02*
X79193D01*
X78800D01*
Y97651D01*
X79587D02*
Y98832D01*
X80177D01*
X80374Y98635D01*
Y98242D01*
X80177Y98045D01*
X79587D01*
X81555Y97651D02*
X80768D01*
X81555Y98439D01*
Y98635D01*
X81358Y98832D01*
X80964D01*
X80768Y98635D01*
X81949Y97848D02*
X82145Y97651D01*
X82539D01*
X82736Y97848D01*
Y98635D01*
X82539Y98832D01*
X82145D01*
X81949Y98635D01*
Y98439D01*
X82145Y98242D01*
X82736D01*
X99274Y127728D02*
X98487D01*
X98880D01*
Y128909D01*
X98093D02*
Y127728D01*
X97503D01*
X97306Y127925D01*
Y128318D01*
X97503Y128515D01*
X98093D01*
X96125Y128909D02*
X96912D01*
X96125Y128121D01*
Y127925D01*
X96322Y127728D01*
X96715D01*
X96912Y127925D01*
X95732D02*
X95535Y127728D01*
X95141D01*
X94944Y127925D01*
Y128121D01*
X95141Y128318D01*
X94944Y128515D01*
Y128712D01*
X95141Y128909D01*
X95535D01*
X95732Y128712D01*
Y128515D01*
X95535Y128318D01*
X95732Y128121D01*
Y127925D01*
X95535Y128318D02*
X95141D01*
X15489Y207706D02*
X16276D01*
X15882D01*
Y206525D01*
X16669D02*
Y207706D01*
X17260D01*
X17457Y207509D01*
Y207115D01*
X17260Y206919D01*
X16669D01*
X18637Y206525D02*
X17850D01*
X18637Y207312D01*
Y207509D01*
X18441Y207706D01*
X18047D01*
X17850Y207509D01*
X19621Y206525D02*
Y207706D01*
X19031Y207115D01*
X19818D01*
X22369Y215746D02*
X23156D01*
X22762D01*
Y214565D01*
X23550D02*
Y215746D01*
X24140D01*
X24337Y215549D01*
Y215155D01*
X24140Y214959D01*
X23550D01*
X25517Y214565D02*
X24730D01*
X25517Y215352D01*
Y215549D01*
X25321Y215746D01*
X24927D01*
X24730Y215549D01*
X25911D02*
X26108Y215746D01*
X26501D01*
X26698Y215549D01*
Y215352D01*
X26501Y215155D01*
X26305D01*
X26501D01*
X26698Y214959D01*
Y214762D01*
X26501Y214565D01*
X26108D01*
X25911Y214762D01*
X102400Y143781D02*
X103187D01*
X102794D01*
Y142600D01*
X103581D02*
Y143781D01*
X104171D01*
X104368Y143584D01*
Y143190D01*
X104171Y142994D01*
X103581D01*
X105549Y142600D02*
X104761D01*
X105549Y143387D01*
Y143584D01*
X105352Y143781D01*
X104958D01*
X104761Y143584D01*
X106729Y142600D02*
X105942D01*
X106729Y143387D01*
Y143584D01*
X106533Y143781D01*
X106139D01*
X105942Y143584D01*
X116829Y160046D02*
X117616D01*
X117222D01*
Y158865D01*
X118009D02*
Y160046D01*
X118600D01*
X118797Y159849D01*
Y159455D01*
X118600Y159259D01*
X118009D01*
X119190Y158865D02*
X119584D01*
X119387D01*
Y160046D01*
X119190Y159849D01*
X120961Y160046D02*
X120568Y159849D01*
X120174Y159455D01*
Y159062D01*
X120371Y158865D01*
X120765D01*
X120961Y159062D01*
Y159259D01*
X120765Y159455D01*
X120174D01*
X84629Y135326D02*
X85416D01*
X85022D01*
Y134145D01*
X85809D02*
Y135326D01*
X86400D01*
X86597Y135129D01*
Y134735D01*
X86400Y134539D01*
X85809D01*
X86990Y134145D02*
X87384D01*
X87187D01*
Y135326D01*
X86990Y135129D01*
X88761Y135326D02*
X87974D01*
Y134735D01*
X88368Y134932D01*
X88564D01*
X88761Y134735D01*
Y134342D01*
X88564Y134145D01*
X88171D01*
X87974Y134342D01*
X91266Y146572D02*
X92053D01*
X91660D01*
Y145391D01*
X92447D02*
Y146572D01*
X93037D01*
X93234Y146375D01*
Y145982D01*
X93037Y145785D01*
X92447D01*
X93628Y145391D02*
X94021D01*
X93824D01*
Y146572D01*
X93628Y146375D01*
X95202Y145391D02*
Y146572D01*
X94612Y145982D01*
X95399D01*
X65480Y159181D02*
X66267D01*
X65874D01*
Y158000D01*
X66661D02*
Y159181D01*
X67251D01*
X67448Y158984D01*
Y158590D01*
X67251Y158394D01*
X66661D01*
X67841Y158000D02*
X68235D01*
X68038D01*
Y159181D01*
X67841Y158984D01*
X68825D02*
X69022Y159181D01*
X69416D01*
X69612Y158984D01*
Y158787D01*
X69416Y158590D01*
X69219D01*
X69416D01*
X69612Y158394D01*
Y158197D01*
X69416Y158000D01*
X69022D01*
X68825Y158197D01*
X25794Y197301D02*
X26581D01*
X26187D01*
Y196120D01*
X26974D02*
Y197301D01*
X27565D01*
X27762Y197104D01*
Y196711D01*
X27565Y196514D01*
X26974D01*
X28155Y196120D02*
X28549D01*
X28352D01*
Y197301D01*
X28155Y197104D01*
X29926Y196120D02*
X29139D01*
X29926Y196907D01*
Y197104D01*
X29729Y197301D01*
X29336D01*
X29139Y197104D01*
X25329Y211006D02*
X26116D01*
X25722D01*
Y209825D01*
X26509D02*
Y211006D01*
X27100D01*
X27297Y210809D01*
Y210415D01*
X27100Y210219D01*
X26509D01*
X27690Y209825D02*
X28084D01*
X27887D01*
Y211006D01*
X27690Y210809D01*
X28674Y209825D02*
X29068D01*
X28871D01*
Y211006D01*
X28674Y210809D01*
X56208Y126953D02*
X56995D01*
X56602D01*
Y125773D01*
X57389D02*
Y126953D01*
X57979D01*
X58176Y126756D01*
Y126363D01*
X57979Y126166D01*
X57389D01*
X58570Y126953D02*
X59357D01*
Y126756D01*
X58570Y125969D01*
Y125773D01*
X148400Y98141D02*
X149187D01*
X148794D01*
Y96960D01*
X149581D02*
Y98141D01*
X150171D01*
X150368Y97944D01*
Y97550D01*
X150171Y97354D01*
X149581D01*
X151549Y98141D02*
X151155Y97944D01*
X150761Y97550D01*
Y97157D01*
X150958Y96960D01*
X151352D01*
X151549Y97157D01*
Y97354D01*
X151352Y97550D01*
X150761D01*
X119646Y88792D02*
X120433D01*
X120040D01*
Y87612D01*
X120827D02*
Y88792D01*
X121417D01*
X121614Y88595D01*
Y88202D01*
X121417Y88005D01*
X120827D01*
X122795Y88792D02*
X122008D01*
Y88202D01*
X122401Y88399D01*
X122598D01*
X122795Y88202D01*
Y87808D01*
X122598Y87612D01*
X122204D01*
X122008Y87808D01*
X126367Y46343D02*
X126170Y46540D01*
X125777D01*
X125580Y46343D01*
Y46147D01*
X125777Y45950D01*
X126170D01*
X126367Y45753D01*
Y45556D01*
X126170Y45359D01*
X125777D01*
X125580Y45556D01*
X126761Y46540D02*
Y45359D01*
X127154Y45753D01*
X127548Y45359D01*
Y46540D01*
X128729Y45359D02*
X127941D01*
X128729Y46147D01*
Y46343D01*
X128532Y46540D01*
X128138D01*
X127941Y46343D01*
X75766Y84275D02*
Y85456D01*
X76357D01*
X76553Y85259D01*
Y84866D01*
X76357Y84669D01*
X75766D01*
X76160D02*
X76553Y84275D01*
X77734Y85456D02*
X76947D01*
Y84866D01*
X77341Y85062D01*
X77537D01*
X77734Y84866D01*
Y84472D01*
X77537Y84275D01*
X77144D01*
X76947Y84472D01*
X78128Y85259D02*
X78325Y85456D01*
X78718D01*
X78915Y85259D01*
Y84472D01*
X78718Y84275D01*
X78325D01*
X78128Y84472D01*
Y85259D01*
X101742Y88741D02*
X100561D01*
Y89331D01*
X100758Y89528D01*
X101151D01*
X101348Y89331D01*
Y88741D01*
Y89135D02*
X101742Y89528D01*
Y90512D02*
X100561D01*
X101151Y89922D01*
Y90709D01*
X100758Y91102D02*
X100561Y91299D01*
Y91693D01*
X100758Y91890D01*
X100954D01*
X101151Y91693D01*
X101348Y91890D01*
X101545D01*
X101742Y91693D01*
Y91299D01*
X101545Y91102D01*
X101348D01*
X101151Y91299D01*
X100954Y91102D01*
X100758D01*
X101151Y91299D02*
Y91693D01*
X98846Y106686D02*
Y107867D01*
X99437D01*
X99634Y107670D01*
Y107277D01*
X99437Y107080D01*
X98846D01*
X99240D02*
X99634Y106686D01*
X100617D02*
Y107867D01*
X100027Y107277D01*
X100814D01*
X101995Y107867D02*
X101601Y107670D01*
X101208Y107277D01*
Y106883D01*
X101405Y106686D01*
X101798D01*
X101995Y106883D01*
Y107080D01*
X101798Y107277D01*
X101208D01*
X91098Y113260D02*
Y112079D01*
X90507D01*
X90311Y112276D01*
Y112669D01*
X90507Y112866D01*
X91098D01*
X90704D02*
X90311Y113260D01*
X89327D02*
Y112079D01*
X89917Y112669D01*
X89130D01*
X87949Y112079D02*
X88736D01*
Y112669D01*
X88343Y112472D01*
X88146D01*
X87949Y112669D01*
Y113063D01*
X88146Y113260D01*
X88540D01*
X88736Y113063D01*
X114062Y112018D02*
Y113198D01*
X114653D01*
X114850Y113002D01*
Y112608D01*
X114653Y112411D01*
X114062D01*
X114456D02*
X114850Y112018D01*
X115834D02*
Y113198D01*
X115243Y112608D01*
X116030D01*
X117014Y112018D02*
Y113198D01*
X116424Y112608D01*
X117211D01*
X113602Y130972D02*
Y132152D01*
X114193D01*
X114390Y131955D01*
Y131562D01*
X114193Y131365D01*
X113602D01*
X113996D02*
X114390Y130972D01*
X115374D02*
Y132152D01*
X114783Y131562D01*
X115570D01*
X115964Y131955D02*
X116161Y132152D01*
X116554D01*
X116751Y131955D01*
Y131759D01*
X116554Y131562D01*
X116358D01*
X116554D01*
X116751Y131365D01*
Y131168D01*
X116554Y130972D01*
X116161D01*
X115964Y131168D01*
X118685Y125911D02*
Y127092D01*
X119275D01*
X119472Y126895D01*
Y126502D01*
X119275Y126305D01*
X118685D01*
X119079D02*
X119472Y125911D01*
X120456D02*
Y127092D01*
X119866Y126502D01*
X120653D01*
X121834Y125911D02*
X121046D01*
X121834Y126698D01*
Y126895D01*
X121637Y127092D01*
X121243D01*
X121046Y126895D01*
X19860Y206480D02*
Y207661D01*
X20450D01*
X20647Y207464D01*
Y207070D01*
X20450Y206874D01*
X19860D01*
X20254D02*
X20647Y206480D01*
X21041Y207464D02*
X21238Y207661D01*
X21631D01*
X21828Y207464D01*
Y207267D01*
X21631Y207070D01*
X21434D01*
X21631D01*
X21828Y206874D01*
Y206677D01*
X21631Y206480D01*
X21238D01*
X21041Y206677D01*
X22812Y206480D02*
Y207661D01*
X22221Y207070D01*
X23009D01*
X12960Y196384D02*
Y197564D01*
X13550D01*
X13747Y197368D01*
Y196974D01*
X13550Y196777D01*
X12960D01*
X13354D02*
X13747Y196384D01*
X14141Y197368D02*
X14337Y197564D01*
X14731D01*
X14928Y197368D01*
Y197171D01*
X14731Y196974D01*
X14534D01*
X14731D01*
X14928Y196777D01*
Y196581D01*
X14731Y196384D01*
X14337D01*
X14141Y196581D01*
X15321Y197368D02*
X15518Y197564D01*
X15912D01*
X16109Y197368D01*
Y197171D01*
X15912Y196974D01*
X15715D01*
X15912D01*
X16109Y196777D01*
Y196581D01*
X15912Y196384D01*
X15518D01*
X15321Y196581D01*
X12756Y186120D02*
Y187301D01*
X13347D01*
X13543Y187104D01*
Y186710D01*
X13347Y186514D01*
X12756D01*
X13150D02*
X13543Y186120D01*
X13937Y187104D02*
X14134Y187301D01*
X14527D01*
X14724Y187104D01*
Y186907D01*
X14527Y186710D01*
X14331D01*
X14527D01*
X14724Y186514D01*
Y186317D01*
X14527Y186120D01*
X14134D01*
X13937Y186317D01*
X15905Y186120D02*
X15118D01*
X15905Y186907D01*
Y187104D01*
X15708Y187301D01*
X15314D01*
X15118Y187104D01*
X95780Y154600D02*
Y155781D01*
X96370D01*
X96567Y155584D01*
Y155190D01*
X96370Y154994D01*
X95780D01*
X96174D02*
X96567Y154600D01*
X97748D02*
X96961D01*
X97748Y155387D01*
Y155584D01*
X97551Y155781D01*
X97158D01*
X96961Y155584D01*
X98141Y154600D02*
X98535D01*
X98338D01*
Y155781D01*
X98141Y155584D01*
X173304Y203000D02*
Y204181D01*
X173894D01*
X174091Y203984D01*
Y203590D01*
X173894Y203394D01*
X173304D01*
X173697D02*
X174091Y203000D01*
X174485D02*
X174878D01*
X174681D01*
Y204181D01*
X174485Y203984D01*
X175468D02*
X175665Y204181D01*
X176059D01*
X176256Y203984D01*
Y203787D01*
X176059Y203590D01*
X176256Y203394D01*
Y203197D01*
X176059Y203000D01*
X175665D01*
X175468Y203197D01*
Y203394D01*
X175665Y203590D01*
X175468Y203787D01*
Y203984D01*
X175665Y203590D02*
X176059D01*
X113449Y154281D02*
Y155462D01*
X114039D01*
X114236Y155265D01*
Y154872D01*
X114039Y154675D01*
X113449D01*
X113842D02*
X114236Y154281D01*
X114629D02*
X115023D01*
X114826D01*
Y155462D01*
X114629Y155265D01*
X116401Y155462D02*
X116007Y155265D01*
X115613Y154872D01*
Y154478D01*
X115810Y154281D01*
X116204D01*
X116401Y154478D01*
Y154675D01*
X116204Y154872D01*
X115613D01*
X64980Y154900D02*
Y156081D01*
X65570D01*
X65767Y155884D01*
Y155490D01*
X65570Y155294D01*
X64980D01*
X65374D02*
X65767Y154900D01*
X66161D02*
X66554D01*
X66357D01*
Y156081D01*
X66161Y155884D01*
X67932Y156081D02*
X67145D01*
Y155490D01*
X67538Y155687D01*
X67735D01*
X67932Y155490D01*
Y155097D01*
X67735Y154900D01*
X67341D01*
X67145Y155097D01*
X19660Y200280D02*
Y201461D01*
X20250D01*
X20447Y201264D01*
Y200870D01*
X20250Y200674D01*
X19660D01*
X20054D02*
X20447Y200280D01*
X20841D02*
X21234D01*
X21037D01*
Y201461D01*
X20841Y201264D01*
X22415Y200280D02*
Y201461D01*
X21825Y200870D01*
X22612D01*
X83133Y286321D02*
Y287502D01*
X83723D01*
X83920Y287305D01*
Y286912D01*
X83723Y286715D01*
X83133D01*
X83526D02*
X83920Y286321D01*
X84313D02*
X84707D01*
X84510D01*
Y287502D01*
X84313Y287305D01*
X85297Y286321D02*
X85691D01*
X85494D01*
Y287502D01*
X85297Y287305D01*
X146740Y81584D02*
X145559D01*
Y82174D01*
X145756Y82371D01*
X146150D01*
X146346Y82174D01*
Y81584D01*
Y81977D02*
X146740Y82371D01*
X145559Y83552D02*
X145756Y83158D01*
X146150Y82765D01*
X146543D01*
X146740Y82961D01*
Y83355D01*
X146543Y83552D01*
X146346D01*
X146150Y83355D01*
Y82765D01*
X20820Y131820D02*
Y130639D01*
X20230D01*
X20033Y130836D01*
Y131230D01*
X20230Y131426D01*
X20820D01*
X20426D02*
X20033Y131820D01*
X18852Y130639D02*
X19639D01*
Y131230D01*
X19246Y131033D01*
X19049D01*
X18852Y131230D01*
Y131623D01*
X19049Y131820D01*
X19443D01*
X19639Y131623D01*
X144660Y80176D02*
X145841D01*
Y79586D01*
X145644Y79389D01*
X145250D01*
X145054Y79586D01*
Y80176D01*
Y79783D02*
X144660Y79389D01*
Y78405D02*
X145841D01*
X145250Y78996D01*
Y78208D01*
X23136Y114540D02*
Y115721D01*
X23727D01*
X23923Y115524D01*
Y115130D01*
X23727Y114934D01*
X23136D01*
X23530D02*
X23923Y114540D01*
X24317Y115524D02*
X24514Y115721D01*
X24907D01*
X25104Y115524D01*
Y115327D01*
X24907Y115130D01*
X24711D01*
X24907D01*
X25104Y114934D01*
Y114737D01*
X24907Y114540D01*
X24514D01*
X24317Y114737D01*
X14776Y213342D02*
Y214129D01*
X14579Y214326D01*
X14186D01*
X13989Y214129D01*
Y213342D01*
X14186Y213145D01*
X14579D01*
X14382Y213539D02*
X14776Y213145D01*
X14579D02*
X14776Y213342D01*
X15957Y213145D02*
X15169D01*
X15957Y213932D01*
Y214129D01*
X15760Y214326D01*
X15366D01*
X15169Y214129D01*
X26667Y118170D02*
Y118957D01*
X26470Y119154D01*
X26077D01*
X25880Y118957D01*
Y118170D01*
X26077Y117973D01*
X26470D01*
X26274Y118367D02*
X26667Y117973D01*
X26470D02*
X26667Y118170D01*
X27061Y117973D02*
X27454D01*
X27257D01*
Y119154D01*
X27061Y118957D01*
X87726Y85152D02*
Y83972D01*
X88513D01*
X88907D02*
X89301D01*
X89104D01*
Y85152D01*
X88907Y84955D01*
X89891D02*
X90088Y85152D01*
X90481D01*
X90678Y84955D01*
Y84168D01*
X90481Y83972D01*
X90088D01*
X89891Y84168D01*
Y84955D01*
X96420Y128461D02*
Y127280D01*
X97207D01*
X98388Y128461D02*
X97994Y128264D01*
X97601Y127870D01*
Y127477D01*
X97798Y127280D01*
X98191D01*
X98388Y127477D01*
Y127674D01*
X98191Y127870D01*
X97601D01*
X125020Y106861D02*
Y105680D01*
X125807D01*
X126988Y106861D02*
X126201D01*
Y106270D01*
X126594Y106467D01*
X126791D01*
X126988Y106270D01*
Y105877D01*
X126791Y105680D01*
X126398D01*
X126201Y105877D01*
X93990Y108869D02*
Y107688D01*
X94777D01*
X95761D02*
Y108869D01*
X95170Y108278D01*
X95957D01*
X85566Y116632D02*
Y115452D01*
X86353D01*
X86747Y116435D02*
X86944Y116632D01*
X87337D01*
X87534Y116435D01*
Y116239D01*
X87337Y116042D01*
X87141D01*
X87337D01*
X87534Y115845D01*
Y115648D01*
X87337Y115452D01*
X86944D01*
X86747Y115648D01*
X124220Y133461D02*
Y132280D01*
X125007D01*
X126188D02*
X125401D01*
X126188Y133067D01*
Y133264D01*
X125991Y133461D01*
X125598D01*
X125401Y133264D01*
X115606Y286652D02*
Y285472D01*
X116393D01*
X116787D02*
X117181D01*
X116984D01*
Y286652D01*
X116787Y286455D01*
X77651Y76005D02*
X77257D01*
X77454D01*
Y75021D01*
X77257Y74824D01*
X77060D01*
X76863Y75021D01*
X78044Y76005D02*
X78831D01*
Y75808D01*
X78044Y75021D01*
Y74824D01*
X110221Y302592D02*
X109827D01*
X110024D01*
Y301608D01*
X109827Y301412D01*
X109630D01*
X109433Y301608D01*
X110614Y302395D02*
X110811Y302592D01*
X111204D01*
X111401Y302395D01*
Y302199D01*
X111204Y302002D01*
X111008D01*
X111204D01*
X111401Y301805D01*
Y301608D01*
X111204Y301412D01*
X110811D01*
X110614Y301608D01*
X168687Y245041D02*
X168294D01*
X168490D01*
Y244057D01*
X168294Y243860D01*
X168097D01*
X167900Y244057D01*
X169868Y243860D02*
X169081D01*
X169868Y244647D01*
Y244844D01*
X169671Y245041D01*
X169278D01*
X169081Y244844D01*
X72553Y302732D02*
X72160D01*
X72357D01*
Y301748D01*
X72160Y301552D01*
X71963D01*
X71766Y301748D01*
X72947Y301552D02*
X73341D01*
X73144D01*
Y302732D01*
X72947Y302535D01*
X96010Y124869D02*
X96403D01*
X96207D01*
Y123688D01*
X96010D01*
X96403D01*
X97781Y124672D02*
X97584Y124869D01*
X97191D01*
X96994Y124672D01*
Y123885D01*
X97191Y123688D01*
X97584D01*
X97781Y123885D01*
X98962Y124869D02*
X98568Y124672D01*
X98175Y124279D01*
Y123885D01*
X98371Y123688D01*
X98765D01*
X98962Y123885D01*
Y124082D01*
X98765Y124279D01*
X98175D01*
X174980Y70979D02*
X174586D01*
X174783D01*
Y72160D01*
X174980D01*
X174586D01*
X173209Y71176D02*
X173406Y70979D01*
X173799D01*
X173996Y71176D01*
Y71963D01*
X173799Y72160D01*
X173406D01*
X173209Y71963D01*
X172028Y72160D02*
X172815D01*
X172028Y71373D01*
Y71176D01*
X172225Y70979D01*
X172619D01*
X172815Y71176D01*
X28352Y129568D02*
X28745D01*
X28548D01*
Y128387D01*
X28352D01*
X28745D01*
X30123Y129371D02*
X29926Y129568D01*
X29532D01*
X29336Y129371D01*
Y128584D01*
X29532Y128387D01*
X29926D01*
X30123Y128584D01*
X30516Y128387D02*
X30910D01*
X30713D01*
Y129568D01*
X30516Y129371D01*
X44329Y75052D02*
X44722D01*
X44526D01*
Y73871D01*
X44329D01*
X44722D01*
X46100D02*
X45313D01*
X46100Y74659D01*
Y74855D01*
X45903Y75052D01*
X45509D01*
X45313Y74855D01*
X80946Y88012D02*
Y86831D01*
X81537D01*
X81734Y87028D01*
Y87815D01*
X81537Y88012D01*
X80946D01*
X82127Y87028D02*
X82324Y86831D01*
X82717D01*
X82914Y87028D01*
Y87815D01*
X82717Y88012D01*
X82324D01*
X82127Y87815D01*
Y87619D01*
X82324Y87422D01*
X82914D01*
X11480Y227501D02*
Y226320D01*
X12070D01*
X12267Y226517D01*
Y227304D01*
X12070Y227501D01*
X11480D01*
X12661D02*
X13448D01*
Y227304D01*
X12661Y226517D01*
Y226320D01*
X7222Y181946D02*
Y180765D01*
X7812D01*
X8009Y180962D01*
Y181749D01*
X7812Y181946D01*
X7222D01*
X9190D02*
X8796Y181749D01*
X8403Y181356D01*
Y180962D01*
X8600Y180765D01*
X8993D01*
X9190Y180962D01*
Y181159D01*
X8993Y181356D01*
X8403D01*
X171567Y225568D02*
Y224387D01*
X172157D01*
X172354Y224584D01*
Y225371D01*
X172157Y225568D01*
X171567D01*
X173338Y224387D02*
Y225568D01*
X172748Y224977D01*
X173535D01*
X37687Y81284D02*
X37490Y81481D01*
X37097D01*
X36900Y81284D01*
Y80497D01*
X37097Y80300D01*
X37490D01*
X37687Y80497D01*
X38081Y81481D02*
X38868D01*
Y81284D01*
X38081Y80497D01*
Y80300D01*
X39261D02*
X39655D01*
X39458D01*
Y81481D01*
X39261Y81284D01*
X95393Y84875D02*
X95197Y85072D01*
X94803D01*
X94606Y84875D01*
Y84088D01*
X94803Y83891D01*
X95197D01*
X95393Y84088D01*
X95787Y85072D02*
X96574D01*
Y84875D01*
X95787Y84088D01*
Y83891D01*
X96968Y84875D02*
X97164Y85072D01*
X97558D01*
X97755Y84875D01*
Y84088D01*
X97558Y83891D01*
X97164D01*
X96968Y84088D01*
Y84875D01*
X103187Y83784D02*
X102990Y83981D01*
X102597D01*
X102400Y83784D01*
Y82997D01*
X102597Y82800D01*
X102990D01*
X103187Y82997D01*
X104368Y83981D02*
X103974Y83784D01*
X103581Y83390D01*
Y82997D01*
X103778Y82800D01*
X104171D01*
X104368Y82997D01*
Y83194D01*
X104171Y83390D01*
X103581D01*
X104761Y82997D02*
X104958Y82800D01*
X105352D01*
X105549Y82997D01*
Y83784D01*
X105352Y83981D01*
X104958D01*
X104761Y83784D01*
Y83587D01*
X104958Y83390D01*
X105549D01*
X82850Y104644D02*
X82653Y104841D01*
X82259D01*
X82063Y104644D01*
Y103857D01*
X82259Y103660D01*
X82653D01*
X82850Y103857D01*
X83834Y103660D02*
Y104841D01*
X83243Y104250D01*
X84030D01*
X84424Y104644D02*
X84621Y104841D01*
X85014D01*
X85211Y104644D01*
Y104447D01*
X85014Y104250D01*
X85211Y104054D01*
Y103857D01*
X85014Y103660D01*
X84621D01*
X84424Y103857D01*
Y104054D01*
X84621Y104250D01*
X84424Y104447D01*
Y104644D01*
X84621Y104250D02*
X85014D01*
X82867Y110884D02*
X82670Y111081D01*
X82277D01*
X82080Y110884D01*
Y110097D01*
X82277Y109900D01*
X82670D01*
X82867Y110097D01*
X83851Y109900D02*
Y111081D01*
X83261Y110490D01*
X84048D01*
X84441Y111081D02*
X85229D01*
Y110884D01*
X84441Y110097D01*
Y109900D01*
X104433Y107403D02*
X104237Y107600D01*
X103843D01*
X103646Y107403D01*
Y106616D01*
X103843Y106419D01*
X104237D01*
X104433Y106616D01*
X105417Y106419D02*
Y107600D01*
X104827Y107009D01*
X105614D01*
X106795Y107600D02*
X106008D01*
Y107009D01*
X106401Y107206D01*
X106598D01*
X106795Y107009D01*
Y106616D01*
X106598Y106419D01*
X106204D01*
X106008Y106616D01*
X95807Y96864D02*
X95610Y97061D01*
X95217D01*
X95020Y96864D01*
Y96077D01*
X95217Y95880D01*
X95610D01*
X95807Y96077D01*
X96791Y95880D02*
Y97061D01*
X96201Y96470D01*
X96988D01*
X97972Y95880D02*
Y97061D01*
X97381Y96470D01*
X98169D01*
X109133Y107423D02*
X108937Y107620D01*
X108543D01*
X108346Y107423D01*
Y106636D01*
X108543Y106439D01*
X108937D01*
X109133Y106636D01*
X110117Y106439D02*
Y107620D01*
X109527Y107029D01*
X110314D01*
X110708Y107423D02*
X110905Y107620D01*
X111298D01*
X111495Y107423D01*
Y107226D01*
X111298Y107029D01*
X111101D01*
X111298D01*
X111495Y106833D01*
Y106636D01*
X111298Y106439D01*
X110905D01*
X110708Y106636D01*
X116187Y106756D02*
X115990Y106953D01*
X115597D01*
X115400Y106756D01*
Y105969D01*
X115597Y105772D01*
X115990D01*
X116187Y105969D01*
X117171Y105772D02*
Y106953D01*
X116581Y106363D01*
X117368D01*
X118549Y105772D02*
X117761D01*
X118549Y106559D01*
Y106756D01*
X118352Y106953D01*
X117958D01*
X117761Y106756D01*
X125007Y114764D02*
X124810Y114961D01*
X124417D01*
X124220Y114764D01*
Y113977D01*
X124417Y113780D01*
X124810D01*
X125007Y113977D01*
X125991Y113780D02*
Y114961D01*
X125401Y114370D01*
X126188D01*
X126581Y113780D02*
X126975D01*
X126778D01*
Y114961D01*
X126581Y114764D01*
X120095Y100872D02*
X119898Y101068D01*
X119504D01*
X119308Y100872D01*
Y100084D01*
X119504Y99888D01*
X119898D01*
X120095Y100084D01*
X121079Y99888D02*
Y101068D01*
X120488Y100478D01*
X121276D01*
X121669Y100872D02*
X121866Y101068D01*
X122259D01*
X122456Y100872D01*
Y100084D01*
X122259Y99888D01*
X121866D01*
X121669Y100084D01*
Y100872D01*
X125007Y128064D02*
X124810Y128261D01*
X124417D01*
X124220Y128064D01*
Y127277D01*
X124417Y127080D01*
X124810D01*
X125007Y127277D01*
X125401Y128064D02*
X125598Y128261D01*
X125991D01*
X126188Y128064D01*
Y127867D01*
X125991Y127670D01*
X125794D01*
X125991D01*
X126188Y127474D01*
Y127277D01*
X125991Y127080D01*
X125598D01*
X125401Y127277D01*
X126581D02*
X126778Y127080D01*
X127172D01*
X127369Y127277D01*
Y128064D01*
X127172Y128261D01*
X126778D01*
X126581Y128064D01*
Y127867D01*
X126778Y127670D01*
X127369D01*
X136980Y133529D02*
X136784Y133726D01*
X136390D01*
X136193Y133529D01*
Y132742D01*
X136390Y132545D01*
X136784D01*
X136980Y132742D01*
X137374Y133529D02*
X137571Y133726D01*
X137964D01*
X138161Y133529D01*
Y133333D01*
X137964Y133136D01*
X137768D01*
X137964D01*
X138161Y132939D01*
Y132742D01*
X137964Y132545D01*
X137571D01*
X137374Y132742D01*
X138555Y133529D02*
X138752Y133726D01*
X139145D01*
X139342Y133529D01*
Y133333D01*
X139145Y133136D01*
X139342Y132939D01*
Y132742D01*
X139145Y132545D01*
X138752D01*
X138555Y132742D01*
Y132939D01*
X138752Y133136D01*
X138555Y133333D01*
Y133529D01*
X138752Y133136D02*
X139145D01*
X114707Y125564D02*
X114510Y125761D01*
X114117D01*
X113920Y125564D01*
Y124777D01*
X114117Y124580D01*
X114510D01*
X114707Y124777D01*
X115101Y125564D02*
X115297Y125761D01*
X115691D01*
X115888Y125564D01*
Y125367D01*
X115691Y125170D01*
X115494D01*
X115691D01*
X115888Y124974D01*
Y124777D01*
X115691Y124580D01*
X115297D01*
X115101Y124777D01*
X116281Y125761D02*
X117069D01*
Y125564D01*
X116281Y124777D01*
Y124580D01*
X137440Y115126D02*
X137637Y114929D01*
X138030D01*
X138227Y115126D01*
Y115913D01*
X138030Y116110D01*
X137637D01*
X137440Y115913D01*
X137047Y115126D02*
X136850Y114929D01*
X136456D01*
X136259Y115126D01*
Y115323D01*
X136456Y115520D01*
X136653D01*
X136456D01*
X136259Y115717D01*
Y115913D01*
X136456Y116110D01*
X136850D01*
X137047Y115913D01*
X135079Y114929D02*
X135472Y115126D01*
X135866Y115520D01*
Y115913D01*
X135669Y116110D01*
X135275D01*
X135079Y115913D01*
Y115717D01*
X135275Y115520D01*
X135866D01*
X101816Y150429D02*
X101619Y150626D01*
X101226D01*
X101029Y150429D01*
Y149642D01*
X101226Y149445D01*
X101619D01*
X101816Y149642D01*
X102997Y149445D02*
X102209D01*
X102997Y150232D01*
Y150429D01*
X102800Y150626D01*
X102406D01*
X102209Y150429D01*
X103390D02*
X103587Y150626D01*
X103981D01*
X104177Y150429D01*
Y150232D01*
X103981Y150035D01*
X104177Y149839D01*
Y149642D01*
X103981Y149445D01*
X103587D01*
X103390Y149642D01*
Y149839D01*
X103587Y150035D01*
X103390Y150232D01*
Y150429D01*
X103587Y150035D02*
X103981D01*
X70396Y290829D02*
X70199Y291026D01*
X69806D01*
X69609Y290829D01*
Y290042D01*
X69806Y289845D01*
X70199D01*
X70396Y290042D01*
X71577Y289845D02*
X70789D01*
X71577Y290632D01*
Y290829D01*
X71380Y291026D01*
X70986D01*
X70789Y290829D01*
X71970D02*
X72167Y291026D01*
X72561D01*
X72757Y290829D01*
Y290632D01*
X72561Y290435D01*
X72364D01*
X72561D01*
X72757Y290239D01*
Y290042D01*
X72561Y289845D01*
X72167D01*
X71970Y290042D01*
X22147Y232964D02*
X21950Y233161D01*
X21557D01*
X21360Y232964D01*
Y232177D01*
X21557Y231980D01*
X21950D01*
X22147Y232177D01*
X23328Y231980D02*
X22541D01*
X23328Y232767D01*
Y232964D01*
X23131Y233161D01*
X22738D01*
X22541Y232964D01*
X23721Y231980D02*
X24115D01*
X23918D01*
Y233161D01*
X23721Y232964D01*
X127947Y62584D02*
X127750Y62781D01*
X127357D01*
X127160Y62584D01*
Y61797D01*
X127357Y61600D01*
X127750D01*
X127947Y61797D01*
X128341Y61600D02*
X128734D01*
X128537D01*
Y62781D01*
X128341Y62584D01*
X130112Y61600D02*
X129325D01*
X130112Y62387D01*
Y62584D01*
X129915Y62781D01*
X129521D01*
X129325Y62584D01*
X127847Y70084D02*
X127650Y70281D01*
X127257D01*
X127060Y70084D01*
Y69297D01*
X127257Y69100D01*
X127650D01*
X127847Y69297D01*
X128241Y69100D02*
X128634D01*
X128437D01*
Y70281D01*
X128241Y70084D01*
X129225Y69100D02*
X129618D01*
X129421D01*
Y70281D01*
X129225Y70084D01*
X124013Y290548D02*
X123817Y290744D01*
X123423D01*
X123226Y290548D01*
Y289761D01*
X123423Y289564D01*
X123817D01*
X124013Y289761D01*
X124407Y290548D02*
X124604Y290744D01*
X124997D01*
X125194Y290548D01*
Y290351D01*
X124997Y290154D01*
X125194Y289957D01*
Y289761D01*
X124997Y289564D01*
X124604D01*
X124407Y289761D01*
Y289957D01*
X124604Y290154D01*
X124407Y290351D01*
Y290548D01*
X124604Y290154D02*
X124997D01*
X107213Y286615D02*
X107017Y286812D01*
X106623D01*
X106426Y286615D01*
Y285828D01*
X106623Y285631D01*
X107017D01*
X107213Y285828D01*
X107607Y286812D02*
X108394D01*
Y286615D01*
X107607Y285828D01*
Y285631D01*
X177247Y83448D02*
X177050Y83645D01*
X176657D01*
X176460Y83448D01*
Y82661D01*
X176657Y82465D01*
X177050D01*
X177247Y82661D01*
X178231Y82465D02*
Y83645D01*
X177641Y83055D01*
X178428D01*
X49305Y112337D02*
X49108Y112140D01*
Y111747D01*
X49305Y111550D01*
X50092D01*
X50288Y111747D01*
Y112140D01*
X50092Y112337D01*
X49305Y112731D02*
X49108Y112927D01*
Y113321D01*
X49305Y113518D01*
X49501D01*
X49698Y113321D01*
Y113124D01*
Y113321D01*
X49895Y113518D01*
X50092D01*
X50288Y113321D01*
Y112927D01*
X50092Y112731D01*
X177047Y93264D02*
X176850Y93461D01*
X176457D01*
X176260Y93264D01*
Y92477D01*
X176457Y92280D01*
X176850D01*
X177047Y92477D01*
X178228Y92280D02*
X177441D01*
X178228Y93067D01*
Y93264D01*
X178031Y93461D01*
X177638D01*
X177441Y93264D01*
X52527Y131464D02*
X52330Y131661D01*
X51937D01*
X51740Y131464D01*
Y130677D01*
X51937Y130480D01*
X52330D01*
X52527Y130677D01*
X52921Y130480D02*
X53314D01*
X53118D01*
Y131661D01*
X52921Y131464D01*
M02*
