G04*
G04 #@! TF.GenerationSoftware,Altium Limited,Altium Designer,18.0.7 (293)*
G04*
G04 Layer_Color=16711935*
%FSLAX25Y25*%
%MOIN*%
G70*
G01*
G75*
%ADD11C,0.01000*%
%ADD21C,0.00300*%
%ADD22C,0.00600*%
%ADD124C,0.00000*%
D11*
X-3340Y300060D02*
X-1340Y294060D01*
X-5340D02*
X-3340Y300060D01*
X-5340Y36300D02*
X-3340Y30300D01*
X-1340Y36300D01*
X-3340Y178676D02*
Y300060D01*
Y30300D02*
Y148484D01*
X-4340Y300060D02*
X1760D01*
X-4780Y30300D02*
X-2340D01*
X8300Y311860D02*
X14300Y313860D01*
X8300Y311860D02*
X14300Y309860D01*
X187520D02*
X193520Y311860D01*
X187520Y313860D02*
X193520Y311860D01*
X8300D02*
X84214D01*
X114406D02*
X193520D01*
X8300Y305640D02*
Y312860D01*
X193520Y310860D02*
Y312860D01*
D21*
X8080Y299940D02*
X193140D01*
X8080Y30640D02*
Y299940D01*
X193140Y30640D02*
Y299940D01*
X8080Y30640D02*
X193140D01*
D22*
X-5739Y154083D02*
X-4739Y152084D01*
X-2740Y150084D01*
X-741D01*
X259Y151084D01*
Y153083D01*
X-741Y154083D01*
X-1740D01*
X-2740Y153083D01*
Y150084D01*
X-4739Y156082D02*
X-5739Y157082D01*
Y159081D01*
X-4739Y160081D01*
X-3740D01*
X-2740Y159081D01*
X-1740Y160081D01*
X-741D01*
X259Y159081D01*
Y157082D01*
X-741Y156082D01*
X-1740D01*
X-2740Y157082D01*
X-3740Y156082D01*
X-4739D01*
X-2740Y157082D02*
Y159081D01*
X259Y162081D02*
X-741D01*
Y163080D01*
X259D01*
Y162081D01*
X-5739Y171078D02*
Y167079D01*
X-2740D01*
X-3740Y169078D01*
Y170078D01*
X-2740Y171078D01*
X-741D01*
X259Y170078D01*
Y168078D01*
X-741Y167079D01*
X259Y177076D02*
Y173077D01*
X-3740Y177076D01*
X-4739D01*
X-5739Y176076D01*
Y174077D01*
X-4739Y173077D01*
X88813Y308261D02*
Y314259D01*
X85814Y311260D01*
X89813D01*
X91812Y314259D02*
X95811D01*
Y313259D01*
X91812Y309261D01*
Y308261D01*
X97811D02*
Y309261D01*
X98810D01*
Y308261D01*
X97811D01*
X102809Y313259D02*
X103808Y314259D01*
X105808D01*
X106808Y313259D01*
Y309261D01*
X105808Y308261D01*
X103808D01*
X102809Y309261D01*
Y313259D01*
X112806Y314259D02*
X108807D01*
Y311260D01*
X110806Y312260D01*
X111806D01*
X112806Y311260D01*
Y309261D01*
X111806Y308261D01*
X109807D01*
X108807Y309261D01*
D124*
X30564Y63352D02*
G03*
X29383Y62171I0J-1181D01*
G01*
X31745D02*
G03*
X30564Y63352I-1181J0D01*
G01*
Y57053D02*
G03*
X31745Y58234I0J1181D01*
G01*
X29383D02*
G03*
X30564Y57053I1181J0D01*
G01*
X64580Y63352D02*
G03*
X63399Y62171I0J-1181D01*
G01*
X65761D02*
G03*
X64580Y63352I-1181J0D01*
G01*
Y57053D02*
G03*
X65761Y58234I0J1181D01*
G01*
X63399D02*
G03*
X64580Y57053I1181J0D01*
G01*
X30564Y43234D02*
G03*
X29383Y42053I0J-1181D01*
G01*
X31745D02*
G03*
X30564Y43234I-1181J0D01*
G01*
Y34966D02*
G03*
X31745Y36147I0J1181D01*
G01*
X29383D02*
G03*
X30564Y34966I1181J0D01*
G01*
X64580Y43234D02*
G03*
X63399Y42053I0J-1181D01*
G01*
X65761D02*
G03*
X64580Y43234I-1181J0D01*
G01*
Y34966D02*
G03*
X65761Y36147I0J1181D01*
G01*
X63399D02*
G03*
X64580Y34966I1181J0D01*
G01*
X31745Y58234D02*
Y62171D01*
X29383Y58234D02*
Y62171D01*
X65761Y58234D02*
Y62171D01*
X63399Y58234D02*
Y62171D01*
X31745Y36147D02*
Y42053D01*
X29383Y36147D02*
Y42053D01*
X65761Y36147D02*
Y42053D01*
X63399Y36147D02*
Y42053D01*
M02*
