M48
;Layer_Color=9474304
;FILE_FORMAT=2:5
INCH,TZ
;TYPE=PLATED
T1F00S00C0.00984
T2F00S00C0.01181
T3F00S00C0.01250
T4F00S00C0.02165
T5F00S00C0.02362
T6F00S00C0.03543
%
T01
X34760Y64300
X42900Y75280
X61080Y78800
X71040Y68360
X77080Y86380
X86400Y83440
X100820Y77320
X102500Y88760
X113620Y89160
X142180Y83980
X145060Y79540
X144507Y76300
X144340Y72620
X135940Y68000
X127217Y60857
X130960Y51920
X134344Y44596
X166140Y67100
X152920Y83280
X153200Y88840
X174760Y85180
X174120Y68320
X184700Y77480
X184045Y89840
X177320Y98720
X176580Y105300
X175780Y109440
X177180Y112240
X174560Y118360
X176980Y123060
X175880Y142180
X174940Y146280
X185540Y145920
X185120Y186480
X188300Y207160
X188500Y210540
X188400Y212660
X180700Y217700
X169540Y215260
X168840Y207620
X171218Y203488
X171820Y200520
X161100Y200940
X157620Y189140
X151460Y188800
X155940Y174180
X158080Y176280
X164220Y177220
X148740Y169140
X137500Y174180
X131480Y173560
X123120Y161500
X127580Y154640
X134760Y153380
X127280Y146140
X119540Y142660
X107700Y141700
X108260Y121940
X113260Y119180
X112740Y126180
X128940Y135040
X144240Y134820
X145880Y128400
X145120Y121140
X147580Y119380
X153580Y115460
X161260Y118520
X164620Y107380
X165300Y104400
X165632Y100972
X152640Y104880
X142180Y93500
X123140Y89720
X118160Y98200
X134920Y119200
X147740Y143260
X115760Y157080
X98480Y156560
X91800Y150580
X88420Y152240
X84620Y156040
X67280Y158700
X69060Y162740
X80960Y174460
X81020Y187020
X85686Y187056
X101700Y183860
X105120Y183340
X108800Y183680
X114320Y184660
X95340Y172200
X66401Y187100
X58659Y185060
X56160Y183920
X56920Y189360
X57160Y192020
X56574Y195654
X57240Y199540
X57160Y202960
X48200Y201880
X48700Y198440
X47000Y193740
X37704Y197780
X35280Y195440
X32480Y196860
X32536Y205724
X35120Y207920
X37704Y206160
X41020Y208220
X47240Y211460
X58320Y215220
X57960Y219000
X57660Y232580
X57860Y237000
X57740Y240980
X31460Y242260
X31560Y237720
X32840Y234480
X30700Y231560
X31540Y227500
X26560Y223280
X30180Y217940
X27360Y211620
X19240Y216940
X18680Y229420
X18600Y235420
X40300Y229180
X43500Y225740
X28820Y188320
X25440Y174900
X23760Y163740
X40340Y166680
X49300Y174800
X48360Y149000
X47540Y133160
X52300Y132620
X49360Y127540
X44740Y129200
X58060Y124960
X58140Y116980
X56980Y111600
X49860Y103940
X40620Y104440
X42980Y108000
X23720Y108320
X19400Y115120
X18620Y118100
X18840Y122080
X26940Y121660
X22100Y130140
X30520Y135560
X61520Y132960
X69380Y131080
X72320Y133780
X82160Y137500
X78001Y117921
X75860Y112020
X80440Y101260
X80340Y97640
X64620Y101200
X101532Y217868
X130200Y217702
X130160Y220680
X130480Y224120
X130580Y211020
Y205120
X131820Y199140
X140000Y214620
X142100Y216280
X150480Y217080
X152680Y222640
X140280Y230420
X151220Y241640
X14980Y205160
X16040Y197300
X13140Y179360
X42280Y251040
X41920Y266740
X53160Y261360
X70880Y261700
X80000Y263220
X77800Y248440
X71180Y249260
X68200Y250440
X59520Y247760
X61620Y271480
X68200Y273180
X71260Y287660
X84660Y276340
X103760Y268960
X104820Y262880
X114400Y263220
X118460Y271800
X125360Y275420
X128320Y285300
X143500Y273340
X137740Y261080
X153340Y265011
X129220Y247920
T02
X10707Y35322
X14644
X12675Y39259
X10707Y43196
X14644
X12675Y47133
X10707Y51070
X14644
X12675Y55007
X10707Y58944
X14644
X12675Y62881
X10707Y66818
X14644
X12675Y70755
X10707Y74692
X14644
X12675Y78629
X10707Y82566
X12675Y86503
X16612Y78629
X18581Y74692
X16612Y70755
X18581Y66818
X22518
X26455
X24486Y62881
X20549
X16612
X18581Y58944
X22518
X26455
X28423Y55007
X24486
X20549
X16612
X18581Y51070
X22518
X26455
X30392
X28423Y47133
X24486
X20549
X16612
X18581Y43196
X22518
X26455
X24486Y39259
X20549
X16612
X18581Y35322
X22518
X26455
X69762
X73699
X75667Y39259
X71730
X69762Y43196
X73699
X75667Y47133
X79604
X83542
X87479
X91416
X95353
X99290
X103226
X107164
X111100
X115038
X118974
X122912
X126849
X130786
X134723
X136691Y51070
X144565
X142597Y55007
X144565Y58944
X146534Y62881
X142597Y47133
X144565Y43196
X146534Y39259
X144565Y35322
X136691
X132754
X120943
X122912Y39259
X120943Y43196
X124880
Y51070
X120943
X117006
X113069
X109132
X105195
X101258
X97321
X93384
X89447
X85510
X81573
X77636
X73699
X69762
X65825
X67793Y55007
X71730
X75667
X79604
X83542
X81573Y58944
X85510
X83542Y62881
X79604
X75667
X71730
X69762Y58944
X73699
X77636
X71730Y47133
X67793
X63856
X89447Y43196
X93384
X97321
X101258
X105195
X109132
X107164Y39259
X103226
X99290
X95353
X91416
X87479
X89447Y35322
X93384
X97321
X101258
X105195
X109132
X111100Y55007
X115038
X118974
X122912
X120943Y58944
X124880
X122912Y62881
X118974
X115038
X111100
X113069Y58944
X117006
Y82566
X118974Y86503
X115038
X111100
X107164
X99290
X87479
X130786
X134723
X132754Y82566
X136691
X130786Y78629
X156376Y43196
Y35322
X168187
Y43196
X50077Y74692
X46140
X179998Y66818
X183935
X185904Y62881
X181967
X178030Y39259
X189841Y86503
X187872Y90440
X189841Y94377
X185904Y149496
X187872Y153433
X185904Y157370
X187872Y161307
X185904Y165244
X187872Y169181
X185904Y173118
X187872Y177055
X185904Y180992
X187872Y184929
X189841Y220362
X187872Y224299
X189841Y228236
X185904
X183935Y232173
X187872
X189841Y236110
X185904
X181967
X179998Y232173
X176061
X178030Y243984
X181967
X185904
X189841
X187872Y240047
X183935
X174093Y243984
X170156
X166219
X162282
X158345
X154408
X156376Y240047
X160313
X164250
X168187
X140628
X130786Y243984
X150471Y220362
X140628Y177055
X144565Y169181
X146534Y165244
X150471
X148502Y161307
X152439
Y169181
X144565Y161307
X146534Y157370
X128817Y184929
X124880
X91416Y173118
X87479
X77636Y161307
X73699
X75667Y157370
X79604
X71730
Y165244
X61888Y153433
X59919Y141621
X55982
X52045
X48108
X44171
X50077Y145559
X75667Y141621
X79604
X99290
Y133747
X95353
X111100Y141621
X115038Y94377
X117006Y90440
X132754
X136691
X134723Y94377
X26455Y129811
X28423Y133747
X42203Y169181
X28423Y220362
X30392Y224299
X57951
X48108Y243984
X16612
X12675
X10707Y240047
X14644
X12675Y236110
X10707Y232173
X12675Y228236
X10707Y161307
Y153433
Y145559
Y137685
Y129811
X12675Y125873
X10707Y121937
X12675Y117999
X10707Y114062
X12675Y110126
X10707Y106188
X12675Y102251
X10707Y98314
X12675Y94377
X10707Y90440
Y247921
X14644
X12675Y251858
X10707Y255795
X14644
X12675Y259732
X10707Y263669
X14644
X12675Y267606
X10707Y271543
X14644
X12675Y275480
X10707Y279417
X14644
X12675Y283354
X10707Y287291
X14644
X12675Y291228
X10707Y295165
X14644
X18581
X22518
X26455
X30392
X34329
X38266
X42203
X46140
X50077
X54014
X57951
X61888
X65825
X69762
X67793Y291228
X63856
X59919
X55982
X52045
X48108
X44171
X40234
X36297
X32360
X28423
X24486
X20549
X16612
X18581Y287291
X22518
X26455
X30392
X34329
X38266
X42203
X46140
X50077
X54014
X52045Y283354
X48108
X44171
X40234
X36297
X32360
X28423
X24486
X20549
X16612
X18581Y279417
X22518
X26455
X30392
X34329
X38266
X42203
X46140
X40234Y275480
X36297
X32360
X28423
X24486
X20549
X16612
X18581Y271543
X22518
X26455
X30392
X34329
X38266
X36297Y267606
X32360
X28423
X24486
X20549
X16612
X18581Y263669
X22518
X26455
X30392
X32360Y259732
X28423
X24486
X20549
X16612
X18581Y255795
X22518
X26455
X30392
X28423Y251858
X24486
X20549
X16612
X18581Y247921
X22518
X48108Y251858
Y259732
X59919Y251858
X63856
X87479
X91416
X95353
X99290
X103226
X105195Y247921
X115038Y251858
X118974
X126849
X130786
X142597
X146534
X150471
X154408
X158345
X162282
X166219
X170156
X168187Y255795
X172124
X170156Y259732
X166219
X162282
X158345
X154408
X156376Y263669
X160313
X164250
X168187
X172124
X170156Y267606
X166219
X162282
X158345
X154408
X150471
X146534
X148502Y271543
X152439
X156376
X160313
X164250
X168187
X172124
X170156Y275480
X166219
X162282
X158345
X154408
X150471
X146534
X144565Y279417
X148502
X152439
X156376
X160313
X164250
X168187
X172124
X170156Y283354
X166219
X162282
X158345
X154408
X150471
X146534
X142597
X138660
X134723
X130786
X128817Y279417
X132754
X136691
X140628
X138660Y275480
X134723
X130786
X128817Y271543
X132754Y263669
X140628Y255795
Y247921
X152439
X156376
X160313
X164250
X168187
X172124
X164250Y255795
X160313
X156376
Y287291
X160313
X164250
X168187
X172124
X170156Y291228
X166219
X162282
X158345
X154408
X150471
X146534
X142597
X138660
X134723
X130786
X128817Y295165
X132754
X136691
X140628
X144565
X148502
X152439
X156376
X160313
X164250
X168187
X172124
X152439Y287291
X148502
X144565
X140628
X136691
X132754
X113069
X109132
X105195
X101258
X97321
X93384
X89447
X85510
X91416Y291228
X95353
X99290
X103226
X107164
X105195Y295165
X101258
X97321
X93384
X89447
X81573
X77636
X75667Y283354
X63856
X59919
X57951Y279417
X61888
X57951Y271543
X81573
X85510
X89447
X93384
X97321
X101258
X105195
X103226Y275480
X99290
X95353
X91416
X97321Y279417
X101258
X105195
X103226Y283354
X99290
X95353
X101258Y263669
X117006
X115038Y267606
X113069Y271543
X115038Y275480
X118974
X117006Y295165
X83542Y267606
X79604
X85510Y263669
X176061
X179998
X183935
X187872
X189841Y267606
X185904
X181967
X178030
X174093
X176061Y271543
X179998
X183935
X187872
X189841Y275480
X185904
X181967
X178030
X174093
X176061Y279417
X179998
X183935
X187872
X189841Y283354
X185904
X181967
X178030
X174093
X176061Y287291
X179998
X183935
X187872
X189841Y291228
X185904
X181967
X178030
X174093
X176061Y295165
X179998
X183935
X187872
X189841Y259732
X185904
X181967
X178030
X174093
X176061Y255795
X179998
X183935
X187872
X189841Y251858
X185904
X181967
X178030
X174093
X176061Y247921
X179998
X183935
X187872
T03
X92120Y82760
X92140Y85320
X92100Y87900
T04
X127060Y34900
X141627
T05
X30564Y39100
Y60202
X64580
Y39100
T06
X24020Y73520
Y84460
X35080Y84440
X46200Y84420
X57280Y84400
X57340Y73480
X151120Y57580
Y46580
X151098Y35680
X161998
X162340Y46600
X162140Y57620
X173260Y57640
X184040Y57620
X184000Y46620
X173220Y46600
X173098Y35680
X184000Y35700
X57280Y95400
X46160
X35020
X24000Y95380
M30
