G04*
G04 #@! TF.GenerationSoftware,Altium Limited,Altium Designer,18.0.7 (293)*
G04*
G04 Layer_Color=128*
%FSLAX25Y25*%
%MOIN*%
G70*
G01*
G75*
%ADD27C,0.03150*%
%ADD44R,0.03543X0.03150*%
%ADD45R,0.02362X0.02953*%
%ADD46R,0.03150X0.03543*%
%ADD54R,0.02520X0.02362*%
%ADD59R,0.05118X0.07087*%
%ADD60R,0.03937X0.03543*%
%ADD64R,0.02362X0.02520*%
%ADD149C,0.03720*%
%ADD150C,0.03720*%
%ADD151R,0.02677X0.03937*%
%ADD152R,0.05276X0.04134*%
%ADD153R,0.07638X0.04134*%
%ADD154R,0.07087X0.04134*%
%ADD155R,0.02756X0.04724*%
%ADD156R,0.24016X0.06299*%
G04:AMPARAMS|DCode=157|XSize=70.87mil|YSize=240.16mil|CornerRadius=17.72mil|HoleSize=0mil|Usage=FLASHONLY|Rotation=90.000|XOffset=0mil|YOffset=0mil|HoleType=Round|Shape=RoundedRectangle|*
%AMROUNDEDRECTD157*
21,1,0.07087,0.20473,0,0,90.0*
21,1,0.03543,0.24016,0,0,90.0*
1,1,0.03543,0.10236,0.01772*
1,1,0.03543,0.10236,-0.01772*
1,1,0.03543,-0.10236,-0.01772*
1,1,0.03543,-0.10236,0.01772*
%
%ADD157ROUNDEDRECTD157*%
%ADD158R,0.02953X0.01181*%
%ADD159R,0.00984X0.02165*%
%ADD160R,0.00787X0.02165*%
%ADD161R,0.02362X0.01181*%
%ADD162R,0.00100X0.00100*%
G36*
X110152Y223964D02*
X109652D01*
X108951Y224664D01*
Y226364D01*
X110152D01*
Y223964D01*
D02*
G37*
G36*
X107592Y224664D02*
X106892Y223964D01*
X106392D01*
Y226364D01*
X107592D01*
Y224664D01*
D02*
G37*
G36*
X109222Y223114D02*
X108272Y222164D01*
X107322Y223114D01*
X108272Y224064D01*
X109222Y223114D01*
D02*
G37*
G36*
X110152Y219864D02*
X108951D01*
Y221864D01*
X109652Y222564D01*
X110152D01*
Y219864D01*
D02*
G37*
G36*
X107592Y221564D02*
Y219864D01*
X106392D01*
Y222264D01*
X106892D01*
X107592Y221564D01*
D02*
G37*
G36*
X189418Y191814D02*
Y191462D01*
X189148Y190811D01*
X188649Y190312D01*
X187998Y190042D01*
X187646D01*
X184496Y190042D01*
Y190042D01*
X184144D01*
X183493Y190312D01*
X182994Y190811D01*
X182725Y191462D01*
Y191814D01*
Y194176D01*
X189418D01*
Y191814D01*
D02*
G37*
G36*
X187646Y142365D02*
X187998D01*
X188649Y142095D01*
X189148Y141597D01*
X189418Y140946D01*
Y140594D01*
Y138231D01*
X182725D01*
Y140594D01*
Y140946D01*
X182994Y141597D01*
X183493Y142095D01*
X184144Y142365D01*
X184496D01*
X187646Y142365D01*
Y142365D01*
D02*
G37*
G36*
X78102Y131233D02*
X79509Y130918D01*
X80827Y130333D01*
X82005Y129501D01*
X82996Y128453D01*
X83763Y127232D01*
X84275Y125884D01*
X84512Y124461D01*
X84489Y123741D01*
X84489Y123741D01*
X84485Y123672D01*
X84388Y123576D01*
X84251Y123570D01*
X84146Y123658D01*
X84136Y123726D01*
X70139Y123726D01*
X70139Y123937D01*
X70139D01*
X70105Y123926D01*
X70035Y123935D01*
X69976Y123975D01*
X69941Y124036D01*
X69939Y124072D01*
X69949Y124793D01*
X70251Y126203D01*
X70824Y127526D01*
X71645Y128712D01*
X72683Y129713D01*
X73897Y130491D01*
X75240Y131015D01*
X76660Y131266D01*
X78102Y131233D01*
D02*
G37*
D27*
X52900Y166300D02*
D03*
X33753Y177514D02*
D03*
X94189Y119395D02*
D03*
X137454Y115049D02*
D03*
X113260Y228600D02*
D03*
X171020Y128620D02*
D03*
D44*
X56520Y162144D02*
D03*
Y167656D02*
D03*
D45*
X104465Y109847D02*
D03*
Y114375D02*
D03*
X165674Y203061D02*
D03*
Y207589D02*
D03*
X154674Y203061D02*
D03*
Y207589D02*
D03*
X136934Y203061D02*
D03*
Y207589D02*
D03*
X160014Y123545D02*
D03*
Y128072D02*
D03*
X155334D02*
D03*
Y123545D02*
D03*
X137774Y128072D02*
D03*
Y123545D02*
D03*
D46*
X39470Y157913D02*
D03*
X33958D02*
D03*
X109937Y104513D02*
D03*
X104425D02*
D03*
X116660Y220144D02*
D03*
X122171D02*
D03*
X116660Y225784D02*
D03*
X122171D02*
D03*
D54*
X99386Y119237D02*
D03*
Y115773D02*
D03*
X99425Y104513D02*
D03*
Y107977D02*
D03*
X109701Y109906D02*
D03*
Y113371D02*
D03*
X101532Y226256D02*
D03*
Y222791D02*
D03*
X175714Y124864D02*
D03*
Y128328D02*
D03*
X165634Y128328D02*
D03*
Y124864D02*
D03*
D59*
X46379Y165433D02*
D03*
X34962D02*
D03*
X43899Y150393D02*
D03*
X55316D02*
D03*
X106788Y127308D02*
D03*
X95370D02*
D03*
D60*
X93520Y110477D02*
D03*
Y105162D02*
D03*
D64*
X37272Y172840D02*
D03*
X33808D02*
D03*
X52500Y172580D02*
D03*
X55965D02*
D03*
X52860Y157260D02*
D03*
X56325D02*
D03*
X104662Y119473D02*
D03*
X108126D02*
D03*
X110044Y214444D02*
D03*
X106579D02*
D03*
D149*
X187350Y140298D02*
D03*
D150*
X186071Y192109D02*
D03*
D151*
X175992Y193566D02*
D03*
X172528D02*
D03*
X169063D02*
D03*
X165599D02*
D03*
X162134D02*
D03*
X158669D02*
D03*
X155205D02*
D03*
X175992Y138842D02*
D03*
X172528D02*
D03*
X169063D02*
D03*
X165599D02*
D03*
X162134D02*
D03*
X158669D02*
D03*
X155205D02*
D03*
X137252Y193566D02*
D03*
Y138842D02*
D03*
D152*
X150441Y193468D02*
D03*
Y138940D02*
D03*
D153*
X143197Y193468D02*
D03*
Y138940D02*
D03*
D154*
X124260Y193468D02*
D03*
Y138940D02*
D03*
D155*
X131681Y192385D02*
D03*
D156*
X77181Y106351D02*
D03*
D157*
Y124552D02*
D03*
D158*
X159831Y116709D02*
D03*
Y114740D02*
D03*
Y112771D02*
D03*
X163769D02*
D03*
Y114740D02*
D03*
Y116709D02*
D03*
D159*
X126965Y118345D02*
D03*
X130903D02*
D03*
Y113031D02*
D03*
X126965D02*
D03*
D160*
X128934Y118345D02*
D03*
Y113031D02*
D03*
D161*
X131493Y115689D02*
D03*
X126375D02*
D03*
D162*
X108272Y223114D02*
D03*
X109552Y225164D02*
D03*
X106992D02*
D03*
Y221064D02*
D03*
X109552D02*
D03*
M02*
