G04*
G04 #@! TF.GenerationSoftware,Altium Limited,Altium Designer,18.0.7 (293)*
G04*
G04 Layer_Color=16711935*
%FSLAX25Y25*%
%MOIN*%
G70*
G01*
G75*
%ADD88R,0.04343X0.03950*%
%ADD89R,0.03162X0.03753*%
%ADD90R,0.03950X0.04343*%
%ADD98C,0.03543*%
%ADD99R,0.03320X0.03162*%
%ADD104R,0.05918X0.07887*%
%ADD105R,0.04737X0.04343*%
%ADD109R,0.03162X0.03320*%
%ADD115O,0.05131X0.09461*%
%ADD116O,0.05918X0.11036*%
%ADD117R,0.06706X0.06706*%
%ADD118R,0.06706X0.06706*%
%ADD119C,0.02299*%
%ADD120C,0.02402*%
%ADD149C,0.03720*%
%ADD150C,0.03720*%
%ADD151R,0.02677X0.03937*%
%ADD152R,0.05276X0.04134*%
%ADD153R,0.07638X0.04134*%
%ADD154R,0.07087X0.04134*%
%ADD155R,0.02756X0.04724*%
%ADD162R,0.00100X0.00100*%
%ADD167R,0.24816X0.07099*%
G04:AMPARAMS|DCode=168|XSize=78.87mil|YSize=248.16mil|CornerRadius=21.72mil|HoleSize=0mil|Usage=FLASHONLY|Rotation=90.000|XOffset=0mil|YOffset=0mil|HoleType=Round|Shape=RoundedRectangle|*
%AMROUNDEDRECTD168*
21,1,0.07887,0.20473,0,0,90.0*
21,1,0.03543,0.24816,0,0,90.0*
1,1,0.04343,0.10236,0.01772*
1,1,0.04343,0.10236,-0.01772*
1,1,0.04343,-0.10236,-0.01772*
1,1,0.04343,-0.10236,0.01772*
%
%ADD168ROUNDEDRECTD168*%
%ADD169R,0.03753X0.01981*%
%ADD170R,0.01784X0.02965*%
%ADD171R,0.01587X0.02965*%
%ADD172R,0.03162X0.01981*%
%ADD173R,0.05476X0.04752*%
G36*
X110152Y223964D02*
X109652D01*
X108951Y224664D01*
Y226364D01*
X110152D01*
Y223964D01*
D02*
G37*
G36*
X107592Y224664D02*
X106892Y223964D01*
X106392D01*
Y226364D01*
X107592D01*
Y224664D01*
D02*
G37*
G36*
X109222Y223114D02*
X108272Y222164D01*
X107322Y223114D01*
X108272Y224064D01*
X109222Y223114D01*
D02*
G37*
G36*
X110152Y219864D02*
X108951D01*
Y221864D01*
X109652Y222564D01*
X110152D01*
Y219864D01*
D02*
G37*
G36*
X107592Y221564D02*
Y219864D01*
X106392D01*
Y222264D01*
X106892D01*
X107592Y221564D01*
D02*
G37*
G36*
X189418Y191814D02*
Y191462D01*
X189148Y190811D01*
X188649Y190312D01*
X187998Y190042D01*
X187646D01*
X184496Y190042D01*
Y190042D01*
X184144D01*
X183493Y190312D01*
X182994Y190811D01*
X182725Y191462D01*
Y191814D01*
Y194176D01*
X189418D01*
Y191814D01*
D02*
G37*
G36*
X187646Y142365D02*
X187998D01*
X188649Y142095D01*
X189148Y141597D01*
X189418Y140946D01*
Y140594D01*
Y138231D01*
X182725D01*
Y140594D01*
Y140946D01*
X182994Y141597D01*
X183493Y142095D01*
X184144Y142365D01*
X184496D01*
X187646Y142365D01*
Y142365D01*
D02*
G37*
G36*
X78111Y131634D02*
X78124Y131633D01*
X78138Y131632D01*
X78150Y131630D01*
X78163Y131629D01*
X78176Y131626D01*
X78190Y131624D01*
X79597Y131309D01*
X79610Y131305D01*
X79623Y131302D01*
X79635Y131298D01*
X79647Y131294D01*
X79659Y131289D01*
X79672Y131284D01*
X80990Y130699D01*
X81002Y130693D01*
X81014Y130688D01*
X81025Y130681D01*
X81036Y130675D01*
X81047Y130667D01*
X81059Y130660D01*
X82236Y129828D01*
X82247Y129820D01*
X82257Y129812D01*
X82267Y129803D01*
X82277Y129795D01*
X82286Y129785D01*
X82296Y129776D01*
X83287Y128729D01*
X83296Y128719D01*
X83305Y128709D01*
X83312Y128699D01*
X83321Y128689D01*
X83328Y128677D01*
X83336Y128666D01*
X84102Y127445D01*
X84109Y127433D01*
X84116Y127422D01*
X84121Y127410D01*
X84127Y127399D01*
X84132Y127386D01*
X84137Y127374D01*
X84649Y126026D01*
X84653Y126014D01*
X84658Y126001D01*
X84661Y125988D01*
X84665Y125976D01*
X84667Y125963D01*
X84670Y125950D01*
X84908Y124528D01*
X84909Y124514D01*
X84911Y124501D01*
X84912Y124488D01*
X84913Y124475D01*
X84913Y124462D01*
X84913Y124449D01*
X84890Y123728D01*
X84889Y123723D01*
X84889Y123719D01*
X84889Y123714D01*
Y123714D01*
X84889Y123714D01*
X84886Y123651D01*
X84884Y123634D01*
X84882Y123618D01*
X84881Y123608D01*
X84879Y123599D01*
X84875Y123583D01*
X84872Y123566D01*
X84869Y123557D01*
X84866Y123548D01*
X84860Y123533D01*
X84855Y123517D01*
X84851Y123508D01*
X84847Y123499D01*
X84839Y123485D01*
X84831Y123470D01*
X84826Y123462D01*
X84821Y123453D01*
X84811Y123440D01*
X84802Y123426D01*
X84795Y123419D01*
X84790Y123412D01*
X84778Y123400D01*
X84767Y123387D01*
X84670Y123291D01*
X84657Y123280D01*
X84645Y123269D01*
X84637Y123263D01*
X84630Y123257D01*
X84616Y123248D01*
X84603Y123238D01*
X84595Y123233D01*
X84586Y123228D01*
X84571Y123221D01*
X84557Y123213D01*
X84548Y123209D01*
X84539Y123205D01*
X84523Y123200D01*
X84508Y123194D01*
X84499Y123191D01*
X84489Y123188D01*
X84473Y123185D01*
X84457Y123181D01*
X84447Y123180D01*
X84438Y123178D01*
X84421Y123177D01*
X84405Y123176D01*
X84268Y123170D01*
X84251Y123170D01*
X84235Y123170D01*
X84225Y123171D01*
X84216Y123171D01*
X84199Y123174D01*
X84183Y123175D01*
X84173Y123178D01*
X84164Y123179D01*
X84148Y123184D01*
X84132Y123188D01*
X84123Y123191D01*
X84114Y123194D01*
X84098Y123200D01*
X84083Y123206D01*
X84074Y123211D01*
X84066Y123215D01*
X84051Y123223D01*
X84037Y123231D01*
X84029Y123237D01*
X84021Y123242D01*
X84008Y123253D01*
X83994Y123262D01*
X83919Y123325D01*
X70139Y123325D01*
X70087Y123328D01*
X70046Y123337D01*
X70035Y123339D01*
X70035D01*
X70035Y123339D01*
X69986Y123356D01*
X69955Y123371D01*
X69939Y123379D01*
X69939Y123379D01*
D01*
X69895Y123408D01*
X69870Y123430D01*
X69856Y123442D01*
X69856Y123442D01*
X69856Y123442D01*
X69843Y123457D01*
X69821Y123482D01*
X69792Y123526D01*
D01*
X69792Y123526D01*
X69784Y123542D01*
X69769Y123573D01*
X69752Y123622D01*
X69752Y123622D01*
Y123622D01*
X69750Y123633D01*
X69747Y123646D01*
X69741Y123651D01*
X69730Y123658D01*
X69721Y123667D01*
X69711Y123674D01*
X69701Y123684D01*
X69691Y123693D01*
X69683Y123703D01*
X69674Y123711D01*
X69666Y123722D01*
X69657Y123733D01*
X69650Y123743D01*
X69642Y123753D01*
X69635Y123765D01*
X69628Y123777D01*
X69593Y123838D01*
X69587Y123851D01*
X69580Y123863D01*
X69575Y123874D01*
X69570Y123886D01*
X69565Y123899D01*
X69560Y123911D01*
X69557Y123924D01*
X69553Y123935D01*
X69551Y123949D01*
X69547Y123962D01*
X69546Y123975D01*
X69543Y123987D01*
X69542Y124001D01*
X69541Y124014D01*
X69539Y124050D01*
X69539Y124064D01*
X69538Y124077D01*
X69548Y124798D01*
X69549Y124811D01*
X69549Y124825D01*
X69551Y124838D01*
X69552Y124850D01*
X69555Y124863D01*
X69557Y124877D01*
X69859Y126287D01*
X69862Y126300D01*
X69865Y126313D01*
X69870Y126325D01*
X69873Y126337D01*
X69878Y126350D01*
X69883Y126362D01*
X70456Y127685D01*
X70462Y127697D01*
X70467Y127710D01*
X70474Y127721D01*
X70480Y127732D01*
X70487Y127743D01*
X70494Y127755D01*
X71315Y128940D01*
X71324Y128950D01*
X71331Y128961D01*
X71340Y128971D01*
X71348Y128981D01*
X71358Y128990D01*
X71367Y129000D01*
X72404Y130001D01*
X72415Y130010D01*
X72424Y130019D01*
X72435Y130027D01*
X72445Y130035D01*
X72456Y130042D01*
X72467Y130050D01*
X73681Y130828D01*
X73693Y130835D01*
X73704Y130842D01*
X73715Y130847D01*
X73727Y130853D01*
X73739Y130858D01*
X73751Y130864D01*
X75094Y131388D01*
X75107Y131393D01*
X75120Y131397D01*
X75132Y131400D01*
X75144Y131404D01*
X75158Y131407D01*
X75171Y131410D01*
X76591Y131661D01*
X76604Y131662D01*
X76617Y131664D01*
X76630Y131665D01*
X76643Y131666D01*
X76656Y131666D01*
X76670Y131667D01*
X78111Y131634D01*
D02*
G37*
D88*
X56520Y162144D02*
D03*
Y167656D02*
D03*
D89*
X104465Y109847D02*
D03*
Y114375D02*
D03*
X165674Y203061D02*
D03*
Y207589D02*
D03*
X154674Y203061D02*
D03*
Y207589D02*
D03*
X136934Y203061D02*
D03*
Y207589D02*
D03*
X160014Y123545D02*
D03*
Y128072D02*
D03*
X155334D02*
D03*
Y123545D02*
D03*
X137774Y128072D02*
D03*
Y123545D02*
D03*
D90*
X39470Y157913D02*
D03*
X33958D02*
D03*
X109937Y104513D02*
D03*
X104425D02*
D03*
X116660Y220144D02*
D03*
X122171D02*
D03*
X116660Y225784D02*
D03*
X122171D02*
D03*
D98*
X52900Y166300D02*
D03*
X33753Y177514D02*
D03*
X94189Y119395D02*
D03*
X137454Y115049D02*
D03*
X113260Y228600D02*
D03*
X171020Y128620D02*
D03*
D99*
X99386Y119237D02*
D03*
Y115773D02*
D03*
X99425Y104513D02*
D03*
Y107977D02*
D03*
X109701Y109906D02*
D03*
Y113371D02*
D03*
X101532Y226256D02*
D03*
Y222791D02*
D03*
X175714Y124864D02*
D03*
Y128328D02*
D03*
X165634Y128328D02*
D03*
Y124864D02*
D03*
D104*
X46379Y165433D02*
D03*
X34962D02*
D03*
X43899Y150393D02*
D03*
X55316D02*
D03*
X106788Y127308D02*
D03*
X95370D02*
D03*
D105*
X93520Y110477D02*
D03*
Y105162D02*
D03*
D109*
X37272Y172840D02*
D03*
X33808D02*
D03*
X52500Y172580D02*
D03*
X55965D02*
D03*
X52860Y157260D02*
D03*
X56325D02*
D03*
X104662Y119473D02*
D03*
X108126D02*
D03*
X110044Y214444D02*
D03*
X106579D02*
D03*
D115*
X30564Y60202D02*
D03*
X64580D02*
D03*
D116*
X30564Y39100D02*
D03*
X64580D02*
D03*
D117*
X162340Y46600D02*
D03*
X35080Y84440D02*
D03*
X35020Y95400D02*
D03*
X24000Y95380D02*
D03*
X24020Y84460D02*
D03*
X57280Y95400D02*
D03*
Y84400D02*
D03*
X151120Y46580D02*
D03*
X173098Y35680D02*
D03*
X151120Y57580D02*
D03*
X151098Y35680D02*
D03*
X46160Y95400D02*
D03*
X161998Y35680D02*
D03*
X46200Y84420D02*
D03*
X184000Y35700D02*
D03*
X184040Y57620D02*
D03*
X184000Y46620D02*
D03*
X173260Y57640D02*
D03*
X173220Y46600D02*
D03*
X162140Y57620D02*
D03*
X57340Y73480D02*
D03*
D118*
X24020Y73520D02*
D03*
D119*
X141627Y34900D02*
D03*
D120*
X127060D02*
D03*
D149*
X187350Y140298D02*
D03*
D150*
X186071Y192109D02*
D03*
D151*
X175992Y193566D02*
D03*
X172528D02*
D03*
X169063D02*
D03*
X165599D02*
D03*
X162134D02*
D03*
X158669D02*
D03*
X155205D02*
D03*
X175992Y138842D02*
D03*
X172528D02*
D03*
X169063D02*
D03*
X165599D02*
D03*
X162134D02*
D03*
X158669D02*
D03*
X155205D02*
D03*
X137252Y193566D02*
D03*
Y138842D02*
D03*
D152*
X150441Y193468D02*
D03*
Y138940D02*
D03*
D153*
X143197Y193468D02*
D03*
Y138940D02*
D03*
D154*
X124260Y193468D02*
D03*
Y138940D02*
D03*
D155*
X131681Y192385D02*
D03*
D162*
X108272Y223114D02*
D03*
X109552Y225164D02*
D03*
X106992D02*
D03*
Y221064D02*
D03*
X109552D02*
D03*
D167*
X77181Y106351D02*
D03*
D168*
Y124552D02*
D03*
D169*
X159831Y116709D02*
D03*
Y114740D02*
D03*
Y112771D02*
D03*
X163769D02*
D03*
Y114740D02*
D03*
Y116709D02*
D03*
D170*
X126965Y118345D02*
D03*
X130903D02*
D03*
Y113031D02*
D03*
X126965D02*
D03*
D171*
X128934Y118345D02*
D03*
Y113031D02*
D03*
D172*
X131493Y115689D02*
D03*
X126375D02*
D03*
D173*
X77043Y129775D02*
D03*
M02*
