G04*
G04 #@! TF.GenerationSoftware,Altium Limited,Altium Designer,18.0.7 (293)*
G04*
G04 Layer_Physical_Order=2*
G04 Layer_Color=16711680*
%FSLAX25Y25*%
%MOIN*%
G70*
G01*
G75*
%ADD11C,0.01000*%
%ADD17C,0.00700*%
%ADD27C,0.03150*%
%ADD44R,0.03543X0.03150*%
%ADD45R,0.02362X0.02953*%
%ADD46R,0.03150X0.03543*%
%ADD54R,0.02520X0.02362*%
%ADD59R,0.05118X0.07087*%
%ADD60R,0.03937X0.03543*%
%ADD64R,0.02362X0.02520*%
%ADD121C,0.00800*%
%ADD122C,0.01200*%
%ADD123C,0.01500*%
%ADD125C,0.02000*%
%ADD128C,0.03000*%
%ADD130C,0.00900*%
%ADD139O,0.04331X0.08661*%
%ADD140O,0.05118X0.10236*%
%ADD141R,0.05906X0.05906*%
%ADD142R,0.05906X0.05906*%
%ADD143C,0.02063*%
%ADD144C,0.02165*%
%ADD145C,0.01968*%
%ADD146C,0.03000*%
%ADD147C,0.03200*%
%ADD148C,0.02500*%
%ADD149C,0.03720*%
%ADD150C,0.03720*%
%ADD151R,0.02677X0.03937*%
%ADD152R,0.05276X0.04134*%
%ADD153R,0.07638X0.04134*%
%ADD154R,0.07087X0.04134*%
%ADD155R,0.02756X0.04724*%
%ADD156R,0.24016X0.06299*%
G04:AMPARAMS|DCode=157|XSize=70.87mil|YSize=240.16mil|CornerRadius=17.72mil|HoleSize=0mil|Usage=FLASHONLY|Rotation=90.000|XOffset=0mil|YOffset=0mil|HoleType=Round|Shape=RoundedRectangle|*
%AMROUNDEDRECTD157*
21,1,0.07087,0.20473,0,0,90.0*
21,1,0.03543,0.24016,0,0,90.0*
1,1,0.03543,0.10236,0.01772*
1,1,0.03543,0.10236,-0.01772*
1,1,0.03543,-0.10236,-0.01772*
1,1,0.03543,-0.10236,0.01772*
%
%ADD157ROUNDEDRECTD157*%
%ADD158R,0.02953X0.01181*%
%ADD159R,0.00984X0.02165*%
%ADD160R,0.00787X0.02165*%
%ADD161R,0.02362X0.01181*%
%ADD162R,0.00100X0.00100*%
%ADD163C,0.02200*%
%ADD164C,0.00200*%
%ADD165C,0.02800*%
%ADD166R,0.04676X0.03952*%
G36*
X68872Y272455D02*
X68857Y272423D01*
X68844Y272380D01*
X68832Y272328D01*
X68822Y272267D01*
X68808Y272113D01*
X68801Y271920D01*
X68800Y271809D01*
X67600D01*
X67599Y271920D01*
X67578Y272267D01*
X67568Y272328D01*
X67556Y272380D01*
X67543Y272423D01*
X67528Y272455D01*
X67511Y272477D01*
X68889D01*
X68872Y272455D01*
D02*
G37*
G36*
X68801Y251700D02*
X68822Y251354D01*
X68832Y251292D01*
X68844Y251240D01*
X68857Y251198D01*
X68872Y251165D01*
X68889Y251143D01*
X67511D01*
X67528Y251165D01*
X67543Y251198D01*
X67556Y251240D01*
X67568Y251292D01*
X67578Y251354D01*
X67592Y251507D01*
X67599Y251700D01*
X67600Y251811D01*
X68800D01*
X68801Y251700D01*
D02*
G37*
G36*
X32185Y242932D02*
X32217Y242917D01*
X32260Y242904D01*
X32312Y242892D01*
X32373Y242882D01*
X32527Y242868D01*
X32720Y242861D01*
X32831Y242860D01*
Y241660D01*
X32720Y241659D01*
X32373Y241638D01*
X32312Y241628D01*
X32260Y241616D01*
X32217Y241603D01*
X32185Y241588D01*
X32163Y241571D01*
Y242949D01*
X32185Y242932D01*
D02*
G37*
G36*
X57037Y240291D02*
X57015Y240308D01*
X56982Y240323D01*
X56940Y240336D01*
X56888Y240348D01*
X56827Y240358D01*
X56673Y240372D01*
X56480Y240379D01*
X56369Y240380D01*
Y241580D01*
X56480Y241581D01*
X56827Y241602D01*
X56888Y241612D01*
X56940Y241624D01*
X56982Y241637D01*
X57015Y241652D01*
X57037Y241669D01*
Y240291D01*
D02*
G37*
G36*
X32285Y238392D02*
X32318Y238377D01*
X32360Y238364D01*
X32412Y238352D01*
X32473Y238342D01*
X32627Y238328D01*
X32820Y238321D01*
X32931Y238320D01*
Y237120D01*
X32820Y237119D01*
X32473Y237098D01*
X32412Y237088D01*
X32360Y237076D01*
X32318Y237063D01*
X32285Y237048D01*
X32263Y237031D01*
Y238409D01*
X32285Y238392D01*
D02*
G37*
G36*
X19325Y236092D02*
X19357Y236077D01*
X19400Y236064D01*
X19452Y236052D01*
X19513Y236042D01*
X19667Y236028D01*
X19860Y236021D01*
X19971Y236020D01*
Y234820D01*
X19860Y234819D01*
X19513Y234798D01*
X19452Y234788D01*
X19400Y234776D01*
X19357Y234763D01*
X19325Y234748D01*
X19303Y234731D01*
Y236109D01*
X19325Y236092D01*
D02*
G37*
G36*
X32137Y233791D02*
X32115Y233808D01*
X32083Y233823D01*
X32040Y233836D01*
X31988Y233848D01*
X31927Y233858D01*
X31773Y233872D01*
X31580Y233879D01*
X31469Y233880D01*
Y235080D01*
X31580Y235081D01*
X31927Y235102D01*
X31988Y235112D01*
X32040Y235124D01*
X32083Y235137D01*
X32115Y235152D01*
X32137Y235169D01*
Y233791D01*
D02*
G37*
G36*
X57503Y231608D02*
X57471Y231609D01*
X57433Y231601D01*
X57390Y231584D01*
X57342Y231558D01*
X57289Y231524D01*
X57230Y231482D01*
X57098Y231370D01*
X56945Y231224D01*
X56261Y232238D01*
X56340Y232317D01*
X56679Y232701D01*
X56685Y232717D01*
X57503Y231608D01*
D02*
G37*
G36*
X31425Y232232D02*
X31457Y232217D01*
X31500Y232204D01*
X31552Y232192D01*
X31613Y232182D01*
X31767Y232168D01*
X31960Y232161D01*
X32071Y232160D01*
Y230960D01*
X31960Y230959D01*
X31613Y230938D01*
X31552Y230928D01*
X31500Y230916D01*
X31457Y230903D01*
X31425Y230888D01*
X31403Y230871D01*
Y232249D01*
X31425Y232232D01*
D02*
G37*
G36*
X114829Y228364D02*
X114840Y228236D01*
X114864Y228108D01*
X114901Y227981D01*
X114951Y227855D01*
X115014Y227730D01*
X115090Y227605D01*
X115180Y227481D01*
X115282Y227358D01*
X115398Y227235D01*
X115097Y226915D01*
Y225415D01*
X115090Y225556D01*
X115069Y225698D01*
X115033Y225839D01*
X114984Y225980D01*
X114920Y226122D01*
X114842Y226263D01*
X114750Y226405D01*
X114644Y226546D01*
X114557Y226649D01*
X114466Y226724D01*
X114342Y226812D01*
X114218Y226886D01*
X114093Y226946D01*
X113967Y226992D01*
X113841Y227024D01*
X113714Y227043D01*
X113587Y227047D01*
X113554Y227045D01*
X113542Y227041D01*
X113422Y226996D01*
X113302Y226943D01*
X113182Y226880D01*
X113062Y226809D01*
X112943Y226729D01*
X112703Y226542D01*
X112583Y226436D01*
X112464Y226321D01*
X111474Y226746D01*
X111591Y226871D01*
X111691Y226994D01*
X111772Y227115D01*
X111836Y227234D01*
X111882Y227352D01*
X111910Y227467D01*
X111920Y227581D01*
X111913Y227693D01*
X111887Y227803D01*
X111844Y227910D01*
X113547Y227131D01*
X114390Y228025D01*
Y228243D01*
X114496Y228138D01*
X114831Y228493D01*
X114829Y228364D01*
D02*
G37*
G36*
X19668Y229382D02*
X19680Y229349D01*
X19701Y229310D01*
X19729Y229265D01*
X19766Y229214D01*
X19864Y229096D01*
X19996Y228954D01*
X20074Y228875D01*
X19225Y228027D01*
X19146Y228104D01*
X18886Y228334D01*
X18835Y228371D01*
X18790Y228399D01*
X18751Y228420D01*
X18718Y228432D01*
X18690Y228436D01*
X19664Y229410D01*
X19668Y229382D01*
D02*
G37*
G36*
X102778Y226625D02*
X102809Y226540D01*
X102860Y226465D01*
X102931Y226400D01*
X103022Y226345D01*
X103133Y226300D01*
X103265Y226265D01*
X103416Y226240D01*
X103588Y226225D01*
X103779Y226220D01*
Y225664D01*
Y224664D01*
X102779Y225087D01*
X102767Y226164D01*
X102772Y226127D01*
X102767Y226720D01*
X102778Y226625D01*
D02*
G37*
G36*
X110152Y223964D02*
X109652D01*
X108951Y224664D01*
Y226364D01*
X110152D01*
Y223964D01*
D02*
G37*
G36*
X107592Y224664D02*
X106892Y223964D01*
X106392D01*
Y226364D01*
X107592D01*
Y224664D01*
D02*
G37*
G36*
X131224Y224773D02*
X131272Y224741D01*
X131327Y224713D01*
X131389Y224688D01*
X131459Y224667D01*
X131537Y224650D01*
X131621Y224637D01*
X131713Y224628D01*
X131918Y224620D01*
Y223620D01*
X131812Y223618D01*
X131621Y223603D01*
X131537Y223590D01*
X131459Y223573D01*
X131389Y223552D01*
X131327Y223527D01*
X131272Y223499D01*
X131224Y223467D01*
X131183Y223431D01*
Y224809D01*
X131224Y224773D01*
D02*
G37*
G36*
X151902Y223866D02*
X152048Y223746D01*
X152118Y223699D01*
X152185Y223661D01*
X152250Y223632D01*
X152312Y223612D01*
X152372Y223601D01*
X152430Y223598D01*
X152485Y223605D01*
X151712Y222464D01*
X151700Y222509D01*
X151682Y222557D01*
X151656Y222609D01*
X151624Y222664D01*
X151584Y222723D01*
X151483Y222852D01*
X151422Y222922D01*
X151278Y223073D01*
X151825Y223939D01*
X151902Y223866D01*
D02*
G37*
G36*
X179258Y216538D02*
X179920Y216096D01*
X180700Y215941D01*
X186235D01*
X189378Y212798D01*
Y208898D01*
X188916Y208706D01*
X184211Y213412D01*
X183714Y213744D01*
X183129Y213860D01*
X171130D01*
X170863Y214360D01*
X171047Y214636D01*
X171171Y215260D01*
X171047Y215884D01*
X170694Y216413D01*
X170164Y216767D01*
X169540Y216891D01*
X151749D01*
X151125Y216767D01*
X150595Y216413D01*
X149918Y215736D01*
X143915D01*
X143598Y216122D01*
X143629Y216280D01*
Y216436D01*
X143705Y216535D01*
X143713Y216566D01*
X143731Y216593D01*
X143764Y216757D01*
X143807Y216919D01*
X143802Y216951D01*
X143809Y216983D01*
X143776Y217147D01*
X143753Y217314D01*
X143737Y217341D01*
X143731Y217373D01*
X143638Y217513D01*
X143634Y217519D01*
X143633Y217525D01*
X143630Y217540D01*
X143629Y217552D01*
Y218000D01*
X143513Y218585D01*
X143181Y219081D01*
X140501Y221761D01*
X140005Y222093D01*
X140066Y222591D01*
X150304D01*
X150712Y222184D01*
X150759Y222123D01*
X150759Y222122D01*
X150767Y222106D01*
X150775Y222096D01*
X150778Y222091D01*
X150785Y222083D01*
X150786Y222081D01*
X150796Y222061D01*
X150860Y221904D01*
X150881Y221882D01*
X150894Y221854D01*
X151020Y221741D01*
X151139Y221621D01*
X151167Y221609D01*
X151190Y221588D01*
X151350Y221532D01*
X151423Y221501D01*
X151833Y221227D01*
X152418Y221111D01*
X152680D01*
X153265Y221227D01*
X153761Y221559D01*
X154093Y222055D01*
X154209Y222640D01*
X154093Y223225D01*
X153761Y223721D01*
X153426Y223946D01*
X153425Y223947D01*
X153375Y224102D01*
X153351Y224131D01*
X153337Y224165D01*
X153223Y224281D01*
X153149Y224367D01*
X153178Y224550D01*
X153312Y224867D01*
X170929D01*
X179258Y216538D01*
D02*
G37*
G36*
X115097Y220064D02*
X115087Y220159D01*
X115057Y220244D01*
X115007Y220319D01*
X114937Y220384D01*
X114847Y220439D01*
X114737Y220484D01*
X114607Y220519D01*
X114457Y220544D01*
X114287Y220559D01*
X114097Y220564D01*
Y221564D01*
X114287Y221567D01*
X114607Y221594D01*
X114737Y221618D01*
X114847Y221649D01*
X114937Y221686D01*
X115007Y221730D01*
X115057Y221781D01*
X115087Y221839D01*
X115097Y221903D01*
Y220064D01*
D02*
G37*
G36*
X130904Y221333D02*
X130952Y221301D01*
X131007Y221273D01*
X131070Y221248D01*
X131139Y221227D01*
X131217Y221210D01*
X131301Y221197D01*
X131393Y221188D01*
X131598Y221180D01*
Y220180D01*
X131492Y220178D01*
X131301Y220163D01*
X131217Y220150D01*
X131139Y220133D01*
X131070Y220112D01*
X131007Y220087D01*
X130952Y220059D01*
X130904Y220027D01*
X130863Y219991D01*
Y221369D01*
X130904Y221333D01*
D02*
G37*
G36*
X110152Y219864D02*
X108951D01*
Y221864D01*
X109652Y222564D01*
X110152D01*
Y219864D01*
D02*
G37*
G36*
X57803Y218028D02*
X57771Y218029D01*
X57733Y218021D01*
X57690Y218004D01*
X57642Y217979D01*
X57589Y217944D01*
X57530Y217902D01*
X57398Y217790D01*
X57245Y217644D01*
X56561Y218657D01*
X56640Y218737D01*
X56980Y219121D01*
X56985Y219137D01*
X57803Y218028D01*
D02*
G37*
G36*
X123667Y219722D02*
X123640Y219631D01*
X123641Y219525D01*
X123670Y219405D01*
X123728Y219271D01*
X123814Y219122D01*
X123929Y218959D01*
X124071Y218782D01*
X124441Y218384D01*
X123734Y217677D01*
X123528Y217876D01*
X123159Y218190D01*
X122996Y218304D01*
X122847Y218390D01*
X122713Y218448D01*
X122593Y218477D01*
X122488Y218478D01*
X122397Y218451D01*
X122320Y218396D01*
X123722Y219798D01*
X123667Y219722D01*
D02*
G37*
G36*
X30905Y218612D02*
X30937Y218597D01*
X30980Y218584D01*
X31032Y218572D01*
X31093Y218562D01*
X31247Y218548D01*
X31440Y218541D01*
X31551Y218540D01*
Y217340D01*
X31440Y217339D01*
X31093Y217318D01*
X31032Y217308D01*
X30980Y217296D01*
X30937Y217283D01*
X30905Y217268D01*
X30883Y217251D01*
Y218629D01*
X30905Y218612D01*
D02*
G37*
G36*
X142602Y217612D02*
X142617Y217421D01*
X142630Y217337D01*
X142647Y217259D01*
X142668Y217190D01*
X142693Y217127D01*
X142721Y217072D01*
X142753Y217024D01*
X142789Y216983D01*
X141411D01*
X141447Y217024D01*
X141479Y217072D01*
X141507Y217127D01*
X141532Y217190D01*
X141553Y217259D01*
X141570Y217337D01*
X141583Y217421D01*
X141592Y217513D01*
X141600Y217718D01*
X142600D01*
X142602Y217612D01*
D02*
G37*
G36*
X110056Y216500D02*
X110072Y216328D01*
X110097Y216177D01*
X110132Y216046D01*
X110177Y215934D01*
X110231Y215843D01*
X110296Y215772D01*
X110371Y215721D01*
X110457Y215690D01*
X110552Y215680D01*
X108875Y215691D01*
X108908Y215702D01*
X108938Y215732D01*
X108965Y215781D01*
X108988Y215851D01*
X109007Y215942D01*
X109023Y216052D01*
X109044Y216332D01*
X109052Y216691D01*
X110052D01*
X110056Y216500D01*
D02*
G37*
G36*
X193240Y215373D02*
X192740Y215204D01*
X188522Y219422D01*
X187860Y219864D01*
X187080Y220019D01*
X181545D01*
X173216Y228348D01*
X172554Y228790D01*
X171774Y228945D01*
X129611D01*
X129611Y228945D01*
X128831Y228790D01*
X128170Y228348D01*
X128170Y228348D01*
X127644Y227823D01*
X124746D01*
Y228555D01*
X124211D01*
Y271427D01*
X126762Y273978D01*
X127204Y274640D01*
X127359Y275420D01*
X127204Y276200D01*
X126762Y276862D01*
X126100Y277304D01*
X125320Y277459D01*
X124540Y277304D01*
X123878Y276862D01*
X120730Y273713D01*
X120288Y273052D01*
X120132Y272271D01*
Y228555D01*
X119597D01*
Y228555D01*
X119235D01*
Y228555D01*
X115896D01*
X115857Y228600D01*
X115769Y229272D01*
X115509Y229899D01*
X115096Y230436D01*
X114558Y230849D01*
X113932Y231108D01*
X113260Y231197D01*
X112588Y231108D01*
X111961Y230849D01*
X111424Y230436D01*
X111011Y229899D01*
X110751Y229272D01*
X110663Y228600D01*
X110751Y227928D01*
X110845Y227701D01*
X110594Y227371D01*
X110524Y227309D01*
X110152Y227383D01*
X108951D01*
X108561Y227306D01*
X108272Y227112D01*
X107983Y227306D01*
X107592Y227383D01*
X106392D01*
X106002Y227306D01*
X105672Y227085D01*
X105375Y226803D01*
X105064Y227007D01*
X104877Y227133D01*
X104291Y227249D01*
X103791D01*
Y228437D01*
X99272D01*
Y224075D01*
X102555D01*
X103382Y223725D01*
X103386Y223724D01*
X103389Y223722D01*
X103581Y223684D01*
X103772Y223644D01*
X103776Y223645D01*
X103779Y223644D01*
X103971Y223682D01*
X104162Y223719D01*
X104166Y223721D01*
X104169Y223722D01*
X104238Y223767D01*
X104262Y223751D01*
X104848Y223634D01*
X105438D01*
X105450Y223573D01*
X105672Y223243D01*
X106002Y223022D01*
X106392Y222944D01*
X106892D01*
X107283Y223022D01*
X107361Y223074D01*
X107322Y223114D01*
X108272Y224064D01*
X109222Y223114D01*
X108272Y222164D01*
X108079Y222357D01*
X108010Y222254D01*
X107932Y221864D01*
Y219864D01*
X108010Y219474D01*
X108022Y219455D01*
Y216704D01*
X107863D01*
Y215804D01*
X107861Y215797D01*
X107863Y215774D01*
Y215736D01*
X107855Y215699D01*
X107863Y215659D01*
Y212549D01*
X65931D01*
X65925Y212553D01*
X65340Y212669D01*
X64755Y212553D01*
X64259Y212221D01*
X56974Y204937D01*
X56957Y204924D01*
X56951Y204921D01*
X56944Y204919D01*
X56780Y204886D01*
X56753Y204868D01*
X56722Y204860D01*
X56588Y204758D01*
X56449Y204665D01*
X56431Y204638D01*
X56405Y204619D01*
X56321Y204474D01*
X56228Y204334D01*
X56222Y204303D01*
X56205Y204275D01*
X56189Y204152D01*
X56079Y204041D01*
X55747Y203545D01*
X55733Y203473D01*
X55524Y203387D01*
X54900Y203511D01*
X50136D01*
X49925Y204011D01*
X49977Y204065D01*
X50028Y204144D01*
X50095Y204210D01*
X50591Y204953D01*
X50630Y205046D01*
X50686Y205130D01*
X51041Y205987D01*
X51060Y206086D01*
X51099Y206178D01*
X51280Y207089D01*
Y207189D01*
X51300Y207288D01*
Y212568D01*
X51287Y212629D01*
X51292Y212691D01*
X51244Y213089D01*
X51393Y213380D01*
X51497Y213508D01*
X51625Y213589D01*
X57229D01*
X57297Y213575D01*
X57360Y213544D01*
X57490Y213537D01*
X57617Y213511D01*
X57687Y213525D01*
X57758Y213521D01*
X57880Y213564D01*
X58005Y213589D01*
X58320D01*
X58944Y213713D01*
X59474Y214067D01*
X59827Y214596D01*
X59951Y215220D01*
X59827Y215844D01*
X59474Y216373D01*
X58944Y216727D01*
X58649Y216786D01*
X58565Y216933D01*
X58532Y217032D01*
X58513Y217296D01*
X58587Y217404D01*
X58676Y217502D01*
X58700Y217567D01*
X58704Y217573D01*
X59114Y217846D01*
X59467Y218376D01*
X59591Y219000D01*
X59467Y219624D01*
X59114Y220153D01*
X58584Y220507D01*
X57960Y220631D01*
X57752D01*
X57128Y220507D01*
X56599Y220153D01*
X56423Y219978D01*
X56380Y219958D01*
X56312Y219883D01*
X56230Y219822D01*
X56212Y219792D01*
X56020Y219575D01*
X56016Y219571D01*
X31271D01*
X31203Y219585D01*
X31140Y219616D01*
X31010Y219623D01*
X30883Y219649D01*
X30813Y219635D01*
X30742Y219639D01*
X30620Y219596D01*
X30495Y219571D01*
X30180D01*
X29556Y219447D01*
X29026Y219093D01*
X28673Y218564D01*
X28549Y217940D01*
X28673Y217316D01*
X29026Y216787D01*
X29318Y216592D01*
X29418Y216006D01*
X29408Y215976D01*
X26978Y213545D01*
X26921Y213507D01*
X26853Y213483D01*
X26757Y213397D01*
X26649Y213325D01*
X26609Y213266D01*
X26556Y213219D01*
X26500Y213102D01*
X26429Y212996D01*
X26206Y212773D01*
X26142Y212677D01*
X25463Y212551D01*
X25381Y212608D01*
Y224350D01*
X25257Y224974D01*
X24904Y225503D01*
X20605Y229802D01*
X20567Y229859D01*
X20543Y229927D01*
X20457Y230023D01*
X20385Y230131D01*
X20326Y230171D01*
X20279Y230224D01*
X20162Y230280D01*
X20056Y230351D01*
X19834Y230574D01*
X19304Y230927D01*
X18680Y231051D01*
X18056Y230927D01*
X17789Y230749D01*
X17289Y231016D01*
Y233770D01*
X17789Y234037D01*
X17976Y233913D01*
X18600Y233789D01*
X18915D01*
X19040Y233764D01*
X19162Y233721D01*
X19233Y233725D01*
X19303Y233711D01*
X19430Y233737D01*
X19560Y233744D01*
X19624Y233775D01*
X19680Y233787D01*
X19715Y233789D01*
X24574D01*
X25036Y233327D01*
X25566Y232973D01*
X26190Y232849D01*
X29035D01*
X29303Y232349D01*
X29193Y232184D01*
X29069Y231560D01*
X29193Y230936D01*
X29546Y230406D01*
X30076Y230053D01*
X30700Y229929D01*
X31015D01*
X31140Y229904D01*
X31262Y229861D01*
X31333Y229865D01*
X31403Y229851D01*
X31530Y229877D01*
X31660Y229884D01*
X31723Y229915D01*
X31780Y229926D01*
X31815Y229929D01*
X37880D01*
X38072Y229467D01*
X37736Y229131D01*
X31540D01*
X30916Y229007D01*
X30386Y228654D01*
X30033Y228124D01*
X29909Y227500D01*
X30033Y226876D01*
X30386Y226346D01*
X30916Y225993D01*
X31540Y225869D01*
X38412D01*
X39036Y225993D01*
X39566Y226346D01*
X40884Y227665D01*
X40924Y227673D01*
X41453Y228027D01*
X41807Y228556D01*
X41931Y229180D01*
X41882Y229429D01*
X42280Y229929D01*
X56432D01*
X57056Y230053D01*
X57586Y230406D01*
X57831Y230651D01*
X57878Y230660D01*
X57989Y230732D01*
X58108Y230788D01*
X58155Y230839D01*
X58213Y230876D01*
X58288Y230984D01*
X58376Y231082D01*
X58400Y231147D01*
X58404Y231153D01*
X58814Y231427D01*
X59167Y231956D01*
X59291Y232580D01*
X59167Y233204D01*
X58814Y233734D01*
X58284Y234087D01*
X57660Y234211D01*
X57452D01*
X56828Y234087D01*
X56299Y233734D01*
X56123Y233558D01*
X56080Y233538D01*
X56012Y233463D01*
X55930Y233402D01*
X55912Y233372D01*
X55752Y233191D01*
X34505D01*
X34237Y233691D01*
X34347Y233856D01*
X34471Y234480D01*
X34347Y235104D01*
X34023Y235589D01*
X34075Y235803D01*
X34212Y236089D01*
X56256D01*
X56498Y235846D01*
X57028Y235493D01*
X57652Y235369D01*
X57860D01*
X58484Y235493D01*
X59013Y235846D01*
X59367Y236376D01*
X59491Y237000D01*
X59367Y237624D01*
X59013Y238154D01*
X58484Y238507D01*
X58444Y238515D01*
X58086Y238874D01*
X58046Y238900D01*
X58152Y239431D01*
X58364Y239473D01*
X58894Y239826D01*
X59247Y240356D01*
X59371Y240980D01*
X59247Y241604D01*
X58894Y242133D01*
X58364Y242487D01*
X57740Y242611D01*
X57425D01*
X57300Y242636D01*
X57178Y242679D01*
X57107Y242675D01*
X57037Y242689D01*
X56910Y242663D01*
X56780Y242656D01*
X56717Y242625D01*
X56660Y242614D01*
X56625Y242611D01*
X45916D01*
X45114Y243413D01*
X44584Y243767D01*
X43960Y243891D01*
X32551D01*
X32484Y243905D01*
X32420Y243936D01*
X32290Y243943D01*
X32163Y243969D01*
X32093Y243955D01*
X32023Y243959D01*
X31900Y243916D01*
X31775Y243891D01*
X31460D01*
X30836Y243767D01*
X30307Y243413D01*
X29953Y242884D01*
X29829Y242260D01*
X29953Y241636D01*
X30307Y241107D01*
X30836Y240753D01*
X31460Y240629D01*
X31775D01*
X31900Y240604D01*
X32023Y240561D01*
X32093Y240565D01*
X32163Y240551D01*
X32290Y240577D01*
X32420Y240584D01*
X32484Y240615D01*
X32540Y240627D01*
X32575Y240629D01*
X43284D01*
X44062Y239851D01*
X44054Y239745D01*
X43898Y239351D01*
X32651D01*
X32583Y239365D01*
X32520Y239396D01*
X32390Y239403D01*
X32263Y239429D01*
X32193Y239415D01*
X32122Y239419D01*
X32000Y239376D01*
X31875Y239351D01*
X31560D01*
X30936Y239227D01*
X30406Y238874D01*
X30053Y238344D01*
X29929Y237720D01*
X30053Y237096D01*
X30376Y236611D01*
X30325Y236397D01*
X30188Y236111D01*
X26866D01*
X26404Y236574D01*
X25874Y236927D01*
X25250Y237051D01*
X19691D01*
X19624Y237065D01*
X19560Y237096D01*
X19430Y237103D01*
X19303Y237129D01*
X19233Y237115D01*
X19162Y237119D01*
X19040Y237076D01*
X18915Y237051D01*
X18600D01*
X18402Y237012D01*
X18156Y237473D01*
X24609Y243926D01*
X28764D01*
X29349Y244042D01*
X29845Y244374D01*
X39658Y254186D01*
X39989Y254682D01*
X40106Y255268D01*
Y265710D01*
X49206Y274811D01*
X66861D01*
X67004Y274441D01*
X67031Y274311D01*
X66693Y273804D01*
X66569Y273180D01*
Y272865D01*
X66544Y272740D01*
X66501Y272618D01*
X66505Y272547D01*
X66491Y272477D01*
X66517Y272350D01*
X66524Y272220D01*
X66555Y272157D01*
X66566Y272099D01*
X66569Y272065D01*
Y251531D01*
X66555Y251464D01*
X66524Y251400D01*
X66517Y251270D01*
X66491Y251143D01*
X66505Y251073D01*
X66501Y251003D01*
X66544Y250880D01*
X66569Y250755D01*
Y250440D01*
X66693Y249816D01*
X67046Y249287D01*
X67576Y248933D01*
X68200Y248809D01*
X68824Y248933D01*
X69353Y249287D01*
X69707Y249816D01*
X69831Y250440D01*
Y250755D01*
X69856Y250880D01*
X69899Y251003D01*
X69895Y251073D01*
X69909Y251143D01*
X69883Y251270D01*
X69876Y251400D01*
X69845Y251464D01*
X69833Y251520D01*
X69831Y251555D01*
Y272089D01*
X69845Y272157D01*
X69876Y272220D01*
X69883Y272350D01*
X69909Y272477D01*
X69895Y272547D01*
X69899Y272618D01*
X69856Y272740D01*
X69831Y272865D01*
Y273180D01*
X69707Y273804D01*
X69369Y274311D01*
X69396Y274441D01*
X69539Y274811D01*
X84660D01*
X85245Y274927D01*
X85741Y275259D01*
X86073Y275755D01*
X86189Y276340D01*
X86073Y276925D01*
X85741Y277421D01*
X85245Y277753D01*
X84660Y277869D01*
X48572D01*
X47987Y277753D01*
X47491Y277421D01*
X37495Y267425D01*
X37163Y266929D01*
X37047Y266344D01*
Y255901D01*
X28130Y246985D01*
X23975D01*
X23390Y246868D01*
X22894Y246536D01*
X14679Y238321D01*
X14347Y237825D01*
X14231Y237240D01*
Y223926D01*
X14347Y223341D01*
X14679Y222845D01*
X19795Y217728D01*
Y206024D01*
X14521Y200750D01*
X14095Y200466D01*
X9959Y196329D01*
X9627Y195833D01*
X9511Y195248D01*
Y171653D01*
X9627Y171068D01*
X9959Y170572D01*
X13130Y167401D01*
Y130000D01*
X13247Y129415D01*
X13578Y128919D01*
X18455Y124042D01*
X18290Y123500D01*
X18255Y123493D01*
X17759Y123161D01*
X17648Y123051D01*
X17525Y123035D01*
X17497Y123018D01*
X17466Y123012D01*
X17326Y122919D01*
X17181Y122835D01*
X17162Y122809D01*
X17135Y122791D01*
X17042Y122652D01*
X16940Y122518D01*
X16932Y122487D01*
X16914Y122460D01*
X16881Y122296D01*
X16879Y122289D01*
X16876Y122283D01*
X16867Y122271D01*
X16859Y122262D01*
X15554Y120957D01*
X15223Y120461D01*
X15106Y119876D01*
Y119466D01*
X15006Y118963D01*
Y92804D01*
X15123Y92219D01*
X15454Y91723D01*
X19746Y87431D01*
X20067Y87217D01*
Y80507D01*
X27973D01*
Y86958D01*
X31127D01*
Y80487D01*
X39033D01*
Y86958D01*
X42247D01*
Y80467D01*
X50153D01*
Y86958D01*
X51082D01*
X51585Y87058D01*
X52506D01*
X53009Y86958D01*
X53327D01*
Y80447D01*
X59945D01*
X60097Y79947D01*
X59999Y79881D01*
X59667Y79385D01*
X59551Y78800D01*
Y78600D01*
X59667Y78014D01*
X59722Y77933D01*
X59454Y77433D01*
X53387D01*
Y69527D01*
X58828D01*
X58867Y69520D01*
X58905Y69527D01*
X59092D01*
X59341Y69317D01*
X63886Y64771D01*
X64382Y64440D01*
X64967Y64324D01*
X164631D01*
X165216Y64440D01*
X165712Y64771D01*
X166604Y65663D01*
X166725Y65687D01*
X167221Y66019D01*
X167553Y66515D01*
X167629Y66546D01*
X167794Y66436D01*
X168575Y66281D01*
X174120D01*
X174900Y66436D01*
X175562Y66878D01*
X182902Y74218D01*
X183344Y74880D01*
X183500Y75660D01*
Y92416D01*
X188698Y97615D01*
X189140Y98276D01*
X189296Y99057D01*
Y132397D01*
X192740Y135842D01*
X193240Y135673D01*
Y31160D01*
X192280Y30200D01*
X8534D01*
X8181Y30554D01*
X8800Y298800D01*
X9760Y299760D01*
X193240D01*
Y215373D01*
D02*
G37*
G36*
X57617Y214531D02*
X57595Y214548D01*
X57563Y214563D01*
X57520Y214576D01*
X57468Y214588D01*
X57407Y214598D01*
X57253Y214612D01*
X57060Y214619D01*
X56949Y214620D01*
Y215820D01*
X57060Y215821D01*
X57407Y215842D01*
X57468Y215852D01*
X57520Y215864D01*
X57563Y215877D01*
X57595Y215892D01*
X57617Y215909D01*
Y214531D01*
D02*
G37*
G36*
X49158Y213500D02*
X49306Y213500D01*
X49596Y213442D01*
X49869Y213329D01*
X50115Y213165D01*
X50220Y213060D01*
X50280Y212568D01*
Y207288D01*
X50099Y206377D01*
X49744Y205520D01*
X49247Y204776D01*
X48900Y204420D01*
Y204420D01*
X47919Y203439D01*
X47582Y203372D01*
X47058Y203022D01*
X46708Y202498D01*
X46641Y202161D01*
X46609Y202129D01*
X45950Y201402D01*
X44861Y199772D01*
X44111Y197961D01*
X43728Y196038D01*
X43680Y195058D01*
Y190030D01*
X43711Y189408D01*
X43953Y188187D01*
X44430Y187037D01*
X45121Y186002D01*
X45540Y185540D01*
X45540Y185540D01*
X48777Y182303D01*
X49051Y182055D01*
X49665Y181645D01*
X50347Y181362D01*
X51071Y181218D01*
X51440Y181200D01*
X51440Y181200D01*
X52082Y181200D01*
X53341Y180949D01*
X54528Y180458D01*
X55595Y179745D01*
X56049Y179291D01*
X56049Y179291D01*
X56049Y179291D01*
X57580Y177760D01*
X57884Y177456D01*
X58363Y176740D01*
X58692Y175944D01*
X58852Y175142D01*
X58860Y174673D01*
Y174670D01*
X58860Y174670D01*
X58860Y174670D01*
X58860Y166130D01*
X58805Y165873D01*
X58682Y165738D01*
X58545Y165613D01*
X58304Y165560D01*
X54460D01*
X53966Y166054D01*
X53924Y166117D01*
X53895Y166187D01*
X53880Y166262D01*
Y167175D01*
X53711Y167650D01*
X53810Y167600D01*
X53880Y167577D01*
Y168275D01*
X53956Y168657D01*
X54105Y169018D01*
X54322Y169342D01*
X54460Y169480D01*
X54460Y169480D01*
X54877Y169426D01*
X54893Y169489D01*
X54927Y169699D01*
X54955Y169969D01*
X55010Y171139D01*
X55020Y172219D01*
X58020D01*
X58023Y171649D01*
X58040Y171340D01*
X58081Y171408D01*
X58308Y172367D01*
X58232Y173349D01*
X57861Y174262D01*
X57230Y175019D01*
X56399Y175549D01*
X55446Y175800D01*
X54462Y175750D01*
X53987Y175613D01*
X53987Y175613D01*
X53500Y176100D01*
X53360Y176281D01*
X53031Y176597D01*
X52647Y176843D01*
X52223Y177009D01*
X52000Y177060D01*
X52000Y177060D01*
X52000Y177060D01*
X52000Y177060D01*
X46880D01*
X46576Y177040D01*
X45973Y177119D01*
X45396Y177315D01*
X45021Y177532D01*
X44640Y177820D01*
Y177820D01*
X41668Y180792D01*
X41109Y181351D01*
X40232Y182663D01*
X39628Y184122D01*
X39320Y185671D01*
Y186460D01*
Y197755D01*
Y198717D01*
X39695Y200604D01*
X40431Y202381D01*
X41500Y203980D01*
X42180Y204660D01*
X42472Y204983D01*
X42956Y205706D01*
X43039Y205908D01*
X43119Y205941D01*
X43259Y206081D01*
X43267Y206100D01*
X43460Y206520D01*
Y206521D01*
X43466Y207304D01*
X43480Y207799D01*
Y209140D01*
X43460Y209632D01*
Y212223D01*
X43523Y212539D01*
X43646Y212837D01*
X43826Y213106D01*
X44007Y213287D01*
X44163Y213391D01*
X44337Y213463D01*
X44522Y213500D01*
X44616Y213500D01*
X44616Y213500D01*
X49158Y213500D01*
D02*
G37*
G36*
X28754Y212165D02*
X28675Y212086D01*
X28446Y211826D01*
X28409Y211775D01*
X28381Y211730D01*
X28360Y211691D01*
X28348Y211658D01*
X28344Y211630D01*
X27370Y212604D01*
X27398Y212608D01*
X27431Y212620D01*
X27470Y212641D01*
X27515Y212669D01*
X27566Y212706D01*
X27684Y212804D01*
X27826Y212936D01*
X27905Y213014D01*
X28754Y212165D01*
D02*
G37*
G36*
X131033Y211894D02*
X129877Y211572D01*
Y210331D01*
X129836Y210367D01*
X129788Y210399D01*
X129733Y210427D01*
X129671Y210452D01*
X129601Y210473D01*
X129523Y210490D01*
X129439Y210503D01*
X129347Y210512D01*
X129142Y210520D01*
Y211520D01*
X129248Y211522D01*
X129439Y211537D01*
X129523Y211550D01*
X129601Y211567D01*
X129671Y211588D01*
X129733Y211613D01*
X129770Y211632D01*
X129770Y211675D01*
X129758Y211730D01*
X129736Y211788D01*
X129704Y211851D01*
X129662Y211917D01*
X129608Y211986D01*
X129545Y212060D01*
X129471Y212138D01*
X130277Y212746D01*
X131033Y211894D01*
D02*
G37*
G36*
X169584Y208273D02*
X169632Y208241D01*
X169687Y208213D01*
X169749Y208188D01*
X169819Y208167D01*
X169897Y208150D01*
X169981Y208137D01*
X170073Y208128D01*
X170278Y208120D01*
Y207120D01*
X170172Y207118D01*
X169981Y207103D01*
X169897Y207090D01*
X169819Y207073D01*
X169749Y207052D01*
X169687Y207027D01*
X169632Y206999D01*
X169584Y206967D01*
X169543Y206931D01*
Y208309D01*
X169584Y208273D01*
D02*
G37*
G36*
X35852Y207256D02*
X35841Y207226D01*
X35831Y207185D01*
X35823Y207135D01*
X35810Y207003D01*
X35801Y206730D01*
X35800Y206618D01*
X34600Y206494D01*
X34599Y206605D01*
X34573Y206950D01*
X34561Y207013D01*
X34546Y207065D01*
X34530Y207107D01*
X34511Y207140D01*
X34490Y207163D01*
X35864Y207275D01*
X35852Y207256D01*
D02*
G37*
G36*
X42800Y213000D02*
Y206540D01*
X42660Y206400D01*
X40320D01*
X36880Y209840D01*
X33440D01*
X29860Y206260D01*
Y196440D01*
X36640Y189660D01*
X36600Y189620D01*
Y174700D01*
X35491D01*
Y170980D01*
X36600D01*
Y168975D01*
X36808Y168952D01*
X36600Y168953D01*
Y161913D01*
X37033Y161914D01*
X36748Y161883D01*
X36600Y161830D01*
Y156223D01*
X36560Y155740D01*
X31520D01*
Y188100D01*
X24980Y194640D01*
Y206920D01*
X31380Y213320D01*
X42320D01*
X42800Y213000D01*
D02*
G37*
G36*
X154812Y206124D02*
X154745Y206171D01*
X154664Y206192D01*
X154569Y206187D01*
X154459Y206155D01*
X154335Y206098D01*
X154197Y206014D01*
X154045Y205904D01*
X153879Y205768D01*
X153505Y205417D01*
X152797Y206124D01*
X152986Y206318D01*
X153284Y206665D01*
X153394Y206817D01*
X153478Y206955D01*
X153536Y207079D01*
X153567Y207188D01*
X153572Y207283D01*
X153552Y207365D01*
X153505Y207432D01*
X154812Y206124D01*
D02*
G37*
G36*
X137179D02*
X137101Y206181D01*
X137009Y206209D01*
X136903D01*
X136783Y206181D01*
X136648Y206124D01*
X136500Y206039D01*
X136337Y205926D01*
X136161Y205785D01*
X135765Y205417D01*
X135057Y206124D01*
X135256Y206329D01*
X135567Y206697D01*
X135680Y206859D01*
X135765Y207008D01*
X135821Y207142D01*
X135849Y207263D01*
Y207369D01*
X135821Y207461D01*
X135765Y207538D01*
X137179Y206124D01*
D02*
G37*
G36*
X138099Y208366D02*
X138121Y208225D01*
X138157Y208085D01*
X138207Y207944D01*
X138272Y207803D01*
X138351Y207661D01*
X138445Y207519D01*
X138552Y207377D01*
X138674Y207234D01*
X138810Y207091D01*
Y205677D01*
X138722Y205762D01*
X138558Y205905D01*
X138482Y205963D01*
X138410Y206012D01*
X138341Y206053D01*
X138276Y206084D01*
X138214Y206106D01*
X138157Y206120D01*
X138103Y206124D01*
X138091Y208505D01*
X138099Y208366D01*
D02*
G37*
G36*
X38376Y205435D02*
X38361Y205402D01*
X38348Y205360D01*
X38336Y205308D01*
X38326Y205246D01*
X38312Y205093D01*
X38305Y204900D01*
X38304Y204789D01*
X37104D01*
X37103Y204900D01*
X37082Y205246D01*
X37072Y205308D01*
X37061Y205360D01*
X37047Y205402D01*
X37032Y205435D01*
X37015Y205457D01*
X38393D01*
X38376Y205435D01*
D02*
G37*
G36*
X33205Y205002D02*
X33186Y204979D01*
X33170Y204947D01*
X33155Y204904D01*
X33143Y204852D01*
X33132Y204790D01*
X33117Y204637D01*
X33109Y204444D01*
X33108Y204333D01*
X31908Y204376D01*
X31907Y204487D01*
X31879Y204894D01*
X31868Y204946D01*
X31856Y204988D01*
X31842Y205019D01*
X31827Y205041D01*
X33205Y205002D01*
D02*
G37*
G36*
X58531Y203624D02*
X58457Y203547D01*
X58332Y203401D01*
X58282Y203332D01*
X58240Y203266D01*
X58205Y203201D01*
X58178Y203140D01*
X58159Y203081D01*
X58148Y203024D01*
X58144Y202970D01*
X57170Y203944D01*
X57224Y203948D01*
X57281Y203959D01*
X57340Y203978D01*
X57401Y204005D01*
X57466Y204040D01*
X57532Y204082D01*
X57601Y204132D01*
X57673Y204191D01*
X57823Y204331D01*
X58531Y203624D01*
D02*
G37*
G36*
X172072Y203989D02*
X172115Y203950D01*
X172165Y203916D01*
X172223Y203886D01*
X172290Y203861D01*
X172364Y203840D01*
X172446Y203824D01*
X172537Y203812D01*
X172635Y203805D01*
X172741Y203803D01*
X172515Y202803D01*
X172407Y202802D01*
X172129Y202783D01*
X172052Y202772D01*
X171920Y202743D01*
X171865Y202724D01*
X171818Y202703D01*
X171778Y202679D01*
X172038Y204033D01*
X172072Y203989D01*
D02*
G37*
G36*
X164517Y202061D02*
X164506Y202156D01*
X164476Y202241D01*
X164426Y202316D01*
X164355Y202381D01*
X164264Y202436D01*
X164152Y202481D01*
X164021Y202516D01*
X163869Y202541D01*
X163697Y202556D01*
X163505Y202561D01*
Y203561D01*
X163697Y203566D01*
X163869Y203581D01*
X164021Y203606D01*
X164152Y203641D01*
X164264Y203686D01*
X164355Y203741D01*
X164426Y203806D01*
X164476Y203881D01*
X164506Y203966D01*
X164517Y204061D01*
Y202061D01*
D02*
G37*
G36*
X48925Y202552D02*
X48957Y202537D01*
X49000Y202524D01*
X49052Y202512D01*
X49114Y202502D01*
X49267Y202488D01*
X49460Y202481D01*
X49571Y202480D01*
Y201280D01*
X49460Y201279D01*
X49114Y201258D01*
X49052Y201248D01*
X49000Y201236D01*
X48957Y201223D01*
X48925Y201208D01*
X48903Y201191D01*
Y202569D01*
X48925Y202552D01*
D02*
G37*
G36*
X155779Y201587D02*
X155721Y201557D01*
X155670Y201507D01*
X155626Y201437D01*
X155589Y201347D01*
X155559Y201237D01*
X155535Y201107D01*
X155518Y200957D01*
X155508Y200787D01*
X155505Y200597D01*
X154505D01*
X154500Y200787D01*
X154485Y200957D01*
X154460Y201107D01*
X154425Y201237D01*
X154380Y201347D01*
X154325Y201437D01*
X154260Y201507D01*
X154185Y201557D01*
X154100Y201587D01*
X154005Y201597D01*
X155843D01*
X155779Y201587D01*
D02*
G37*
G36*
X137998D02*
X137913Y201557D01*
X137838Y201507D01*
X137773Y201437D01*
X137718Y201347D01*
X137673Y201237D01*
X137638Y201107D01*
X137613Y200957D01*
X137598Y200787D01*
X137593Y200597D01*
X136593D01*
X136588Y200787D01*
X136573Y200957D01*
X136548Y201107D01*
X136513Y201237D01*
X136468Y201347D01*
X136413Y201437D01*
X136348Y201507D01*
X136273Y201557D01*
X136188Y201587D01*
X136093Y201597D01*
X138093D01*
X137998Y201587D01*
D02*
G37*
G36*
X129401Y204184D02*
X129499Y204039D01*
X129995Y203707D01*
X130580Y203591D01*
X130681Y203611D01*
X133063D01*
Y200835D01*
X132563Y200568D01*
X132444Y200647D01*
X131820Y200771D01*
X131196Y200647D01*
X130666Y200293D01*
X130597Y200224D01*
X130244Y199695D01*
X130119Y199071D01*
Y198781D01*
X130089Y198712D01*
X130087Y198634D01*
X130066Y198559D01*
X130082Y198437D01*
X130078Y198315D01*
X130106Y198242D01*
X130106Y198240D01*
X130119Y198060D01*
Y195747D01*
X129303D01*
Y189023D01*
X133063D01*
Y164791D01*
X132602Y164600D01*
X130625Y166576D01*
Y175258D01*
X130509Y175844D01*
X130177Y176340D01*
X114527Y191990D01*
X114031Y192322D01*
X113445Y192438D01*
X59969D01*
X59383Y192322D01*
X59258Y192238D01*
X58702Y192468D01*
X58667Y192644D01*
X58314Y193174D01*
X57784Y193527D01*
X57292Y193625D01*
X57341Y194125D01*
X118162D01*
X118747Y194241D01*
X119244Y194573D01*
X128904Y204233D01*
X129401Y204184D01*
D02*
G37*
G36*
X161921Y201493D02*
X161953Y201472D01*
X161995Y201453D01*
X162047Y201437D01*
X162109Y201424D01*
X162181Y201413D01*
X162353Y201398D01*
X162564Y201393D01*
X162331Y200193D01*
X162219Y200193D01*
X161708Y200161D01*
X161692Y200154D01*
X161898Y201516D01*
X161921Y201493D01*
D02*
G37*
G36*
X56774Y200855D02*
X57034Y200626D01*
X57085Y200589D01*
X57130Y200560D01*
X57169Y200540D01*
X57202Y200528D01*
X57230Y200524D01*
X56256Y199550D01*
X56252Y199578D01*
X56240Y199611D01*
X56220Y199650D01*
X56191Y199695D01*
X56154Y199746D01*
X56056Y199864D01*
X55924Y200006D01*
X55847Y200085D01*
X56695Y200934D01*
X56774Y200855D01*
D02*
G37*
G36*
X171592Y199563D02*
X170449Y199320D01*
X170245Y200520D01*
X170356Y200521D01*
X170621Y200539D01*
X170686Y200549D01*
X170740Y200562D01*
X170783Y200578D01*
X170814Y200595D01*
X170834Y200615D01*
X170843Y200638D01*
X171592Y199563D01*
D02*
G37*
G36*
X38305Y199040D02*
X38326Y198694D01*
X38336Y198632D01*
X38348Y198580D01*
X38361Y198538D01*
X38376Y198505D01*
X38393Y198483D01*
X37015D01*
X37032Y198505D01*
X37047Y198538D01*
X37061Y198580D01*
X37072Y198632D01*
X37082Y198694D01*
X37096Y198847D01*
X37103Y199040D01*
X37104Y199151D01*
X38304D01*
X38305Y199040D01*
D02*
G37*
G36*
X47887Y197885D02*
X47862Y197914D01*
X47827Y197941D01*
X47785Y197964D01*
X47733Y197984D01*
X47672Y198001D01*
X47603Y198015D01*
X47526Y198026D01*
X47344Y198038D01*
X47240Y198040D01*
Y198840D01*
X47344Y198842D01*
X47526Y198854D01*
X47603Y198865D01*
X47672Y198879D01*
X47733Y198896D01*
X47785Y198916D01*
X47827Y198939D01*
X47862Y198966D01*
X47887Y198995D01*
Y197885D01*
D02*
G37*
G36*
X132458Y198390D02*
X132437Y198367D01*
X132419Y198334D01*
X132403Y198292D01*
X132389Y198239D01*
X132377Y198177D01*
X132368Y198105D01*
X132355Y197933D01*
X132351Y197721D01*
X131151Y197828D01*
X131150Y197940D01*
X131118Y198396D01*
X131107Y198437D01*
X131096Y198467D01*
X131083Y198487D01*
X132458Y198390D01*
D02*
G37*
G36*
X33108Y198208D02*
X33109Y198097D01*
X33137Y197690D01*
X33147Y197638D01*
X33160Y197597D01*
X33173Y197565D01*
X33189Y197543D01*
X31811Y197582D01*
X31830Y197605D01*
X31846Y197638D01*
X31861Y197680D01*
X31873Y197732D01*
X31884Y197794D01*
X31899Y197948D01*
X31907Y198140D01*
X31908Y198251D01*
X33108Y198208D01*
D02*
G37*
G36*
X35801Y196755D02*
X35827Y196410D01*
X35839Y196347D01*
X35854Y196295D01*
X35870Y196253D01*
X35889Y196220D01*
X35910Y196197D01*
X34536Y196085D01*
X34548Y196104D01*
X34559Y196134D01*
X34569Y196175D01*
X34577Y196225D01*
X34590Y196357D01*
X34599Y196630D01*
X34600Y196742D01*
X35800Y196866D01*
X35801Y196755D01*
D02*
G37*
G36*
X16693Y196556D02*
X16661Y196508D01*
X16633Y196453D01*
X16608Y196390D01*
X16587Y196321D01*
X16570Y196243D01*
X16557Y196159D01*
X16548Y196067D01*
X16540Y195862D01*
X15540D01*
X15538Y195968D01*
X15523Y196159D01*
X15510Y196243D01*
X15493Y196321D01*
X15472Y196390D01*
X15447Y196453D01*
X15419Y196508D01*
X15387Y196556D01*
X15351Y196597D01*
X16729D01*
X16693Y196556D01*
D02*
G37*
G36*
X165281Y196331D02*
X165296Y196159D01*
X165322Y196008D01*
X165357Y195877D01*
X165401Y195765D01*
X165456Y195674D01*
X165522Y195603D01*
X165596Y195552D01*
X165682Y195521D01*
X165777Y195510D01*
X164272Y195522D01*
X164273Y195533D01*
X164274Y195563D01*
X164277Y196522D01*
X165277D01*
X165281Y196331D01*
D02*
G37*
G36*
X155510Y196330D02*
X155525Y196158D01*
X155550Y196006D01*
X155585Y195875D01*
X155630Y195764D01*
X155685Y195672D01*
X155750Y195602D01*
X155825Y195551D01*
X155910Y195521D01*
X156005Y195510D01*
X154005D01*
X154100Y195521D01*
X154185Y195551D01*
X154260Y195602D01*
X154325Y195672D01*
X154380Y195764D01*
X154425Y195875D01*
X154460Y196006D01*
X154485Y196158D01*
X154500Y196330D01*
X154505Y196522D01*
X155505D01*
X155510Y196330D01*
D02*
G37*
G36*
X137598D02*
X137613Y196158D01*
X137638Y196006D01*
X137673Y195875D01*
X137718Y195764D01*
X137773Y195672D01*
X137838Y195602D01*
X137913Y195551D01*
X137998Y195521D01*
X138093Y195510D01*
X136093D01*
X136188Y195521D01*
X136273Y195551D01*
X136348Y195602D01*
X136413Y195672D01*
X136468Y195764D01*
X136513Y195875D01*
X136548Y196006D01*
X136573Y196158D01*
X136588Y196330D01*
X136593Y196522D01*
X137593D01*
X137598Y196330D01*
D02*
G37*
G36*
X132357Y195705D02*
X132375Y195499D01*
X132405Y195317D01*
X132447Y195159D01*
X132501Y195026D01*
X132567Y194917D01*
X132645Y194832D01*
X132735Y194772D01*
X132837Y194735D01*
X132951Y194723D01*
X130551D01*
X130665Y194735D01*
X130767Y194772D01*
X130857Y194832D01*
X130935Y194917D01*
X131001Y195026D01*
X131055Y195159D01*
X131097Y195317D01*
X131127Y195499D01*
X131145Y195705D01*
X131151Y195935D01*
X132351D01*
X132357Y195705D01*
D02*
G37*
G36*
X47980Y193861D02*
X47995Y193837D01*
X48017Y193807D01*
X48085Y193725D01*
X48249Y193550D01*
X48399Y193397D01*
X47715Y192384D01*
X47636Y192462D01*
X47430Y192642D01*
X47371Y192684D01*
X47318Y192719D01*
X47270Y192744D01*
X47227Y192761D01*
X47189Y192769D01*
X47157Y192768D01*
X47975Y193877D01*
X47980Y193861D01*
D02*
G37*
G36*
X56457Y191331D02*
X56435Y191348D01*
X56402Y191363D01*
X56360Y191376D01*
X56308Y191388D01*
X56247Y191398D01*
X56093Y191412D01*
X55900Y191419D01*
X55789Y191420D01*
Y192620D01*
X55900Y192621D01*
X56247Y192642D01*
X56308Y192652D01*
X56360Y192664D01*
X56402Y192677D01*
X56435Y192692D01*
X56457Y192709D01*
Y191331D01*
D02*
G37*
G36*
X173433Y191611D02*
X173348Y191581D01*
X173273Y191530D01*
X173208Y191460D01*
X173153Y191368D01*
X173108Y191257D01*
X173073Y191126D01*
X173048Y190974D01*
X173033Y190802D01*
X173028Y190610D01*
X172028D01*
X172023Y190802D01*
X172008Y190974D01*
X171983Y191126D01*
X171948Y191257D01*
X171903Y191368D01*
X171848Y191460D01*
X171783Y191530D01*
X171708Y191581D01*
X171623Y191611D01*
X171528Y191621D01*
X173528D01*
X173433Y191611D01*
D02*
G37*
G36*
X169968D02*
X169883Y191581D01*
X169808Y191530D01*
X169743Y191460D01*
X169688Y191368D01*
X169643Y191257D01*
X169608Y191126D01*
X169583Y190974D01*
X169568Y190802D01*
X169563Y190610D01*
X168563D01*
X168558Y190802D01*
X168543Y190974D01*
X168518Y191126D01*
X168483Y191257D01*
X168438Y191368D01*
X168383Y191460D01*
X168318Y191530D01*
X168243Y191581D01*
X168158Y191611D01*
X168063Y191621D01*
X170063D01*
X169968Y191611D01*
D02*
G37*
G36*
X156110D02*
X156025Y191581D01*
X155950Y191530D01*
X155885Y191460D01*
X155830Y191368D01*
X155785Y191257D01*
X155750Y191126D01*
X155725Y190974D01*
X155710Y190802D01*
X155705Y190610D01*
X154705D01*
X154700Y190802D01*
X154685Y190974D01*
X154660Y191126D01*
X154625Y191257D01*
X154580Y191368D01*
X154525Y191460D01*
X154460Y191530D01*
X154385Y191581D01*
X154300Y191611D01*
X154205Y191621D01*
X156205D01*
X156110Y191611D01*
D02*
G37*
G36*
X138579Y191610D02*
X138578Y191600D01*
X138577Y191569D01*
X138574Y190610D01*
X137574D01*
X137569Y190801D01*
X137554Y190972D01*
X137529Y191124D01*
X137494Y191255D01*
X137449Y191367D01*
X137394Y191458D01*
X137329Y191529D01*
X137254Y191580D01*
X137169Y191611D01*
X137074Y191621D01*
X138579Y191610D01*
D02*
G37*
G36*
X57720Y189942D02*
X57750Y189925D01*
X57791Y189910D01*
X57842Y189897D01*
X57903Y189885D01*
X57974Y189876D01*
X58146Y189864D01*
X58358Y189860D01*
Y188860D01*
X58247Y188859D01*
X57903Y188835D01*
X57842Y188823D01*
X57791Y188810D01*
X57750Y188795D01*
X57720Y188778D01*
X57699Y188758D01*
Y189962D01*
X57720Y189942D01*
D02*
G37*
G36*
X28354Y189636D02*
X28614Y189406D01*
X28665Y189369D01*
X28710Y189340D01*
X28749Y189320D01*
X28782Y189308D01*
X28810Y189304D01*
X27836Y188330D01*
X27832Y188358D01*
X27820Y188391D01*
X27799Y188430D01*
X27771Y188475D01*
X27734Y188526D01*
X27636Y188644D01*
X27505Y188786D01*
X27426Y188865D01*
X28275Y189714D01*
X28354Y189636D01*
D02*
G37*
G36*
X81687Y186296D02*
X81669Y186274D01*
X81652Y186241D01*
X81638Y186198D01*
X81625Y186146D01*
X81614Y186084D01*
X81599Y185931D01*
X81591Y185738D01*
X81590Y185627D01*
X80390Y185673D01*
X80389Y185785D01*
X80361Y186192D01*
X80351Y186243D01*
X80339Y186285D01*
X80325Y186317D01*
X80310Y186338D01*
X81687Y186296D01*
D02*
G37*
G36*
X101690Y182876D02*
X101662Y182872D01*
X101629Y182860D01*
X101590Y182840D01*
X101545Y182811D01*
X101494Y182774D01*
X101376Y182676D01*
X101234Y182545D01*
X101155Y182466D01*
X100306Y183315D01*
X100384Y183394D01*
X100614Y183654D01*
X100651Y183705D01*
X100680Y183750D01*
X100700Y183789D01*
X100712Y183822D01*
X100716Y183850D01*
X101690Y182876D01*
D02*
G37*
G36*
X105792Y182615D02*
X105777Y182582D01*
X105764Y182540D01*
X105752Y182488D01*
X105742Y182427D01*
X105728Y182273D01*
X105721Y182080D01*
X105720Y181969D01*
X104520D01*
X104519Y182080D01*
X104498Y182427D01*
X104488Y182488D01*
X104476Y182540D01*
X104463Y182582D01*
X104448Y182615D01*
X104431Y182637D01*
X105809D01*
X105792Y182615D01*
D02*
G37*
G36*
X157493Y177577D02*
X157639Y177452D01*
X157708Y177402D01*
X157774Y177359D01*
X157839Y177325D01*
X157900Y177298D01*
X157959Y177279D01*
X158016Y177268D01*
X158070Y177264D01*
X157096Y176290D01*
X157092Y176344D01*
X157081Y176401D01*
X157062Y176460D01*
X157035Y176521D01*
X157001Y176586D01*
X156958Y176652D01*
X156908Y176721D01*
X156849Y176793D01*
X156709Y176944D01*
X157416Y177651D01*
X157493Y177577D01*
D02*
G37*
G36*
X139724Y203941D02*
X152493D01*
Y200585D01*
X153475D01*
Y196535D01*
X152866D01*
Y191425D01*
X152960D01*
X152866Y191415D01*
Y190597D01*
X153675D01*
Y179155D01*
X153792Y178570D01*
X154123Y178074D01*
X155744Y176453D01*
X155642Y176181D01*
X155500Y175990D01*
X155402Y175989D01*
X155233Y175998D01*
X155204Y175988D01*
X155174Y175988D01*
X155018Y175922D01*
X155015Y175921D01*
X155015D01*
X154969Y175910D01*
X154965Y175910D01*
X154962Y175909D01*
X154922Y175900D01*
X154845Y175895D01*
X154440D01*
X139604Y190731D01*
Y192744D01*
X139591Y192809D01*
Y196535D01*
X138622D01*
Y200585D01*
X139115D01*
Y203552D01*
X139118Y203566D01*
X139615Y203962D01*
X139724Y203941D01*
D02*
G37*
G36*
X81590Y175807D02*
X81591Y175695D01*
X81619Y175288D01*
X81629Y175236D01*
X81641Y175195D01*
X81655Y175163D01*
X81670Y175142D01*
X80293Y175184D01*
X80311Y175206D01*
X80328Y175239D01*
X80342Y175282D01*
X80355Y175334D01*
X80366Y175396D01*
X80381Y175549D01*
X80389Y175742D01*
X80390Y175853D01*
X81590Y175807D01*
D02*
G37*
G36*
X157310Y200141D02*
Y200118D01*
X157427Y199533D01*
X157758Y199037D01*
X159292Y197503D01*
X159788Y197172D01*
X160373Y197055D01*
X162135D01*
X162149Y197035D01*
X161881Y196535D01*
X159795D01*
Y190597D01*
X167534D01*
Y182697D01*
X163139Y178301D01*
X162807Y177805D01*
X162691Y177220D01*
X162807Y176635D01*
X163139Y176139D01*
X163635Y175807D01*
X164220Y175691D01*
X164805Y175807D01*
X165301Y176139D01*
X170145Y180982D01*
X170476Y181478D01*
X170498Y181589D01*
X170998Y181540D01*
Y161735D01*
X171115Y161150D01*
X171446Y160654D01*
X178591Y153510D01*
X178772Y153389D01*
Y144766D01*
X178310Y144575D01*
X177403Y145481D01*
X176940Y145791D01*
X176394Y145899D01*
X176371Y146226D01*
X176367Y146280D01*
X176348Y146380D01*
X176259Y146826D01*
X175949Y147289D01*
X175486Y147599D01*
X174940Y147707D01*
X174394Y147599D01*
X173931Y147289D01*
X173707Y147066D01*
X173398Y146603D01*
X173289Y146056D01*
X173289Y146056D01*
Y145368D01*
X172457Y144536D01*
X172148Y144073D01*
X172039Y143526D01*
X172039Y143526D01*
Y142618D01*
X171600D01*
X171418Y142581D01*
X171235Y142550D01*
X171223Y142543D01*
X171210Y142540D01*
X171055Y142437D01*
X170898Y142338D01*
X170890Y142327D01*
X170879Y142319D01*
X170776Y142165D01*
X170669Y142013D01*
X170666Y142000D01*
X170658Y141988D01*
X170623Y141810D01*
X166638D01*
Y142310D01*
X166522Y142895D01*
X166190Y143392D01*
X155988Y153594D01*
X155491Y153926D01*
X154906Y154042D01*
X145281D01*
X140218Y159105D01*
X139934Y159531D01*
X136122Y163342D01*
Y189659D01*
X136622Y189708D01*
X136661Y189512D01*
X136993Y189016D01*
X152725Y173284D01*
X153221Y172952D01*
X153806Y172836D01*
X154507D01*
X154559Y172784D01*
X154594Y172770D01*
X154623Y172746D01*
X154778Y172696D01*
X154928Y172634D01*
X154965Y172635D01*
X155001Y172623D01*
X155163Y172636D01*
X155326Y172637D01*
X155360Y172652D01*
X155398Y172655D01*
X155543Y172729D01*
X155544Y172729D01*
X155940Y172651D01*
X156525Y172767D01*
X157021Y173099D01*
X157353Y173595D01*
X157469Y174180D01*
X157432Y174370D01*
X157857Y174795D01*
X158080Y174751D01*
X158665Y174867D01*
X159161Y175199D01*
X159493Y175695D01*
X159609Y176280D01*
X159493Y176865D01*
X159161Y177361D01*
X159051Y177472D01*
X159035Y177595D01*
X159018Y177623D01*
X159012Y177654D01*
X158919Y177794D01*
X158835Y177939D01*
X158809Y177958D01*
X158791Y177985D01*
X158652Y178078D01*
X158518Y178180D01*
X158487Y178188D01*
X158460Y178206D01*
X158296Y178239D01*
X158289Y178241D01*
X158283Y178244D01*
X158271Y178253D01*
X158262Y178261D01*
X156734Y179789D01*
Y190597D01*
X157335D01*
X157343Y191610D01*
X157544Y191611D01*
Y196535D01*
X156534D01*
Y200217D01*
X156586Y200277D01*
X156810Y200410D01*
X157310Y200141D01*
D02*
G37*
G36*
X155120Y173636D02*
X155086Y173679D01*
X155043Y173718D01*
X154993Y173753D01*
X154934Y173783D01*
X154868Y173808D01*
X154794Y173829D01*
X154711Y173845D01*
X154621Y173856D01*
X154523Y173863D01*
X154417Y173865D01*
X154643Y174865D01*
X154751Y174867D01*
X155029Y174885D01*
X155106Y174896D01*
X155238Y174926D01*
X155293Y174944D01*
X155340Y174966D01*
X155379Y174989D01*
X155120Y173636D01*
D02*
G37*
G36*
X22119Y203369D02*
Y193390D01*
X22243Y192766D01*
X22596Y192236D01*
X26895Y187938D01*
X26933Y187881D01*
X26957Y187813D01*
X27043Y187717D01*
X27115Y187609D01*
X27174Y187569D01*
X27221Y187516D01*
X27338Y187460D01*
X27444Y187389D01*
X27667Y187167D01*
X28196Y186813D01*
X28820Y186689D01*
X29444Y186813D01*
X29491Y186844D01*
X29991Y186577D01*
Y179503D01*
X30185Y178528D01*
X30500Y178056D01*
Y155740D01*
X30578Y155350D01*
X30799Y155019D01*
X31130Y154798D01*
X31520Y154720D01*
X36560D01*
X36715Y154751D01*
X36871Y154769D01*
X36908Y154790D01*
X36950Y154798D01*
X37081Y154886D01*
X37219Y154962D01*
X37246Y154995D01*
X37281Y155019D01*
X37363Y155142D01*
X42044D01*
Y155271D01*
X44489D01*
X49125Y150634D01*
X49952Y150082D01*
X50928Y149888D01*
X51748D01*
X51757Y149887D01*
Y145850D01*
X56365D01*
X56375Y145848D01*
X61319D01*
X71396Y135771D01*
X71205Y135309D01*
X65325D01*
X64740Y135193D01*
X64243Y134861D01*
X62886Y133504D01*
X62276Y133601D01*
X62230Y133670D01*
X61904Y133887D01*
X61520Y133964D01*
X61136Y133887D01*
X60810Y133670D01*
X60593Y133344D01*
X60517Y132960D01*
X60593Y132576D01*
X60600Y132565D01*
X60333Y132065D01*
X51937D01*
X51842Y132129D01*
X51257Y132245D01*
X49288D01*
X48987Y132745D01*
X49069Y133160D01*
X48953Y133745D01*
X48621Y134241D01*
X48511Y134352D01*
X48495Y134475D01*
X48478Y134503D01*
X48472Y134534D01*
X48379Y134674D01*
X48295Y134819D01*
X48269Y134838D01*
X48251Y134865D01*
X48112Y134958D01*
X47978Y135060D01*
X47947Y135068D01*
X47920Y135086D01*
X47756Y135119D01*
X47749Y135121D01*
X47743Y135124D01*
X47731Y135133D01*
X47722Y135141D01*
X46221Y136641D01*
X45725Y136973D01*
X45140Y137089D01*
X30520D01*
X29935Y136973D01*
X29439Y136641D01*
X29107Y136145D01*
X28991Y135560D01*
X29107Y134975D01*
X29439Y134479D01*
X29935Y134147D01*
X30520Y134031D01*
X44506D01*
X45563Y132974D01*
X45576Y132957D01*
X45579Y132951D01*
X45581Y132944D01*
X45614Y132780D01*
X45632Y132753D01*
X45640Y132722D01*
X45699Y132644D01*
X45706Y132591D01*
X45692Y132411D01*
X45658Y132202D01*
X45548Y132047D01*
X45174Y131797D01*
X43659Y130281D01*
X43327Y129785D01*
X43211Y129200D01*
X43327Y128615D01*
X43659Y128119D01*
X44155Y127787D01*
X44740Y127671D01*
X45325Y127787D01*
X45821Y128119D01*
X46889Y129186D01*
X48224D01*
X48376Y128686D01*
X48279Y128621D01*
X47947Y128125D01*
X47831Y127540D01*
X47940Y126989D01*
X47935Y126878D01*
X47728Y126489D01*
X43252D01*
X41559Y128181D01*
X41063Y128513D01*
X40478Y128629D01*
X25774D01*
X23768Y130635D01*
X23807Y130779D01*
X23802Y130811D01*
X23809Y130843D01*
X23776Y131007D01*
X23753Y131174D01*
X23737Y131202D01*
X23731Y131233D01*
X23638Y131373D01*
X23634Y131379D01*
X23633Y131385D01*
X23630Y131400D01*
X23629Y131412D01*
Y161253D01*
X24131Y161755D01*
X24172Y161788D01*
X24184Y161797D01*
X24188Y161800D01*
X24200Y161805D01*
X24211Y161812D01*
X24220Y161818D01*
X24225Y161821D01*
X24244Y161829D01*
X24404Y161885D01*
X24427Y161906D01*
X24455Y161917D01*
X24574Y162037D01*
X24701Y162150D01*
X24714Y162178D01*
X24736Y162199D01*
X24800Y162356D01*
X24874Y162508D01*
X24876Y162539D01*
X24887Y162567D01*
X24887Y162574D01*
X25093Y162882D01*
X25209Y163467D01*
Y163740D01*
X25093Y164325D01*
X24761Y164821D01*
X24265Y165153D01*
X23680Y165269D01*
X23095Y165153D01*
X22599Y164821D01*
X22400Y164525D01*
X22332Y164506D01*
X22303Y164484D01*
X22269Y164472D01*
X22147Y164363D01*
X22017Y164263D01*
X21999Y164231D01*
X21973Y164207D01*
X21901Y164060D01*
X21820Y163917D01*
X21815Y163882D01*
X21800Y163849D01*
X21794Y163743D01*
X21260Y163210D01*
X20760Y163417D01*
Y173779D01*
X20605Y174559D01*
X20163Y175221D01*
X14582Y180802D01*
X13920Y181244D01*
X13140Y181399D01*
X12956Y181363D01*
X12569Y181680D01*
Y194614D01*
X13960Y196005D01*
X13992Y196021D01*
X14086Y196030D01*
X14511Y195737D01*
Y184620D01*
X14627Y184035D01*
X14959Y183539D01*
X23989Y174509D01*
X24027Y174315D01*
X24359Y173819D01*
X24855Y173487D01*
X25440Y173371D01*
X26025Y173487D01*
X26521Y173819D01*
X26853Y174315D01*
X26873Y174415D01*
X26953Y174535D01*
X27069Y175120D01*
X26953Y175705D01*
X26621Y176201D01*
X17569Y185254D01*
Y196034D01*
X17573Y196055D01*
X17574Y196061D01*
X17578Y196067D01*
X17671Y196207D01*
X17677Y196239D01*
X17693Y196266D01*
X17716Y196433D01*
X17749Y196597D01*
X17742Y196629D01*
X17747Y196661D01*
X17704Y196823D01*
X17671Y196987D01*
X17653Y197014D01*
X17645Y197045D01*
X17569Y197144D01*
Y197300D01*
X17453Y197885D01*
X17121Y198381D01*
X17063Y198420D01*
X17015Y198918D01*
X21657Y203560D01*
X22119Y203369D01*
D02*
G37*
G36*
X51921Y176032D02*
X52182Y175930D01*
X52397Y175792D01*
X52600Y175598D01*
X52693Y175477D01*
X52743Y175434D01*
X52779Y175379D01*
X53267Y174892D01*
X53267Y174892D01*
X53386Y174812D01*
X53496Y174719D01*
X53550Y174702D01*
X53597Y174671D01*
X53738Y174643D01*
X53784Y174628D01*
Y170320D01*
X53502Y169937D01*
X53474Y169908D01*
X53258Y169584D01*
X53219Y169491D01*
X53163Y169408D01*
X53014Y169048D01*
X52995Y168949D01*
X52969Y168888D01*
X52900Y168897D01*
X52228Y168808D01*
X51601Y168549D01*
X51064Y168136D01*
X50651Y167598D01*
X50392Y166972D01*
X50303Y166300D01*
X50392Y165628D01*
X50651Y165001D01*
X51064Y164464D01*
X51601Y164051D01*
X52228Y163792D01*
X52900Y163703D01*
X53248Y163749D01*
X53748Y163360D01*
Y160619D01*
X53741Y160581D01*
X53748Y160543D01*
Y160533D01*
X53744Y160497D01*
X53748Y160483D01*
Y159569D01*
X54126D01*
X54144Y159324D01*
Y156328D01*
X54020Y156143D01*
X53826Y155168D01*
Y154986D01*
X51983D01*
X47347Y159623D01*
X46520Y160175D01*
X45544Y160369D01*
X42044D01*
Y160685D01*
X38936D01*
X38521Y160890D01*
Y169976D01*
X37620D01*
Y170980D01*
X37542Y171370D01*
X37366Y171633D01*
X37310Y171592D01*
X37360Y171642D01*
X37321Y171701D01*
X36990Y171922D01*
X36600Y172000D01*
X36511D01*
Y173680D01*
X36600D01*
X36990Y173758D01*
X37321Y173979D01*
X37542Y174310D01*
X37615Y174674D01*
X37802Y174799D01*
X38081Y174915D01*
X39658Y173338D01*
X40320Y172896D01*
X41100Y172741D01*
X49280D01*
X50060Y172896D01*
X50722Y173338D01*
X50742Y173358D01*
X51184Y174020D01*
X51339Y174800D01*
X51192Y175540D01*
X51203Y175659D01*
X51407Y176040D01*
X51884D01*
X51921Y176032D01*
D02*
G37*
G36*
X23887Y162764D02*
X23839Y162754D01*
X23787Y162737D01*
X23733Y162713D01*
X23675Y162682D01*
X23614Y162643D01*
X23550Y162597D01*
X23412Y162484D01*
X23339Y162416D01*
X23262Y162341D01*
X22439Y162933D01*
X22512Y163009D01*
X22633Y163155D01*
X22681Y163225D01*
X22720Y163292D01*
X22751Y163357D01*
X22773Y163420D01*
X22786Y163480D01*
X22791Y163538D01*
X22787Y163594D01*
X23887Y162764D01*
D02*
G37*
G36*
X58275Y160551D02*
X58270Y160461D01*
X58253Y157581D01*
X55253D01*
X55248Y158151D01*
X55130Y159831D01*
X55076Y160101D01*
X55012Y160311D01*
X54938Y160461D01*
X54854Y160551D01*
X54760Y160581D01*
X58280D01*
X58275Y160551D01*
D02*
G37*
G36*
X99081Y157820D02*
X99102Y157474D01*
X99112Y157412D01*
X99124Y157360D01*
X99137Y157317D01*
X99152Y157285D01*
X99169Y157263D01*
X97791D01*
X97808Y157285D01*
X97823Y157317D01*
X97836Y157360D01*
X97848Y157412D01*
X97858Y157474D01*
X97872Y157627D01*
X97879Y157820D01*
X97880Y157931D01*
X99080D01*
X99081Y157820D01*
D02*
G37*
G36*
X79391Y187155D02*
X79359Y186990D01*
Y186663D01*
X79352Y186633D01*
X79306Y186514D01*
X79307Y186441D01*
X79291Y186370D01*
X79312Y186244D01*
X79315Y186116D01*
X79344Y186049D01*
X79352Y186003D01*
X79359Y185909D01*
Y175583D01*
X79347Y175534D01*
X79315Y175473D01*
X79303Y175342D01*
X79274Y175215D01*
X79285Y175146D01*
X79279Y175076D01*
X79318Y174951D01*
X79339Y174822D01*
X79359Y174791D01*
Y174490D01*
X79483Y173866D01*
X79836Y173337D01*
X79866Y173307D01*
X80396Y172953D01*
X81020Y172829D01*
X81644Y172953D01*
X82174Y173307D01*
X82222Y173379D01*
X82892Y173481D01*
X82989Y173403D01*
Y156040D01*
X82893Y155923D01*
X69235D01*
X68220Y156939D01*
X68269Y157436D01*
X68433Y157546D01*
X68787Y158076D01*
X68911Y158700D01*
Y161412D01*
X68787Y162037D01*
X68433Y162566D01*
X68033Y162967D01*
Y187100D01*
X67999Y187268D01*
X68317Y187655D01*
X78981D01*
X79391Y187155D01*
D02*
G37*
G36*
X134950Y152414D02*
X134888Y152397D01*
X134831Y152369D01*
X134782Y152333D01*
X134739Y152287D01*
X134703Y152232D01*
X134673Y152167D01*
X134650Y152093D01*
X134633Y152010D01*
X134623Y151917D01*
X134620Y151815D01*
X133820Y151967D01*
X133814Y153107D01*
X134950Y152414D01*
D02*
G37*
G36*
X52769Y153925D02*
Y150595D01*
X52751Y150660D01*
X52695Y150718D01*
X52603Y150770D01*
X52474Y150814D01*
X52309Y150852D01*
X52106Y150882D01*
X51591Y150923D01*
X50928Y150937D01*
Y153937D01*
X52769Y153925D01*
D02*
G37*
G36*
X92525Y151252D02*
X92558Y151237D01*
X92600Y151224D01*
X92652Y151212D01*
X92713Y151202D01*
X92867Y151188D01*
X93060Y151181D01*
X93171Y151180D01*
Y149980D01*
X93060Y149979D01*
X92713Y149958D01*
X92652Y149948D01*
X92600Y149936D01*
X92558Y149923D01*
X92525Y149908D01*
X92503Y149891D01*
Y151269D01*
X92525Y151252D01*
D02*
G37*
G36*
X126577Y145451D02*
X126536Y145487D01*
X126488Y145519D01*
X126433Y145547D01*
X126371Y145572D01*
X126301Y145593D01*
X126223Y145610D01*
X126139Y145623D01*
X126047Y145632D01*
X125842Y145640D01*
Y146640D01*
X125948Y146642D01*
X126139Y146657D01*
X126223Y146670D01*
X126301Y146687D01*
X126371Y146708D01*
X126433Y146733D01*
X126488Y146761D01*
X126536Y146793D01*
X126577Y146829D01*
Y145451D01*
D02*
G37*
G36*
X113096Y186832D02*
X113047Y186335D01*
X112806Y186174D01*
X112342Y185479D01*
X112179Y184660D01*
X112342Y183841D01*
X112806Y183146D01*
X113619Y182333D01*
Y157080D01*
X113782Y156261D01*
X114246Y155566D01*
X114941Y155102D01*
X115760Y154939D01*
X116579Y155102D01*
X117274Y155566D01*
X117738Y156261D01*
X117901Y157080D01*
Y181374D01*
X118363Y181565D01*
X125966Y173962D01*
Y154724D01*
X126083Y154139D01*
X126128Y154071D01*
X126167Y153875D01*
X126499Y153379D01*
X129495Y150382D01*
Y134810D01*
X129007Y134322D01*
X128580Y134037D01*
X125883Y131340D01*
X125552Y130844D01*
X125435Y130259D01*
Y118345D01*
X125473Y118157D01*
Y116263D01*
X129312D01*
Y115114D01*
X125473D01*
Y113219D01*
X125435Y113031D01*
Y110417D01*
X125552Y109832D01*
X125883Y109336D01*
X129299Y105921D01*
X129795Y105589D01*
X130380Y105473D01*
X131189D01*
X141107Y95554D01*
X141415Y95349D01*
X141415Y95348D01*
X141411Y94790D01*
X141099Y94581D01*
X140767Y94085D01*
X140651Y93500D01*
Y93344D01*
X140575Y93245D01*
X140567Y93214D01*
X140549Y93187D01*
X140516Y93023D01*
X140473Y92861D01*
X140478Y92829D01*
X140471Y92797D01*
X140504Y92633D01*
X140527Y92466D01*
X140543Y92439D01*
X140549Y92407D01*
X140642Y92267D01*
X140646Y92261D01*
X140647Y92255D01*
X140650Y92240D01*
X140651Y92228D01*
Y85246D01*
X140647Y85225D01*
X140646Y85219D01*
X140642Y85213D01*
X140549Y85073D01*
X140543Y85041D01*
X140527Y85014D01*
X140504Y84847D01*
X140471Y84683D01*
X140478Y84651D01*
X140473Y84619D01*
X140516Y84457D01*
X140549Y84293D01*
X140567Y84266D01*
X140575Y84235D01*
X140651Y84136D01*
Y83980D01*
X140767Y83395D01*
X141099Y82899D01*
X141595Y82567D01*
X142180Y82451D01*
X142765Y82567D01*
X143261Y82899D01*
X143593Y83395D01*
X143709Y83980D01*
Y84136D01*
X143785Y84235D01*
X143793Y84266D01*
X143811Y84293D01*
X143844Y84457D01*
X143887Y84619D01*
X143882Y84651D01*
X143889Y84683D01*
X143856Y84847D01*
X143833Y85014D01*
X143817Y85041D01*
X143811Y85073D01*
X143718Y85213D01*
X143714Y85219D01*
X143713Y85225D01*
X143710Y85240D01*
X143709Y85252D01*
Y92234D01*
X143713Y92255D01*
X143714Y92261D01*
X143718Y92267D01*
X143811Y92407D01*
X143817Y92439D01*
X143833Y92466D01*
X143856Y92633D01*
X143889Y92797D01*
X143882Y92829D01*
X143887Y92861D01*
X143844Y93023D01*
X143811Y93187D01*
X143793Y93214D01*
X143785Y93245D01*
X143709Y93344D01*
Y93500D01*
X143593Y94085D01*
X143261Y94581D01*
X143224Y94606D01*
X143376Y95106D01*
X178183D01*
X178769Y95223D01*
X179265Y95554D01*
X184755Y101045D01*
X185217Y100854D01*
Y99901D01*
X180018Y94702D01*
X179576Y94041D01*
X179421Y93260D01*
Y76505D01*
X173275Y70359D01*
X169419D01*
X168652Y71126D01*
X167991Y71568D01*
X167210Y71723D01*
X165070D01*
X164567Y71623D01*
X152417D01*
X151637Y71468D01*
X150975Y71026D01*
X149988Y70039D01*
X136915D01*
X136724Y70501D01*
X137313Y71091D01*
X144340D01*
X144925Y71207D01*
X145421Y71539D01*
X145753Y72035D01*
X145869Y72620D01*
X145753Y73205D01*
X145421Y73701D01*
X144925Y74033D01*
X144340Y74149D01*
X143749D01*
X143486Y74649D01*
X143569Y74771D01*
X144507D01*
X145092Y74887D01*
X145588Y75219D01*
X145920Y75715D01*
X146036Y76300D01*
X145920Y76885D01*
X145588Y77381D01*
X145329Y77554D01*
X145435Y78085D01*
X145645Y78127D01*
X146141Y78459D01*
X146473Y78955D01*
X146589Y79540D01*
X146473Y80125D01*
X146141Y80621D01*
X145645Y80953D01*
X145060Y81069D01*
X138447D01*
X137862Y80953D01*
X137365Y80621D01*
X135740Y78996D01*
X135718Y78981D01*
X134811Y78075D01*
X133505D01*
X132920Y77958D01*
X132424Y77627D01*
X130707Y75909D01*
X93109D01*
X85785Y83233D01*
Y84415D01*
X85669Y85000D01*
X85337Y85496D01*
X78425Y92409D01*
X77928Y92740D01*
X77343Y92857D01*
X61233D01*
Y99273D01*
X61233Y99353D01*
X61426Y99773D01*
X63214D01*
X63222Y99765D01*
X63376Y99670D01*
X63527Y99569D01*
X63544Y99566D01*
X63560Y99556D01*
X63739Y99527D01*
X63917Y99491D01*
X63935Y99495D01*
X63952Y99492D01*
X64129Y99534D01*
X64307Y99569D01*
X64322Y99579D01*
X64340Y99583D01*
X64487Y99689D01*
X64612Y99773D01*
X64620D01*
X65166Y99881D01*
X65629Y100191D01*
X65939Y100654D01*
X66047Y101200D01*
X65939Y101746D01*
X65629Y102209D01*
X65166Y102519D01*
X64620Y102627D01*
X64612D01*
X64487Y102711D01*
X64340Y102817D01*
X64322Y102821D01*
X64307Y102831D01*
X64129Y102866D01*
X63952Y102908D01*
X63935Y102905D01*
X63917Y102909D01*
X63739Y102873D01*
X63560Y102844D01*
X63544Y102834D01*
X63527Y102831D01*
X63376Y102730D01*
X63222Y102635D01*
X63214Y102627D01*
X51328D01*
X51061Y103127D01*
X51226Y103374D01*
X51338Y103940D01*
X51226Y104506D01*
X50905Y104985D01*
X50846Y105045D01*
X50835Y105097D01*
X50809Y105271D01*
X50797Y105291D01*
X50792Y105314D01*
X50694Y105461D01*
X50603Y105611D01*
X50584Y105625D01*
X50571Y105645D01*
X50425Y105743D01*
X50283Y105847D01*
X50260Y105853D01*
X50240Y105866D01*
X50068Y105901D01*
X49976Y105923D01*
X49975Y105924D01*
X49969Y105925D01*
X49950Y105941D01*
X46845Y109045D01*
X46366Y109366D01*
X45800Y109478D01*
X44319D01*
X44307Y109481D01*
X44301Y109484D01*
X44300Y109485D01*
X44219Y109533D01*
X44073Y109631D01*
X44050Y109636D01*
X44029Y109648D01*
X43855Y109674D01*
X43683Y109709D01*
X43660Y109704D01*
X43636Y109707D01*
X43465Y109665D01*
X43293Y109631D01*
X43273Y109618D01*
X43250Y109612D01*
X43108Y109508D01*
X43064Y109478D01*
X42980D01*
X42414Y109366D01*
X41935Y109045D01*
X41614Y108566D01*
X41502Y108000D01*
X41614Y107434D01*
X41935Y106955D01*
X42414Y106634D01*
X42980Y106522D01*
X43064D01*
X43108Y106492D01*
X43250Y106388D01*
X43273Y106382D01*
X43293Y106369D01*
X43465Y106335D01*
X43636Y106292D01*
X43660Y106296D01*
X43683Y106291D01*
X43855Y106326D01*
X44029Y106352D01*
X44050Y106364D01*
X44073Y106369D01*
X44219Y106467D01*
X44300Y106515D01*
X44301Y106516D01*
X44307Y106519D01*
X44332Y106522D01*
X45188D01*
X47868Y103841D01*
X47875Y103831D01*
X47876Y103825D01*
X47877Y103824D01*
X47899Y103732D01*
X47934Y103560D01*
X47947Y103540D01*
X47953Y103517D01*
X48057Y103375D01*
X48155Y103229D01*
X48175Y103216D01*
X48189Y103197D01*
X48303Y103127D01*
X48318Y103060D01*
X48079Y102627D01*
X44451D01*
X42623Y104455D01*
X42623Y104465D01*
X42582Y104642D01*
X42546Y104820D01*
X42536Y104835D01*
X42532Y104853D01*
X42426Y105000D01*
X42325Y105151D01*
X42310Y105161D01*
X42300Y105176D01*
X42145Y105271D01*
X41994Y105372D01*
X41977Y105376D01*
X41962Y105385D01*
X41782Y105414D01*
X41635Y105444D01*
X41629Y105449D01*
X41166Y105759D01*
X40620Y105867D01*
X40074Y105759D01*
X39611Y105449D01*
X39301Y104986D01*
X39193Y104440D01*
X39301Y103894D01*
X39611Y103431D01*
X39616Y103425D01*
X39646Y103278D01*
X39675Y103098D01*
X39684Y103083D01*
X39688Y103066D01*
X39789Y102915D01*
X39884Y102760D01*
X39899Y102750D01*
X39909Y102735D01*
X40060Y102634D01*
X40207Y102528D01*
X40225Y102524D01*
X40240Y102514D01*
X40418Y102478D01*
X40595Y102437D01*
X40605Y102436D01*
X42851Y100191D01*
X42851Y100191D01*
X43314Y99881D01*
X43457Y99853D01*
X43408Y99353D01*
X42207D01*
Y92857D01*
X38973D01*
Y99353D01*
X31067D01*
Y92857D01*
X27953D01*
Y99333D01*
X20929D01*
Y115120D01*
X20813Y115705D01*
X20481Y116201D01*
X19985Y116533D01*
X19400Y116649D01*
X18815Y116533D01*
X18565Y116366D01*
X18065Y116633D01*
Y118561D01*
X18165Y119063D01*
Y119242D01*
X19026Y120103D01*
X19043Y120116D01*
X19049Y120119D01*
X19056Y120121D01*
X19220Y120154D01*
X19247Y120172D01*
X19278Y120180D01*
X19412Y120282D01*
X19551Y120375D01*
X19569Y120402D01*
X19595Y120421D01*
X19679Y120566D01*
X19772Y120706D01*
X19778Y120737D01*
X19795Y120765D01*
X19811Y120888D01*
X19921Y120999D01*
X20253Y121495D01*
X20260Y121530D01*
X20802Y121695D01*
X22191Y120307D01*
Y108320D01*
X22307Y107735D01*
X22639Y107239D01*
X23135Y106907D01*
X23720Y106791D01*
X24305Y106907D01*
X24801Y107239D01*
X25133Y107735D01*
X25249Y108320D01*
Y120940D01*
X25133Y121525D01*
X24855Y121941D01*
X25005Y122441D01*
X36739D01*
X43641Y115538D01*
X44303Y115096D01*
X45083Y114941D01*
X63815D01*
X68178Y110578D01*
X68840Y110136D01*
X69620Y109981D01*
X75860D01*
X76640Y110136D01*
X77302Y110578D01*
X77744Y111240D01*
X77899Y112020D01*
X77744Y112800D01*
X77302Y113462D01*
X76640Y113904D01*
X75860Y114059D01*
X70465D01*
X68594Y115930D01*
X68785Y116392D01*
X78001D01*
X78586Y116508D01*
X79083Y116840D01*
X79414Y117336D01*
X79531Y117921D01*
X79414Y118506D01*
X79083Y119002D01*
X78586Y119334D01*
X78001Y119450D01*
X68815D01*
X68792Y119485D01*
X69060Y119985D01*
X87418D01*
X88141Y120080D01*
X88815Y120359D01*
X89394Y120804D01*
X89838Y121383D01*
X90118Y122057D01*
X90213Y122781D01*
Y122833D01*
X91669D01*
Y119977D01*
X91592Y119395D01*
X91681Y118722D01*
X91940Y118096D01*
X92353Y117558D01*
X92891Y117146D01*
X93517Y116886D01*
X94189Y116798D01*
X94554Y116846D01*
X99386D01*
X99782Y116924D01*
X102018D01*
Y114375D01*
X102204Y113438D01*
X102284Y113319D01*
Y108421D01*
X102276Y108383D01*
X102284Y108345D01*
Y107371D01*
X101850Y107284D01*
Y107125D01*
X101685Y106694D01*
X100711D01*
X100673Y106701D01*
X100635Y106694D01*
X99441D01*
X99244Y106733D01*
X97030D01*
X96881Y106746D01*
X96667Y106782D01*
X96516Y106822D01*
X96488Y106833D01*
Y107496D01*
X96458Y107451D01*
X96031Y107864D01*
X95949Y107934D01*
X90551D01*
Y102391D01*
X95441D01*
X95480Y102383D01*
X95501Y102387D01*
X95523Y102384D01*
X95549Y102391D01*
X96488D01*
Y102391D01*
X96988Y102442D01*
X97166Y102332D01*
Y102332D01*
X98067D01*
X98075Y102329D01*
X98100Y102332D01*
X98139D01*
X98177Y102324D01*
X98216Y102332D01*
X100635D01*
X100673Y102324D01*
X100711Y102332D01*
X101685D01*
X101850Y101900D01*
Y101741D01*
X102824D01*
X102863Y101734D01*
X102901Y101741D01*
X107000Y101741D01*
X107152Y101304D01*
Y98309D01*
X104554Y95710D01*
X96211D01*
X95236Y95517D01*
X94409Y94964D01*
X90318Y90872D01*
X89765Y90045D01*
X89571Y89070D01*
Y87440D01*
Y82760D01*
X89765Y81785D01*
X90318Y80958D01*
X91145Y80405D01*
X92120Y80211D01*
X93095Y80405D01*
X93922Y80958D01*
X94475Y81785D01*
X94669Y82760D01*
Y88014D01*
X97267Y90613D01*
X105609D01*
X106585Y90807D01*
X107412Y91359D01*
X111503Y95451D01*
X112056Y96278D01*
X112250Y97253D01*
Y101286D01*
X112280Y101741D01*
X112512D01*
Y102715D01*
X112520Y102753D01*
X112512Y102791D01*
Y102817D01*
X112515Y102848D01*
X112512Y102859D01*
Y106167D01*
X112515Y106178D01*
X112512Y106208D01*
Y106234D01*
X112520Y106272D01*
X112512Y106311D01*
Y107284D01*
X112320D01*
X112250Y108339D01*
Y109906D01*
X112056Y110882D01*
X111961Y111024D01*
Y112088D01*
X110937D01*
X110676Y112261D01*
X109701Y112455D01*
X108726Y112261D01*
X108465Y112088D01*
X107441D01*
Y111024D01*
X107346Y110882D01*
X107152Y109906D01*
Y108210D01*
X106652Y107787D01*
X106646Y107788D01*
Y108345D01*
X106653Y108383D01*
X106646Y108421D01*
Y108492D01*
X106647Y108501D01*
X106646Y108503D01*
Y113319D01*
X106726Y113438D01*
X106912Y114375D01*
Y118341D01*
X107017Y118498D01*
X107211Y119473D01*
X107017Y120449D01*
X106843Y120709D01*
Y121733D01*
X105779D01*
X105637Y121828D01*
X104662Y122022D01*
X99465D01*
X99069Y121944D01*
X96767D01*
Y122765D01*
X98929D01*
Y131851D01*
X91811D01*
Y127931D01*
X89678D01*
X89394Y128300D01*
X88815Y128745D01*
X88141Y129024D01*
X87418Y129119D01*
X83759D01*
X83737Y129154D01*
X82745Y130201D01*
X82663Y130260D01*
X82593Y130333D01*
X81416Y131166D01*
X81323Y131207D01*
X81241Y131265D01*
X80401Y131638D01*
Y131751D01*
X80323Y132141D01*
X80102Y132472D01*
X79771Y132693D01*
X79555Y132736D01*
Y133766D01*
X79361Y134741D01*
X78809Y135568D01*
X64178Y150200D01*
X63350Y150752D01*
X62375Y150946D01*
X59257D01*
X58923Y151446D01*
X58924Y151453D01*
Y154295D01*
X59108Y154570D01*
X59302Y155546D01*
Y162144D01*
X59292Y162196D01*
Y164719D01*
X59292D01*
X59507Y165130D01*
X59557Y165184D01*
X59594Y165245D01*
X59645Y165295D01*
X59696Y165414D01*
X59763Y165524D01*
X59774Y165595D01*
X59803Y165661D01*
X59857Y165918D01*
X59859Y166025D01*
X59880Y166130D01*
X59880Y174670D01*
X59879Y174670D01*
Y174673D01*
X59878Y174682D01*
X59879Y174691D01*
X59871Y175160D01*
X59852Y175249D01*
Y175341D01*
X59849Y175353D01*
X60304Y175628D01*
X60563Y175427D01*
Y158498D01*
X60680Y157913D01*
X61011Y157417D01*
X66716Y151712D01*
X67212Y151381D01*
X67652Y151293D01*
X73886Y145059D01*
X74383Y144727D01*
X74968Y144611D01*
X119095D01*
X119144Y144111D01*
X118955Y144073D01*
X118459Y143741D01*
X118348Y143631D01*
X118225Y143615D01*
X118197Y143598D01*
X118166Y143592D01*
X118026Y143499D01*
X117881Y143415D01*
X117862Y143389D01*
X117835Y143371D01*
X117742Y143232D01*
X117640Y143098D01*
X117632Y143067D01*
X117614Y143040D01*
X117581Y142876D01*
X117579Y142869D01*
X117576Y142863D01*
X117567Y142851D01*
X117559Y142842D01*
X113747Y139029D01*
X83426D01*
X83405Y139033D01*
X83399Y139034D01*
X83393Y139038D01*
X83253Y139131D01*
X83222Y139137D01*
X83194Y139153D01*
X83027Y139176D01*
X82863Y139209D01*
X82831Y139202D01*
X82799Y139207D01*
X82637Y139164D01*
X82473Y139131D01*
X82446Y139113D01*
X82415Y139105D01*
X82316Y139029D01*
X82160D01*
X81575Y138913D01*
X81079Y138581D01*
X80747Y138085D01*
X80631Y137500D01*
X80747Y136915D01*
X81079Y136419D01*
X81575Y136087D01*
X82160Y135971D01*
X82316D01*
X82415Y135895D01*
X82446Y135887D01*
X82473Y135869D01*
X82637Y135836D01*
X82799Y135793D01*
X82831Y135798D01*
X82863Y135791D01*
X83027Y135824D01*
X83194Y135847D01*
X83222Y135863D01*
X83253Y135869D01*
X83393Y135962D01*
X83399Y135966D01*
X83405Y135967D01*
X83420Y135970D01*
X83432Y135971D01*
X114380D01*
X114965Y136087D01*
X115461Y136419D01*
X119726Y140683D01*
X119743Y140696D01*
X119749Y140699D01*
X119756Y140701D01*
X119920Y140734D01*
X119947Y140752D01*
X119978Y140760D01*
X120112Y140862D01*
X120251Y140955D01*
X120269Y140982D01*
X120295Y141001D01*
X120379Y141146D01*
X120472Y141286D01*
X120478Y141317D01*
X120495Y141345D01*
X120511Y141468D01*
X120621Y141579D01*
X120953Y142075D01*
X121069Y142660D01*
X120953Y143245D01*
X120621Y143741D01*
X120125Y144073D01*
X119936Y144111D01*
X119985Y144611D01*
X126014D01*
X126035Y144607D01*
X126041Y144606D01*
X126047Y144602D01*
X126187Y144509D01*
X126218Y144503D01*
X126246Y144487D01*
X126413Y144464D01*
X126577Y144431D01*
X126609Y144438D01*
X126641Y144433D01*
X126803Y144476D01*
X126967Y144509D01*
X126994Y144527D01*
X127025Y144535D01*
X127124Y144611D01*
X127280D01*
X127865Y144727D01*
X128361Y145059D01*
X128693Y145555D01*
X128809Y146140D01*
X128693Y146725D01*
X128361Y147221D01*
X127865Y147553D01*
X127280Y147669D01*
X127124D01*
X127025Y147745D01*
X126994Y147753D01*
X126967Y147771D01*
X126803Y147804D01*
X126641Y147847D01*
X126609Y147842D01*
X126577Y147849D01*
X126413Y147816D01*
X126246Y147793D01*
X126218Y147777D01*
X126187Y147771D01*
X126047Y147678D01*
X126041Y147674D01*
X126035Y147673D01*
X126020Y147670D01*
X126007Y147669D01*
X115526D01*
X115334Y148131D01*
X124016Y156813D01*
X124348Y157309D01*
X124464Y157895D01*
Y160812D01*
X124533Y160915D01*
X124649Y161500D01*
X124533Y162085D01*
X124201Y162581D01*
X123705Y162913D01*
X123120Y163029D01*
X122535Y162913D01*
X122039Y162581D01*
X121853Y162396D01*
X121522Y161900D01*
X121405Y161315D01*
Y158528D01*
X112902Y150025D01*
X100540D01*
X100349Y150487D01*
X109953Y160092D01*
X110307Y160621D01*
X110431Y161245D01*
Y183680D01*
X110307Y184304D01*
X109953Y184834D01*
X109424Y185187D01*
X108800Y185311D01*
X108176Y185187D01*
X107647Y184834D01*
X107293Y184304D01*
X107169Y183680D01*
X106679Y183705D01*
X106627Y183964D01*
X106273Y184494D01*
X105744Y184847D01*
X105120Y184971D01*
X104496Y184847D01*
X103966Y184494D01*
X103773Y184204D01*
X103242Y184309D01*
X103207Y184484D01*
X102854Y185013D01*
X102324Y185367D01*
X101700Y185491D01*
X101076Y185367D01*
X100547Y185013D01*
X100324Y184791D01*
X100218Y184720D01*
X100101Y184664D01*
X100054Y184611D01*
X99995Y184571D01*
X99923Y184463D01*
X99837Y184367D01*
X99813Y184300D01*
X99781Y184251D01*
X99758Y184225D01*
X97326Y181793D01*
X96973Y181264D01*
X96849Y180640D01*
Y157651D01*
X96835Y157583D01*
X96804Y157520D01*
X96797Y157390D01*
X96771Y157263D01*
X96785Y157193D01*
X96781Y157123D01*
X96824Y157000D01*
X96849Y156875D01*
Y156560D01*
X96973Y155936D01*
X97270Y155491D01*
X97174Y155178D01*
X97048Y154991D01*
X89540D01*
X88916Y154867D01*
X88386Y154514D01*
X87266Y153393D01*
X87164Y153240D01*
X86666Y153191D01*
X85571Y154286D01*
X85620Y154784D01*
X85773Y154886D01*
X86127Y155416D01*
X86251Y156040D01*
Y185106D01*
X86840Y185695D01*
X87194Y186224D01*
X87318Y186848D01*
Y187056D01*
X87275Y187268D01*
X87593Y187655D01*
X112274D01*
X113096Y186832D01*
D02*
G37*
G36*
X119530Y141676D02*
X119476Y141672D01*
X119419Y141661D01*
X119360Y141642D01*
X119299Y141615D01*
X119234Y141580D01*
X119168Y141538D01*
X119099Y141488D01*
X119027Y141429D01*
X118877Y141289D01*
X118169Y141997D01*
X118243Y142073D01*
X118368Y142219D01*
X118418Y142288D01*
X118461Y142354D01*
X118495Y142419D01*
X118522Y142480D01*
X118541Y142539D01*
X118552Y142596D01*
X118556Y142650D01*
X119530Y141676D01*
D02*
G37*
G36*
X172404Y141444D02*
X172416Y141307D01*
X172436Y141185D01*
X172464Y141080D01*
X172500Y140991D01*
X172544Y140917D01*
X172596Y140860D01*
X172656Y140820D01*
X172724Y140795D01*
X172800Y140786D01*
X171201Y140798D01*
X171277Y140806D01*
X171345Y140830D01*
X171405Y140870D01*
X171456Y140926D01*
X171500Y140998D01*
X171536Y141086D01*
X171564Y141190D01*
X171584Y141310D01*
X171596Y141446D01*
X171600Y141598D01*
X172400D01*
X172404Y141444D01*
D02*
G37*
G36*
X165614Y141606D02*
X165629Y141435D01*
X165654Y141283D01*
X165689Y141152D01*
X165734Y141041D01*
X165789Y140950D01*
X165854Y140878D01*
X165929Y140828D01*
X166014Y140797D01*
X166109Y140786D01*
X164272Y140798D01*
X164336Y140808D01*
X164393Y140838D01*
X164444Y140888D01*
X164487Y140958D01*
X164524Y141048D01*
X164555Y141158D01*
X164578Y141288D01*
X164595Y141438D01*
X164605Y141608D01*
X164609Y141798D01*
X165609D01*
X165614Y141606D01*
D02*
G37*
G36*
X158352Y141606D02*
X158367Y141435D01*
X158392Y141284D01*
X158427Y141152D01*
X158472Y141041D01*
X158527Y140950D01*
X158592Y140879D01*
X158667Y140828D01*
X158752Y140797D01*
X158847Y140786D01*
X157343Y140798D01*
X157344Y140808D01*
X157344Y140838D01*
X157347Y141798D01*
X158347D01*
X158352Y141606D01*
D02*
G37*
G36*
X137757Y141606D02*
X137772Y141434D01*
X137797Y141282D01*
X137832Y141150D01*
X137877Y141039D01*
X137932Y140948D01*
X137997Y140877D01*
X138072Y140827D01*
X138157Y140796D01*
X138252Y140786D01*
X136252D01*
X136347Y140796D01*
X136432Y140827D01*
X136507Y140877D01*
X136572Y140948D01*
X136627Y141039D01*
X136672Y141150D01*
X136707Y141282D01*
X136732Y141434D01*
X136747Y141606D01*
X136752Y141798D01*
X137752D01*
X137757Y141606D01*
D02*
G37*
G36*
X176445D02*
X176453Y141511D01*
X176611Y141520D01*
X176578Y141479D01*
X176549Y141430D01*
X176524Y141375D01*
X176501Y141311D01*
X176489Y141266D01*
X176520Y141150D01*
X176565Y141039D01*
X176620Y140948D01*
X176685Y140877D01*
X176760Y140827D01*
X176845Y140796D01*
X176940Y140786D01*
X176440D01*
X176440Y140780D01*
X175440Y140709D01*
X175438Y140786D01*
X174940D01*
X175035Y140796D01*
X175120Y140827D01*
X175195Y140877D01*
X175260Y140948D01*
X175315Y141039D01*
X175360Y141150D01*
X175375Y141207D01*
X175366Y141235D01*
X175340Y141296D01*
X175309Y141350D01*
X175274Y141397D01*
X175235Y141436D01*
X175421Y141448D01*
X175435Y141606D01*
X175440Y141798D01*
X176440D01*
X176445Y141606D01*
D02*
G37*
G36*
X82904Y138153D02*
X82952Y138121D01*
X83007Y138093D01*
X83069Y138068D01*
X83139Y138047D01*
X83217Y138030D01*
X83301Y138017D01*
X83393Y138008D01*
X83598Y138000D01*
Y137000D01*
X83492Y136998D01*
X83301Y136983D01*
X83217Y136970D01*
X83139Y136953D01*
X83069Y136932D01*
X83007Y136907D01*
X82952Y136879D01*
X82904Y136847D01*
X82863Y136811D01*
Y138189D01*
X82904Y138153D01*
D02*
G37*
G36*
X176625Y136887D02*
X176540Y136857D01*
X176464Y136806D01*
X176400Y136735D01*
X176345Y136644D01*
X176300Y136533D01*
X176265Y136401D01*
X176240Y136249D01*
X176225Y136077D01*
X176219Y135885D01*
X175220D01*
X175215Y136077D01*
X175199Y136249D01*
X175174Y136401D01*
X175139Y136533D01*
X175094Y136644D01*
X175040Y136735D01*
X174975Y136806D01*
X174899Y136857D01*
X174814Y136887D01*
X174720Y136897D01*
X176719D01*
X176625Y136887D01*
D02*
G37*
G36*
X166521D02*
X166436Y136857D01*
X166361Y136806D01*
X166296Y136735D01*
X166241Y136644D01*
X166196Y136533D01*
X166161Y136401D01*
X166136Y136249D01*
X166121Y136077D01*
X166116Y135885D01*
X165116D01*
X165111Y136077D01*
X165096Y136249D01*
X165071Y136401D01*
X165036Y136533D01*
X164991Y136644D01*
X164936Y136735D01*
X164871Y136806D01*
X164796Y136857D01*
X164711Y136887D01*
X164616Y136897D01*
X166616D01*
X166521Y136887D01*
D02*
G37*
G36*
X159996Y136885D02*
X159965Y136875D01*
X159938Y136845D01*
X159913Y136795D01*
X159892Y136725D01*
X159874Y136635D01*
X159860Y136525D01*
X159840Y136245D01*
X159834Y135885D01*
X158834D01*
X158829Y136077D01*
X158814Y136248D01*
X158789Y136400D01*
X158754Y136531D01*
X158709Y136642D01*
X158654Y136733D01*
X158589Y136804D01*
X158514Y136855D01*
X158429Y136886D01*
X158334Y136897D01*
X159996Y136885D01*
D02*
G37*
G36*
X156174Y136887D02*
X156089Y136857D01*
X156014Y136806D01*
X155949Y136735D01*
X155894Y136644D01*
X155849Y136533D01*
X155814Y136401D01*
X155789Y136249D01*
X155774Y136077D01*
X155769Y135885D01*
X154705D01*
X154700Y136077D01*
X154685Y136249D01*
X154660Y136401D01*
X154625Y136533D01*
X154580Y136644D01*
X154525Y136735D01*
X154460Y136806D01*
X154385Y136857D01*
X154300Y136887D01*
X154205Y136897D01*
X156269D01*
X156174Y136887D01*
D02*
G37*
G36*
X138418D02*
X138333Y136857D01*
X138258Y136806D01*
X138193Y136735D01*
X138138Y136644D01*
X138093Y136533D01*
X138058Y136401D01*
X138033Y136249D01*
X138018Y136077D01*
X138013Y135885D01*
X137013D01*
X137008Y136077D01*
X136993Y136249D01*
X136968Y136401D01*
X136933Y136533D01*
X136888Y136644D01*
X136833Y136735D01*
X136768Y136806D01*
X136693Y136857D01*
X136608Y136887D01*
X136513Y136897D01*
X138513D01*
X138418Y136887D01*
D02*
G37*
G36*
X187219Y206079D02*
X187715Y205747D01*
X188300Y205631D01*
X188885Y205747D01*
X188937Y205782D01*
X189378Y205546D01*
Y194176D01*
X189418D01*
Y191814D01*
Y191462D01*
X189378Y191367D01*
Y141041D01*
X189418Y140946D01*
Y140594D01*
Y138231D01*
X189362D01*
X186294Y135163D01*
X185794Y135370D01*
Y136656D01*
X185677Y137241D01*
X185346Y137737D01*
X184870Y138213D01*
X184842Y138231D01*
X182725D01*
Y140594D01*
Y140946D01*
X182994Y141597D01*
X183323Y141926D01*
X183329Y141958D01*
Y190449D01*
X183323Y190482D01*
X182994Y190811D01*
X182725Y191462D01*
Y191814D01*
Y194176D01*
X183182D01*
X183213Y194222D01*
X183329Y194807D01*
Y202323D01*
X183213Y202908D01*
X182881Y203404D01*
X175946Y210339D01*
X176137Y210802D01*
X182496D01*
X187219Y206079D01*
D02*
G37*
G36*
X46953Y134457D02*
X47099Y134332D01*
X47168Y134282D01*
X47234Y134239D01*
X47299Y134205D01*
X47360Y134178D01*
X47419Y134159D01*
X47476Y134148D01*
X47530Y134144D01*
X46556Y133170D01*
X46552Y133224D01*
X46541Y133281D01*
X46522Y133340D01*
X46495Y133401D01*
X46461Y133466D01*
X46418Y133532D01*
X46368Y133601D01*
X46309Y133673D01*
X46169Y133824D01*
X46876Y134531D01*
X46953Y134457D01*
D02*
G37*
G36*
X22602Y131472D02*
X22617Y131281D01*
X22630Y131197D01*
X22647Y131119D01*
X22668Y131050D01*
X22693Y130987D01*
X22721Y130932D01*
X22753Y130884D01*
X22789Y130843D01*
X21411D01*
X21447Y130884D01*
X21479Y130932D01*
X21507Y130987D01*
X21532Y131050D01*
X21553Y131119D01*
X21570Y131197D01*
X21583Y131281D01*
X21592Y131373D01*
X21600Y131578D01*
X22600D01*
X22602Y131472D01*
D02*
G37*
G36*
X68677Y130391D02*
X68636Y130427D01*
X68588Y130459D01*
X68533Y130487D01*
X68471Y130512D01*
X68401Y130533D01*
X68323Y130550D01*
X68239Y130563D01*
X68147Y130572D01*
X67942Y130580D01*
Y131580D01*
X68048Y131582D01*
X68239Y131597D01*
X68323Y131610D01*
X68401Y131627D01*
X68471Y131648D01*
X68533Y131673D01*
X68588Y131701D01*
X68636Y131733D01*
X68677Y131769D01*
Y130391D01*
D02*
G37*
G36*
X174190Y130509D02*
X173454D01*
Y130499D01*
X172954Y130329D01*
X172856Y130456D01*
X172318Y130869D01*
X171692Y131129D01*
X171020Y131217D01*
X170348Y131129D01*
X169721Y130869D01*
X169184Y130456D01*
X168771Y129919D01*
X168511Y129292D01*
X168423Y128620D01*
X168511Y127948D01*
X168771Y127322D01*
X169184Y126784D01*
X169721Y126371D01*
X170348Y126111D01*
X171020Y126023D01*
X171692Y126111D01*
X172318Y126371D01*
X172580Y126572D01*
X172643Y126600D01*
X172663Y126620D01*
X172687Y126633D01*
X172755Y126687D01*
X172792Y126712D01*
X172835Y126735D01*
X172885Y126757D01*
X172943Y126778D01*
X172954Y126781D01*
X173124Y126722D01*
X173300Y126604D01*
X173424Y126480D01*
X173454Y126438D01*
Y126147D01*
X176234D01*
X176445Y125966D01*
X176707Y125704D01*
X176992Y125277D01*
X177775Y124495D01*
Y122215D01*
X162195D01*
Y123858D01*
X164454Y126118D01*
X164953D01*
X165100Y126147D01*
X167894D01*
Y130509D01*
X167146D01*
Y135873D01*
X174190D01*
Y130509D01*
D02*
G37*
G36*
X159839Y130347D02*
X159854Y130177D01*
X159879Y130027D01*
X159914Y129897D01*
X159959Y129787D01*
X160014Y129697D01*
X160079Y129627D01*
X160154Y129577D01*
X160239Y129547D01*
X160334Y129537D01*
X158845D01*
X158843Y129547D01*
X158841Y129577D01*
X158834Y130347D01*
X158834Y130537D01*
X159834D01*
X159839Y130347D01*
D02*
G37*
G36*
X155774D02*
X155789Y130177D01*
X155814Y130027D01*
X155849Y129897D01*
X155894Y129787D01*
X155949Y129697D01*
X156014Y129627D01*
X156089Y129577D01*
X156174Y129547D01*
X156269Y129537D01*
X154269D01*
X154364Y129547D01*
X154449Y129577D01*
X154524Y129627D01*
X154589Y129697D01*
X154644Y129787D01*
X154689Y129897D01*
X154724Y130027D01*
X154749Y130177D01*
X154764Y130347D01*
X154769Y130537D01*
X155769D01*
X155774Y130347D01*
D02*
G37*
G36*
X138018D02*
X138033Y130177D01*
X138058Y130027D01*
X138093Y129897D01*
X138138Y129787D01*
X138193Y129697D01*
X138258Y129627D01*
X138333Y129577D01*
X138418Y129547D01*
X138513Y129537D01*
X136605D01*
X136682Y129547D01*
X136752Y129577D01*
X136813Y129627D01*
X136866Y129697D01*
X136911Y129787D01*
X136948Y129897D01*
X136976Y130027D01*
X136997Y130177D01*
X137009Y130347D01*
X137013Y130537D01*
X138013D01*
X138018Y130347D01*
D02*
G37*
G36*
X176225Y130307D02*
X176240Y130137D01*
X176265Y129987D01*
X176300Y129857D01*
X176345Y129747D01*
X176400Y129657D01*
X176464Y129587D01*
X176540Y129537D01*
X176625Y129507D01*
X176719Y129497D01*
X174720D01*
X174814Y129507D01*
X174899Y129537D01*
X174975Y129587D01*
X175040Y129657D01*
X175094Y129747D01*
X175139Y129857D01*
X175174Y129987D01*
X175199Y130137D01*
X175215Y130307D01*
X175220Y130497D01*
X176219D01*
X176225Y130307D01*
D02*
G37*
G36*
X166121Y130305D02*
X166136Y130133D01*
X166161Y129981D01*
X166196Y129850D01*
X166241Y129738D01*
X166296Y129647D01*
X166361Y129576D01*
X166436Y129526D01*
X166521Y129495D01*
X166616Y129485D01*
X164616D01*
X164711Y129495D01*
X164796Y129526D01*
X164871Y129576D01*
X164936Y129647D01*
X164991Y129738D01*
X165036Y129850D01*
X165071Y129981D01*
X165096Y130133D01*
X165111Y130305D01*
X165116Y130497D01*
X166116D01*
X166121Y130305D01*
D02*
G37*
G36*
X143566Y151431D02*
X144062Y151100D01*
X144647Y150983D01*
X154273D01*
X163038Y142218D01*
X163260Y141810D01*
X163260D01*
X163260Y141810D01*
Y140841D01*
X163252Y140805D01*
X163260Y140765D01*
Y135873D01*
X164087D01*
Y130509D01*
X163374D01*
Y129088D01*
X163235Y129060D01*
X162739Y128728D01*
X162657Y128646D01*
X162195Y128837D01*
Y130549D01*
X160863D01*
Y135873D01*
X161008D01*
Y136789D01*
X161012Y136804D01*
X161008Y136841D01*
X161016Y136878D01*
X161008Y136917D01*
Y140797D01*
X160807Y140798D01*
X160799Y141810D01*
X159377D01*
Y142310D01*
X159260Y142895D01*
X158929Y143392D01*
X157979Y144341D01*
X157483Y144673D01*
X156897Y144789D01*
X147740D01*
X147155Y144673D01*
X146659Y144341D01*
X146327Y143845D01*
X146211Y143260D01*
X146327Y142675D01*
X146659Y142179D01*
X147155Y141847D01*
X147740Y141731D01*
X152866D01*
Y135873D01*
X153685D01*
X153686Y135859D01*
X153727Y135677D01*
X153740Y135610D01*
Y130549D01*
X153153D01*
Y129765D01*
X147294D01*
X147229Y129826D01*
X147195Y129839D01*
X147167Y129862D01*
X147010Y129910D01*
X146858Y129968D01*
X146821Y129967D01*
X146786Y129977D01*
X146623Y129961D01*
X146460Y129956D01*
X146426Y129941D01*
X146390Y129937D01*
X146268Y129872D01*
X145980Y129929D01*
X145880D01*
X145295Y129813D01*
X144799Y129481D01*
X144467Y128985D01*
X144351Y128400D01*
X144467Y127815D01*
X144799Y127319D01*
X145295Y126987D01*
X145321Y126982D01*
X145559Y126823D01*
X145900Y126755D01*
X145917Y126740D01*
X146075Y126680D01*
X146230Y126610D01*
X146260Y126609D01*
X146289Y126598D01*
X146458Y126603D01*
X146627Y126598D01*
X146656Y126609D01*
X146686Y126610D01*
X146841Y126679D01*
X146862Y126687D01*
X146872Y126688D01*
X146880Y126690D01*
X146892Y126692D01*
X146907Y126698D01*
X146916Y126699D01*
X146926Y126701D01*
X147008Y126707D01*
X153153D01*
Y125122D01*
X139955D01*
Y130549D01*
X139042D01*
Y135873D01*
X139591D01*
Y141810D01*
X138781D01*
Y155562D01*
X139243Y155754D01*
X143566Y151431D01*
D02*
G37*
G36*
X146723Y128919D02*
X146766Y128881D01*
X146818Y128847D01*
X146877Y128818D01*
X146943Y128793D01*
X147018Y128772D01*
X147101Y128756D01*
X147191Y128745D01*
X147290Y128738D01*
X147396Y128736D01*
X147197Y127736D01*
X147090Y127735D01*
X146812Y127715D01*
X146734Y127703D01*
X146664Y127688D01*
X146601Y127671D01*
X146546Y127651D01*
X146499Y127629D01*
X146458Y127604D01*
X146688Y128962D01*
X146723Y128919D01*
D02*
G37*
G36*
X172455Y129299D02*
X172534Y129207D01*
X172625Y129125D01*
X172727Y129054D01*
X172840Y128994D01*
X172965Y128945D01*
X173101Y128906D01*
X173248Y128879D01*
X173407Y128863D01*
X173527Y128859D01*
X173658Y128862D01*
X173830Y128877D01*
X173982Y128902D01*
X174114Y128937D01*
X174225Y128982D01*
X174316Y129037D01*
X174387Y129102D01*
X174437Y129177D01*
X174468Y129262D01*
X174478Y129357D01*
Y127357D01*
X174468Y127452D01*
X174437Y127537D01*
X174387Y127612D01*
X174316Y127677D01*
X174225Y127732D01*
X174114Y127777D01*
X173982Y127812D01*
X173830Y127837D01*
X173658Y127852D01*
X173466Y127857D01*
Y128237D01*
X173398Y127857D01*
X173231Y127853D01*
X173071Y127840D01*
X172918Y127819D01*
X172773Y127789D01*
X172634Y127751D01*
X172503Y127704D01*
X172380Y127648D01*
X172264Y127585D01*
X172154Y127512D01*
X172053Y127431D01*
X172386Y129403D01*
X172455Y129299D01*
D02*
G37*
G36*
X154177Y127236D02*
X154166Y127331D01*
X154136Y127416D01*
X154086Y127491D01*
X154015Y127556D01*
X153924Y127611D01*
X153812Y127656D01*
X153681Y127691D01*
X153529Y127716D01*
X153357Y127731D01*
X153165Y127736D01*
Y128736D01*
X153357Y128741D01*
X153529Y128756D01*
X153681Y128781D01*
X153812Y128816D01*
X153924Y128861D01*
X154015Y128916D01*
X154086Y128981D01*
X154136Y129056D01*
X154166Y129141D01*
X154177Y129236D01*
Y127236D01*
D02*
G37*
G36*
X164386Y127159D02*
X163821Y127147D01*
Y128147D01*
X163930Y128148D01*
X164305Y128171D01*
X164346Y128179D01*
X164374Y128189D01*
X164392Y128200D01*
X164398Y128212D01*
X164386Y127159D01*
D02*
G37*
G36*
X50104Y128193D02*
X50152Y128161D01*
X50207Y128133D01*
X50270Y128108D01*
X50339Y128087D01*
X50417Y128070D01*
X50501Y128057D01*
X50593Y128048D01*
X50798Y128040D01*
Y127040D01*
X50692Y127038D01*
X50501Y127023D01*
X50417Y127010D01*
X50339Y126993D01*
X50270Y126972D01*
X50207Y126947D01*
X50152Y126919D01*
X50104Y126887D01*
X50063Y126851D01*
Y128229D01*
X50104Y128193D01*
D02*
G37*
G36*
X137735Y126620D02*
X137697Y126630D01*
X137644Y126620D01*
X137573Y126588D01*
X137487Y126535D01*
X137384Y126460D01*
X137131Y126247D01*
X136812Y125949D01*
X136628Y125768D01*
X135921Y126475D01*
X136080Y126636D01*
X136517Y127134D01*
X136576Y127222D01*
X136616Y127294D01*
X136636Y127352D01*
X136636Y127396D01*
X136617Y127425D01*
X137735Y126620D01*
D02*
G37*
G36*
X176914Y128930D02*
X176903Y128823D01*
X176916Y128706D01*
X176952Y128579D01*
X177012Y128443D01*
X177095Y128297D01*
X177203Y128140D01*
X177334Y127974D01*
X177490Y127798D01*
X177669Y127612D01*
X177415Y126452D01*
X177188Y126671D01*
X176792Y127012D01*
X176623Y127133D01*
X176472Y127221D01*
X176340Y127277D01*
X176227Y127299D01*
X176132Y127289D01*
X176057Y127247D01*
X176001Y127171D01*
X176950Y129027D01*
X176914Y128930D01*
D02*
G37*
G36*
X58804Y125613D02*
X58852Y125581D01*
X58907Y125553D01*
X58969Y125528D01*
X59039Y125507D01*
X59117Y125490D01*
X59201Y125477D01*
X59293Y125468D01*
X59498Y125460D01*
Y124460D01*
X59392Y124458D01*
X59201Y124443D01*
X59117Y124430D01*
X59039Y124413D01*
X58969Y124392D01*
X58907Y124367D01*
X58852Y124339D01*
X58804Y124307D01*
X58763Y124271D01*
Y125649D01*
X58804Y125613D01*
D02*
G37*
G36*
X57357Y124271D02*
X57316Y124307D01*
X57268Y124339D01*
X57213Y124367D01*
X57151Y124392D01*
X57081Y124413D01*
X57003Y124430D01*
X56919Y124443D01*
X56827Y124452D01*
X56622Y124460D01*
Y125460D01*
X56728Y125462D01*
X56919Y125477D01*
X57003Y125490D01*
X57081Y125507D01*
X57151Y125528D01*
X57213Y125553D01*
X57268Y125581D01*
X57316Y125613D01*
X57357Y125649D01*
Y124271D01*
D02*
G37*
G36*
X78102Y131233D02*
X79509Y130918D01*
X80827Y130333D01*
X82005Y129501D01*
X82996Y128453D01*
X83763Y127232D01*
X84275Y125884D01*
X84512Y124461D01*
X84489Y123741D01*
X84489Y123741D01*
X84485Y123672D01*
X84388Y123576D01*
X84251Y123570D01*
X84146Y123658D01*
X84136Y123726D01*
X70139Y123726D01*
X70139Y123937D01*
X70139D01*
X70105Y123926D01*
X70035Y123935D01*
X69976Y123975D01*
X69941Y124036D01*
X69939Y124072D01*
X69949Y124793D01*
X70251Y126203D01*
X70824Y127526D01*
X71645Y128712D01*
X72683Y129713D01*
X73897Y130491D01*
X75240Y131015D01*
X76660Y131266D01*
X78102Y131233D01*
D02*
G37*
G36*
X154177Y122592D02*
X154166Y122687D01*
X154136Y122772D01*
X154086Y122847D01*
X154015Y122912D01*
X153924Y122967D01*
X153812Y123012D01*
X153681Y123047D01*
X153529Y123072D01*
X153357Y123087D01*
X153165Y123092D01*
Y124092D01*
X153357Y124097D01*
X153529Y124112D01*
X153681Y124137D01*
X153812Y124172D01*
X153924Y124217D01*
X154015Y124272D01*
X154086Y124337D01*
X154136Y124412D01*
X154166Y124497D01*
X154177Y124592D01*
Y122592D01*
D02*
G37*
G36*
X138941Y124497D02*
X138971Y124412D01*
X139022Y124337D01*
X139093Y124272D01*
X139184Y124217D01*
X139295Y124172D01*
X139427Y124137D01*
X139578Y124112D01*
X139751Y124097D01*
X139943Y124092D01*
Y123092D01*
X139751Y123087D01*
X139578Y123072D01*
X139427Y123047D01*
X139295Y123012D01*
X139184Y122967D01*
X139093Y122912D01*
X139022Y122847D01*
X138971Y122772D01*
X138941Y122687D01*
X138931Y122592D01*
Y124592D01*
X138941Y124497D01*
D02*
G37*
G36*
X158857Y122545D02*
X158846Y122640D01*
X158816Y122725D01*
X158765Y122800D01*
X158695Y122865D01*
X158604Y122920D01*
X158492Y122965D01*
X158361Y123000D01*
X158209Y123025D01*
X158037Y123040D01*
X157845Y123045D01*
Y124045D01*
X158037Y124050D01*
X158209Y124065D01*
X158361Y124090D01*
X158492Y124125D01*
X158604Y124170D01*
X158695Y124225D01*
X158765Y124290D01*
X158816Y124365D01*
X158846Y124450D01*
X158857Y124545D01*
Y122545D01*
D02*
G37*
G36*
X156501Y124450D02*
X156531Y124365D01*
X156582Y124290D01*
X156653Y124225D01*
X156744Y124170D01*
X156855Y124125D01*
X156987Y124090D01*
X157139Y124065D01*
X157310Y124050D01*
X157503Y124045D01*
Y123045D01*
X157310Y123040D01*
X157139Y123025D01*
X156987Y123000D01*
X156855Y122965D01*
X156744Y122920D01*
X156653Y122865D01*
X156582Y122800D01*
X156531Y122725D01*
X156501Y122640D01*
X156491Y122545D01*
Y124545D01*
X156501Y124450D01*
D02*
G37*
G36*
X138519Y122082D02*
X138434Y122052D01*
X138359Y122001D01*
X138294Y121930D01*
X138239Y121839D01*
X138194Y121728D01*
X138159Y121597D01*
X138134Y121445D01*
X138119Y121273D01*
X138114Y121080D01*
X137114D01*
X137109Y121273D01*
X137094Y121445D01*
X137069Y121597D01*
X137034Y121728D01*
X136989Y121839D01*
X136934Y121930D01*
X136869Y122001D01*
X136794Y122052D01*
X136709Y122082D01*
X136614Y122092D01*
X138614D01*
X138519Y122082D01*
D02*
G37*
G36*
X18830Y121096D02*
X18776Y121092D01*
X18719Y121081D01*
X18660Y121062D01*
X18599Y121035D01*
X18534Y121001D01*
X18468Y120958D01*
X18399Y120908D01*
X18327Y120849D01*
X18177Y120709D01*
X17469Y121416D01*
X17543Y121493D01*
X17668Y121639D01*
X17718Y121708D01*
X17761Y121774D01*
X17795Y121839D01*
X17822Y121900D01*
X17841Y121959D01*
X17852Y122016D01*
X17856Y122070D01*
X18830Y121096D01*
D02*
G37*
G36*
X145664Y120320D02*
X145621Y120285D01*
X145582Y120243D01*
X145547Y120193D01*
X145517Y120134D01*
X145492Y120068D01*
X145471Y119994D01*
X145455Y119911D01*
X145444Y119821D01*
X145437Y119723D01*
X145435Y119617D01*
X144435Y119843D01*
X144433Y119951D01*
X144415Y120229D01*
X144404Y120306D01*
X144374Y120438D01*
X144355Y120493D01*
X144334Y120540D01*
X144311Y120579D01*
X145664Y120320D01*
D02*
G37*
G36*
X162019Y119157D02*
X176771D01*
X176962Y118695D01*
X176070Y117803D01*
X173756D01*
X173754Y117795D01*
X173748Y117803D01*
X171374D01*
X171038Y118028D01*
X170492Y118136D01*
X170492Y118136D01*
X166245D01*
Y118299D01*
X162750D01*
Y118120D01*
X162651Y118117D01*
X162557Y118108D01*
X162468Y118094D01*
X162382Y118074D01*
X162301Y118048D01*
X162225Y118016D01*
X162153Y117978D01*
X162085Y117935D01*
X162022Y117886D01*
X161963Y117831D01*
Y118299D01*
X161293D01*
Y116331D01*
X159888D01*
X159740Y116360D01*
X158733D01*
X158695Y116385D01*
X158489Y116591D01*
Y116953D01*
X160693Y119157D01*
X161963D01*
Y119209D01*
X162019Y119157D01*
D02*
G37*
G36*
X135593Y122710D02*
Y121068D01*
X136084D01*
Y117243D01*
X135617Y116885D01*
X135467Y116689D01*
X135241D01*
X134759Y117011D01*
X134174Y117127D01*
X133674D01*
Y117279D01*
X132766D01*
X132754Y117282D01*
X132500Y117526D01*
X132395Y117682D01*
Y118157D01*
X132417Y118272D01*
X134361Y120216D01*
X134693Y120712D01*
X134809Y121297D01*
Y122620D01*
X135150Y122900D01*
X135593Y122710D01*
D02*
G37*
G36*
X132672Y116235D02*
X132702Y116206D01*
X132752Y116181D01*
X132822Y116159D01*
X132912Y116140D01*
X133022Y116125D01*
X133302Y116105D01*
X133662Y116098D01*
Y115098D01*
X132662Y115110D01*
Y116267D01*
X132672Y116235D01*
D02*
G37*
G36*
X154568Y115396D02*
X154579Y115339D01*
X154598Y115280D01*
X154625Y115219D01*
X154659Y115154D01*
X154702Y115088D01*
X154752Y115019D01*
X154811Y114947D01*
X154951Y114796D01*
X154244Y114089D01*
X154167Y114163D01*
X154021Y114288D01*
X153952Y114338D01*
X153886Y114381D01*
X153821Y114415D01*
X153760Y114442D01*
X153701Y114461D01*
X153644Y114472D01*
X153590Y114476D01*
X154564Y115450D01*
X154568Y115396D01*
D02*
G37*
G36*
X165243Y113344D02*
X165273Y113339D01*
X165323Y113335D01*
X165724Y113323D01*
X166234Y113320D01*
Y112320D01*
X166043Y112319D01*
X165393Y112274D01*
X165323Y112258D01*
X165273Y112238D01*
X165243Y112217D01*
X165234Y112192D01*
Y113349D01*
X165243Y113344D01*
D02*
G37*
G36*
X158367Y112192D02*
X158356Y112207D01*
X158326Y112221D01*
X158276Y112232D01*
X158206Y112243D01*
X158007Y112258D01*
X157367Y112271D01*
Y113271D01*
X157556Y113272D01*
X158326Y113321D01*
X158356Y113335D01*
X158367Y113349D01*
Y112192D01*
D02*
G37*
G36*
X131381Y113936D02*
X131411Y113851D01*
X131462Y113777D01*
X131533Y113712D01*
X131624Y113656D01*
X131735Y113611D01*
X131867Y113576D01*
X132018Y113551D01*
X132190Y113537D01*
X132383Y113531D01*
Y112531D01*
X132190Y112527D01*
X132018Y112512D01*
X131867Y112487D01*
X131735Y112452D01*
X131624Y112407D01*
X131533Y112352D01*
X131462Y112286D01*
X131411Y112212D01*
X131381Y112127D01*
X131371Y112031D01*
Y114032D01*
X131381Y113936D01*
D02*
G37*
G36*
X176477Y111551D02*
X176455Y111568D01*
X176423Y111583D01*
X176380Y111596D01*
X176328Y111608D01*
X176267Y111618D01*
X176113Y111632D01*
X175920Y111639D01*
X175809Y111640D01*
Y112840D01*
X175920Y112841D01*
X176267Y112862D01*
X176328Y112872D01*
X176380Y112884D01*
X176423Y112897D01*
X176455Y112912D01*
X176477Y112929D01*
Y111551D01*
D02*
G37*
G36*
X175770Y108456D02*
X175742Y108452D01*
X175709Y108440D01*
X175670Y108420D01*
X175625Y108391D01*
X175574Y108354D01*
X175456Y108256D01*
X175314Y108124D01*
X175235Y108046D01*
X174386Y108895D01*
X174464Y108974D01*
X174694Y109234D01*
X174731Y109285D01*
X174759Y109330D01*
X174780Y109369D01*
X174792Y109402D01*
X174796Y109430D01*
X175770Y108456D01*
D02*
G37*
G36*
X166014Y107925D02*
X165936Y107846D01*
X165706Y107586D01*
X165669Y107535D01*
X165640Y107490D01*
X165620Y107451D01*
X165608Y107418D01*
X165604Y107390D01*
X164630Y108364D01*
X164658Y108368D01*
X164691Y108380D01*
X164730Y108400D01*
X164775Y108429D01*
X164826Y108466D01*
X164944Y108564D01*
X165086Y108696D01*
X165165Y108774D01*
X166014Y107925D01*
D02*
G37*
G36*
X43733Y108644D02*
X43788Y108603D01*
X43850Y108567D01*
X43917Y108536D01*
X43991Y108510D01*
X44070Y108488D01*
X44155Y108472D01*
X44246Y108460D01*
X44343Y108452D01*
X44446Y108450D01*
Y107550D01*
X44343Y107548D01*
X44155Y107528D01*
X44070Y107512D01*
X43991Y107490D01*
X43917Y107464D01*
X43850Y107433D01*
X43788Y107397D01*
X43733Y107356D01*
X43683Y107311D01*
Y108689D01*
X43733Y108644D01*
D02*
G37*
G36*
X111204Y108702D02*
X111347Y106542D01*
X111392Y106392D01*
X111443Y106302D01*
X111500Y106272D01*
X108374D01*
X108341Y106302D01*
X108312Y106392D01*
X108286Y106542D01*
X108263Y106752D01*
X108217Y107742D01*
X108201Y109272D01*
X111201D01*
X111204Y108702D01*
D02*
G37*
G36*
X105598Y108363D02*
X105566Y108303D01*
X105537Y108203D01*
X105513Y108063D01*
X105492Y107883D01*
X105475Y107537D01*
X105494Y107252D01*
X105532Y106992D01*
X105581Y106772D01*
X105641Y106592D01*
X105711Y106452D01*
X105793Y106352D01*
X105885Y106292D01*
X105988Y106272D01*
X102863D01*
X102973Y106292D01*
X103072Y106352D01*
X103160Y106452D01*
X103235Y106592D01*
X103299Y106772D01*
X103352Y106992D01*
X103393Y107252D01*
X103405Y107385D01*
X103349Y108303D01*
X103324Y108363D01*
X103296Y108383D01*
X105634D01*
X105598Y108363D01*
D02*
G37*
G36*
X102863Y102753D02*
X102842Y102897D01*
X102782Y103027D01*
X102682Y103140D01*
X102542Y103239D01*
X102363Y103323D01*
X102143Y103391D01*
X101883Y103444D01*
X101687Y103469D01*
X100753Y103404D01*
X100693Y103376D01*
X100673Y103344D01*
Y105682D01*
X100693Y105650D01*
X100753Y105621D01*
X100853Y105596D01*
X100993Y105574D01*
X101173Y105555D01*
X101467Y105542D01*
X101883Y105581D01*
X102143Y105634D01*
X102363Y105703D01*
X102542Y105786D01*
X102682Y105885D01*
X102782Y105999D01*
X102842Y106128D01*
X102863Y106272D01*
Y102753D01*
D02*
G37*
G36*
X175877Y104611D02*
X175855Y104628D01*
X175822Y104643D01*
X175780Y104656D01*
X175728Y104668D01*
X175666Y104678D01*
X175513Y104692D01*
X175320Y104699D01*
X175209Y104700D01*
Y105900D01*
X175320Y105901D01*
X175666Y105922D01*
X175728Y105932D01*
X175780Y105944D01*
X175822Y105957D01*
X175855Y105972D01*
X175877Y105989D01*
Y104611D01*
D02*
G37*
G36*
X166694Y104945D02*
X166616Y104866D01*
X166386Y104606D01*
X166349Y104555D01*
X166321Y104510D01*
X166300Y104471D01*
X166288Y104438D01*
X166284Y104410D01*
X165310Y105384D01*
X165338Y105388D01*
X165371Y105400D01*
X165410Y105420D01*
X165455Y105449D01*
X165506Y105486D01*
X165624Y105584D01*
X165766Y105716D01*
X165845Y105794D01*
X166694Y104945D01*
D02*
G37*
G36*
X49216Y105224D02*
X49362Y105104D01*
X49435Y105056D01*
X49506Y105015D01*
X49576Y104982D01*
X49646Y104956D01*
X49715Y104938D01*
X49783Y104927D01*
X49850Y104924D01*
X48876Y103950D01*
X48873Y104017D01*
X48862Y104085D01*
X48844Y104154D01*
X48818Y104224D01*
X48785Y104294D01*
X48744Y104366D01*
X48696Y104438D01*
X48640Y104510D01*
X48576Y104584D01*
X48505Y104658D01*
X49142Y105295D01*
X49216Y105224D01*
D02*
G37*
G36*
X153628Y104842D02*
X153640Y104809D01*
X153661Y104770D01*
X153689Y104725D01*
X153726Y104674D01*
X153824Y104556D01*
X153955Y104414D01*
X154034Y104335D01*
X153185Y103486D01*
X153106Y103565D01*
X152846Y103794D01*
X152795Y103831D01*
X152750Y103859D01*
X152711Y103880D01*
X152678Y103892D01*
X152650Y103896D01*
X153624Y104870D01*
X153628Y104842D01*
D02*
G37*
G36*
X95485Y106504D02*
X95546Y106334D01*
X95647Y106184D01*
X95788Y106054D01*
X95969Y105944D01*
X96190Y105854D01*
X96452Y105784D01*
X96753Y105734D01*
X97095Y105704D01*
X97476Y105694D01*
Y105686D01*
X98177Y105682D01*
Y103344D01*
X98158Y103410D01*
X98097Y103470D01*
X97997Y103522D01*
X97857Y103568D01*
X97677Y103606D01*
X97457Y103638D01*
X96907Y103679D01*
X95976Y103621D01*
X95796Y103589D01*
X95656Y103551D01*
X95556Y103507D01*
X95496Y103458D01*
X95476Y103403D01*
X95464Y106694D01*
X95485Y106504D01*
D02*
G37*
G36*
X41607Y104350D02*
X41617Y104270D01*
X41634Y104192D01*
X41659Y104114D01*
X41690Y104038D01*
X41729Y103962D01*
X41775Y103887D01*
X41828Y103814D01*
X41889Y103741D01*
X41956Y103669D01*
X41391Y103104D01*
X41319Y103171D01*
X41246Y103232D01*
X41173Y103285D01*
X41098Y103331D01*
X41022Y103370D01*
X40946Y103401D01*
X40868Y103426D01*
X40790Y103443D01*
X40710Y103453D01*
X40630Y103456D01*
X41604Y104430D01*
X41607Y104350D01*
D02*
G37*
G36*
X167025Y101517D02*
X166948Y101438D01*
X166718Y101178D01*
X166681Y101127D01*
X166653Y101082D01*
X166632Y101043D01*
X166620Y101010D01*
X166616Y100982D01*
X165642Y101956D01*
X165670Y101960D01*
X165703Y101972D01*
X165742Y101992D01*
X165787Y102021D01*
X165838Y102058D01*
X165956Y102156D01*
X166098Y102287D01*
X166177Y102366D01*
X167025Y101517D01*
D02*
G37*
G36*
X63917Y100511D02*
X63858Y100566D01*
X63795Y100615D01*
X63727Y100658D01*
X63655Y100696D01*
X63579Y100728D01*
X63498Y100754D01*
X63412Y100774D01*
X63323Y100788D01*
X63229Y100797D01*
X63130Y100800D01*
Y101600D01*
X63229Y101603D01*
X63323Y101612D01*
X63412Y101626D01*
X63498Y101646D01*
X63579Y101672D01*
X63655Y101704D01*
X63727Y101742D01*
X63795Y101785D01*
X63858Y101834D01*
X63917Y101889D01*
Y100511D01*
D02*
G37*
G36*
X111443Y102723D02*
X111392Y102633D01*
X111347Y102483D01*
X111309Y102273D01*
X111276Y102003D01*
X111228Y101283D01*
X111201Y99753D01*
X108201D01*
X108374Y102753D01*
X111500D01*
X111443Y102723D01*
D02*
G37*
G36*
X176617Y98031D02*
X176595Y98048D01*
X176562Y98063D01*
X176520Y98076D01*
X176468Y98088D01*
X176407Y98098D01*
X176253Y98112D01*
X176060Y98119D01*
X175949Y98120D01*
Y99320D01*
X176060Y99321D01*
X176407Y99342D01*
X176468Y99352D01*
X176520Y99364D01*
X176562Y99377D01*
X176595Y99392D01*
X176617Y99409D01*
Y98031D01*
D02*
G37*
G36*
X142833Y92756D02*
X142801Y92708D01*
X142773Y92653D01*
X142748Y92590D01*
X142727Y92521D01*
X142710Y92443D01*
X142697Y92359D01*
X142688Y92267D01*
X142680Y92062D01*
X141680D01*
X141678Y92168D01*
X141663Y92359D01*
X141650Y92443D01*
X141633Y92521D01*
X141612Y92590D01*
X141587Y92653D01*
X141559Y92708D01*
X141527Y92756D01*
X141491Y92797D01*
X142869D01*
X142833Y92756D01*
D02*
G37*
G36*
X77733Y85636D02*
X77701Y85588D01*
X77673Y85533D01*
X77648Y85470D01*
X77627Y85401D01*
X77610Y85323D01*
X77597Y85239D01*
X77588Y85147D01*
X77580Y84942D01*
X76580D01*
X76578Y85048D01*
X76563Y85239D01*
X76550Y85323D01*
X76533Y85401D01*
X76512Y85470D01*
X76487Y85533D01*
X76459Y85588D01*
X76427Y85636D01*
X76391Y85677D01*
X77769D01*
X77733Y85636D01*
D02*
G37*
G36*
X142682Y85312D02*
X142697Y85121D01*
X142710Y85037D01*
X142727Y84959D01*
X142748Y84890D01*
X142773Y84827D01*
X142801Y84772D01*
X142833Y84724D01*
X142869Y84683D01*
X141491D01*
X141527Y84724D01*
X141559Y84772D01*
X141587Y84827D01*
X141612Y84890D01*
X141633Y84959D01*
X141650Y85037D01*
X141663Y85121D01*
X141672Y85213D01*
X141680Y85418D01*
X142680D01*
X142682Y85312D01*
D02*
G37*
G36*
X62048Y78593D02*
X62053Y78535D01*
X62066Y78475D01*
X62088Y78412D01*
X62118Y78347D01*
X62157Y78280D01*
X62205Y78210D01*
X62261Y78139D01*
X62326Y78064D01*
X62399Y77988D01*
X61572Y77401D01*
X61495Y77476D01*
X61283Y77657D01*
X61220Y77703D01*
X61159Y77742D01*
X61101Y77773D01*
X61047Y77798D01*
X60996Y77815D01*
X60948Y77825D01*
X62053Y78649D01*
X62048Y78593D01*
D02*
G37*
G36*
X77840Y72267D02*
X77844Y72073D01*
X77858Y71890D01*
X77880Y71718D01*
X77910Y71557D01*
X77950Y71407D01*
X77998Y71269D01*
X78055Y71142D01*
X78121Y71026D01*
X78196Y70921D01*
X78279Y70828D01*
X77572Y70121D01*
X77479Y70204D01*
X77374Y70279D01*
X77258Y70345D01*
X77131Y70402D01*
X76993Y70450D01*
X76843Y70490D01*
X76682Y70521D01*
X76327Y70556D01*
X76133Y70560D01*
X75840Y71560D01*
X76030Y71570D01*
X76200Y71600D01*
X76350Y71650D01*
X76480Y71720D01*
X76590Y71810D01*
X76680Y71920D01*
X76750Y72050D01*
X76800Y72200D01*
X76830Y72370D01*
X76840Y72560D01*
X77840Y72267D01*
D02*
G37*
G36*
X60224Y71876D02*
X60196Y71784D01*
Y71678D01*
X60224Y71557D01*
X60281Y71423D01*
X60366Y71275D01*
X60479Y71112D01*
X60620Y70935D01*
X60988Y70539D01*
X60281Y69832D01*
X60076Y70030D01*
X59708Y70341D01*
X59545Y70454D01*
X59397Y70539D01*
X59263Y70596D01*
X59142Y70624D01*
X59036D01*
X58944Y70596D01*
X58867Y70539D01*
X60281Y71953D01*
X60224Y71876D01*
D02*
G37*
%LPC*%
G36*
X27973Y77473D02*
X20067D01*
Y69567D01*
X27973D01*
Y77473D01*
D02*
G37*
G36*
X177213Y61593D02*
X169307D01*
Y53687D01*
X177213D01*
Y61593D01*
D02*
G37*
G36*
X187993Y61573D02*
X180087D01*
Y53667D01*
X187993D01*
Y61573D01*
D02*
G37*
G36*
X166093D02*
X158187D01*
Y53667D01*
X166093D01*
Y61573D01*
D02*
G37*
G36*
X155073Y61533D02*
X147167D01*
Y53627D01*
X155073D01*
Y61533D01*
D02*
G37*
G36*
X187953Y50573D02*
X180047D01*
Y42667D01*
X187953D01*
Y50573D01*
D02*
G37*
G36*
X177173Y50553D02*
X169267D01*
Y42647D01*
X177173D01*
Y50553D01*
D02*
G37*
G36*
X166293D02*
X158387D01*
Y42647D01*
X166293D01*
Y50553D01*
D02*
G37*
G36*
X155073Y50533D02*
X147167D01*
Y42627D01*
X155073D01*
Y50533D01*
D02*
G37*
G36*
X187953Y39653D02*
X180047D01*
Y31747D01*
X187953D01*
Y39653D01*
D02*
G37*
G36*
X61352Y55395D02*
X33783D01*
X33393Y55318D01*
X33062Y55097D01*
X32841Y54766D01*
X32763Y54376D01*
Y32121D01*
X32841Y31731D01*
X33062Y31400D01*
X33393Y31179D01*
X33783Y31102D01*
X61352D01*
X61742Y31179D01*
X62073Y31400D01*
X62294Y31731D01*
X62371Y32121D01*
Y54376D01*
X62294Y54766D01*
X62073Y55097D01*
X61742Y55318D01*
X61352Y55395D01*
D02*
G37*
G36*
X153903Y90549D02*
X153871Y90542D01*
X153839Y90547D01*
X153677Y90504D01*
X153513Y90471D01*
X153486Y90453D01*
X153455Y90445D01*
X153356Y90369D01*
X153200D01*
X152615Y90253D01*
X152119Y89921D01*
X151787Y89425D01*
X151671Y88840D01*
X151787Y88255D01*
X152119Y87759D01*
X152615Y87427D01*
X153200Y87311D01*
X153356D01*
X153455Y87235D01*
X153486Y87227D01*
X153513Y87209D01*
X153677Y87176D01*
X153839Y87133D01*
X153871Y87138D01*
X153903Y87131D01*
X154067Y87164D01*
X154234Y87187D01*
X154262Y87203D01*
X154293Y87209D01*
X154433Y87302D01*
X154439Y87306D01*
X154445Y87307D01*
X154460Y87310D01*
X154472Y87311D01*
X170466D01*
X172783Y84994D01*
X172796Y84977D01*
X172799Y84971D01*
X172801Y84964D01*
X172834Y84800D01*
X172852Y84773D01*
X172860Y84742D01*
X172962Y84608D01*
X173055Y84469D01*
X173082Y84451D01*
X173101Y84425D01*
X173246Y84341D01*
X173386Y84248D01*
X173417Y84242D01*
X173445Y84225D01*
X173568Y84209D01*
X173679Y84099D01*
X174175Y83767D01*
X174760Y83651D01*
X175345Y83767D01*
X175841Y84099D01*
X176173Y84595D01*
X176289Y85180D01*
X176173Y85765D01*
X175841Y86261D01*
X175731Y86372D01*
X175715Y86495D01*
X175698Y86523D01*
X175692Y86554D01*
X175599Y86694D01*
X175515Y86839D01*
X175489Y86858D01*
X175471Y86885D01*
X175332Y86978D01*
X175198Y87080D01*
X175167Y87088D01*
X175140Y87106D01*
X174976Y87139D01*
X174969Y87141D01*
X174963Y87144D01*
X174951Y87153D01*
X174942Y87161D01*
X172181Y89921D01*
X171685Y90253D01*
X171100Y90369D01*
X154466D01*
X154445Y90373D01*
X154439Y90374D01*
X154433Y90378D01*
X154293Y90471D01*
X154262Y90477D01*
X154234Y90493D01*
X154067Y90516D01*
X153903Y90549D01*
D02*
G37*
%LPD*%
G36*
X153944Y89493D02*
X153992Y89461D01*
X154047Y89433D01*
X154110Y89408D01*
X154179Y89387D01*
X154257Y89370D01*
X154341Y89357D01*
X154433Y89348D01*
X154638Y89340D01*
Y88340D01*
X154532Y88338D01*
X154341Y88323D01*
X154257Y88310D01*
X154179Y88293D01*
X154110Y88272D01*
X154047Y88247D01*
X153992Y88219D01*
X153944Y88187D01*
X153903Y88151D01*
Y89529D01*
X153944Y89493D01*
D02*
G37*
G36*
X174173Y86477D02*
X174319Y86352D01*
X174388Y86302D01*
X174454Y86260D01*
X174519Y86225D01*
X174580Y86198D01*
X174639Y86179D01*
X174696Y86168D01*
X174750Y86164D01*
X173776Y85190D01*
X173772Y85244D01*
X173761Y85301D01*
X173742Y85360D01*
X173715Y85421D01*
X173680Y85486D01*
X173638Y85552D01*
X173588Y85621D01*
X173529Y85693D01*
X173389Y85843D01*
X174097Y86551D01*
X174173Y86477D01*
D02*
G37*
D11*
X56345Y184105D02*
Y185694D01*
X58659Y185001D02*
X63693Y179967D01*
X56345Y185694D02*
X57796Y187144D01*
X58158D02*
X58773Y187759D01*
X57796Y187144D02*
X58158D01*
X58659Y185001D02*
Y185060D01*
X56160Y183920D02*
X56345Y184105D01*
X58814Y187760D02*
X59083D01*
X58813Y187759D02*
X58814Y187760D01*
X58773Y187759D02*
X58813D01*
X60507Y189184D02*
X112907D01*
X59083Y187760D02*
X60507Y189184D01*
X180075Y136639D02*
X182664Y134049D01*
X166240Y210160D02*
X173963D01*
X165674Y209594D02*
X166240Y210160D01*
X165027Y210240D02*
X165674Y209594D01*
X132748Y210240D02*
X165027D01*
X130200Y217702D02*
X135571Y212331D01*
X173963Y210160D02*
X181800Y202323D01*
X118162Y195654D02*
X132748Y210240D01*
X183129Y212331D02*
X188300Y207160D01*
X135571Y212331D02*
X183129D01*
X142100Y216280D02*
Y218000D01*
X23975Y245455D02*
X28764D01*
X15760Y237240D02*
X23975Y245455D01*
X15760Y223926D02*
Y237240D01*
Y223926D02*
X21324Y218362D01*
X46256Y130716D02*
X51257D01*
X61489Y127540D02*
X64002Y130053D01*
X44740Y129200D02*
X46256Y130716D01*
X49360Y127540D02*
X61489D01*
X23680Y163467D02*
Y163740D01*
X158839Y200118D02*
X160373Y198584D01*
X158839Y200118D02*
Y201762D01*
X160139Y203061D01*
X165674D01*
X160373Y198584D02*
X163226D01*
X155205Y128201D02*
X155269Y128266D01*
X59969Y190909D02*
X113445D01*
X58420Y189360D02*
X59969Y190909D01*
X56920Y189360D02*
X58420D01*
X112907Y189184D02*
X127496Y174595D01*
X56796Y181436D02*
X62093Y176139D01*
X113536Y148496D02*
X122935Y157895D01*
X83300Y154393D02*
X89198Y148496D01*
X113536D01*
X62093Y158498D02*
X67798Y152794D01*
X62093Y158498D02*
Y176139D01*
X68460Y154393D02*
Y154535D01*
X63693Y159302D02*
X68460Y154535D01*
X63693Y159302D02*
Y179967D01*
X68314Y152794D02*
X74968Y146140D01*
X67798Y152794D02*
X68314D01*
X122935Y157895D02*
Y161315D01*
X181800Y141958D02*
Y190449D01*
X181625Y141783D02*
X181800Y141958D01*
X181625Y190624D02*
X181800Y190449D01*
X177200Y123060D02*
X177695Y122565D01*
X176980Y123060D02*
X177200D01*
X160060Y120686D02*
X178851D01*
X156960Y117586D02*
X160060Y120686D01*
X178851D02*
X179304Y121140D01*
X182664Y118584D02*
Y134049D01*
X178074Y126359D02*
X179306Y125126D01*
X179304Y121140D02*
Y125124D01*
X179306Y125126D01*
X178074Y126359D02*
Y126500D01*
X176246Y128328D02*
X178074Y126500D01*
X175714Y128328D02*
X176246D01*
X178404Y114324D02*
X182664Y118584D01*
X163818Y112820D02*
X173667D01*
X175171Y114324D02*
X178404D01*
X173667Y112820D02*
X175171Y114324D01*
X184264Y102717D02*
Y136656D01*
X178183Y96636D02*
X184264Y102717D01*
X183789Y137131D02*
X184264Y136656D01*
X181625Y137776D02*
Y141783D01*
Y137776D02*
X182269Y137131D01*
X183789D01*
X181800Y194807D02*
Y202323D01*
X181625Y194632D02*
X181800Y194807D01*
X181625Y190624D02*
Y194632D01*
X156960Y115957D02*
Y117586D01*
Y115957D02*
X157899Y115018D01*
X158040D01*
X158228Y114831D01*
X133280Y121297D02*
Y123264D01*
X136137Y126121D01*
X136275D02*
X137093Y126939D01*
X136137Y126121D02*
X136275D01*
X130903Y118920D02*
X133280Y121297D01*
X138960Y112200D02*
X144935Y118175D01*
X133394Y112200D02*
X138960D01*
X132562Y113031D02*
X133394Y112200D01*
X129339Y110461D02*
X139721D01*
X128934Y110866D02*
X129339Y110461D01*
X128934Y110866D02*
Y113031D01*
X130903D02*
X132562D01*
X130380Y107002D02*
X131822D01*
X126965Y110417D02*
X130380Y107002D01*
X126965Y110417D02*
Y113031D01*
X131822Y107002D02*
X142188Y96636D01*
X171218Y203488D02*
X171403Y203303D01*
X171160Y203546D02*
X171218Y203488D01*
X174212Y198952D02*
Y202695D01*
X174100Y198840D02*
X174212Y198952D01*
X174079Y198840D02*
X174100D01*
X173193Y197954D02*
X174079Y198840D01*
X172053Y197954D02*
X173193D01*
X171403Y203303D02*
X173603D01*
X173262Y194300D02*
Y195760D01*
X174742Y197240D01*
X175180D01*
X177800Y199860D01*
Y204060D01*
X174240Y207620D02*
X177800Y204060D01*
X168840Y207620D02*
X174240D01*
X142188Y96636D02*
X178183D01*
X172528Y161735D02*
X179672Y154591D01*
X163769Y112771D02*
X163818Y112820D01*
X133505Y76545D02*
X135444D01*
X131340Y74380D02*
X133505Y76545D01*
X92475Y74380D02*
X131340D01*
X84156Y82700D02*
X92475Y74380D01*
X133561Y72540D02*
X135741Y74720D01*
X91911Y72540D02*
X133561D01*
X82556Y81895D02*
X91911Y72540D01*
X142620Y76300D02*
X144507D01*
X141040Y74720D02*
X142620Y76300D01*
X135741Y74720D02*
X141040D01*
X136680Y72620D02*
X144340D01*
X134534Y70474D02*
X136680Y72620D01*
X77926Y70474D02*
X134534D01*
X11040Y171653D02*
X14660Y168034D01*
X11040Y195248D02*
X15177Y199384D01*
X11040Y171653D02*
Y195248D01*
X15318Y199384D02*
X21324Y205390D01*
X15177Y199384D02*
X15318D01*
X40478Y127100D02*
X42618Y124960D01*
X25140Y127100D02*
X40478D01*
X22100Y130140D02*
X25140Y127100D01*
X23720Y108320D02*
Y120940D01*
X14660Y130000D02*
X23720Y120940D01*
X14660Y130000D02*
Y168034D01*
X21324Y205390D02*
Y218362D01*
X65325Y133780D02*
X72320D01*
X62081Y130536D02*
X65325Y133780D01*
X51437Y130536D02*
X62081D01*
X51257Y130716D02*
X51437Y130536D01*
X64002Y130194D02*
X64887Y131080D01*
X64002Y130053D02*
Y130194D01*
X56574Y195654D02*
X118162D01*
X130580Y211020D02*
Y211140D01*
X130575Y211145D02*
X130580Y211140D01*
X65460Y211020D02*
X130580D01*
X65340Y211140D02*
X65460Y211020D01*
X130575Y211145D02*
Y211741D01*
X48572Y276340D02*
X84660D01*
X38576Y255268D02*
Y266344D01*
X48572Y276340D01*
X67743Y117921D02*
X78001D01*
X64073Y121591D02*
X67743Y117921D01*
X64073Y121591D02*
Y121732D01*
X60846Y124960D02*
X64073Y121732D01*
X131024Y134177D02*
Y151016D01*
X127580Y154460D02*
X131024Y151016D01*
X127496Y154724D02*
X127580Y154640D01*
X127496Y154724D02*
Y174595D01*
X113445Y190909D02*
X129096Y175258D01*
Y165943D02*
Y175258D01*
X138852Y158308D02*
X144647Y152513D01*
X138852Y158308D02*
Y158449D01*
X134593Y162708D02*
X138852Y158449D01*
X134593Y162708D02*
Y204952D01*
X129096Y165943D02*
X137252Y157787D01*
X126965Y130259D02*
X129662Y132956D01*
X129803D01*
X131024Y134177D01*
X127580Y154460D02*
Y154640D01*
X152418Y222640D02*
X152680D01*
X145880Y128400D02*
X145980D01*
X146144Y128236D01*
X165878Y67100D02*
X166140D01*
X164631Y65853D02*
X165878Y67100D01*
X175940Y138894D02*
Y142120D01*
X175880Y142180D02*
X175940Y142120D01*
X25440Y174900D02*
Y175020D01*
X25540Y175120D01*
X16040Y184620D02*
X25540Y175120D01*
X30520Y135560D02*
X45140D01*
X19400Y92519D02*
Y115120D01*
X82556Y81895D02*
Y83852D01*
X77920Y88488D02*
X82556Y83852D01*
X77779Y88488D02*
X77920D01*
X77537Y88588D02*
X77661Y88464D01*
X62993Y88588D02*
X77537D01*
X16536Y92804D02*
X20827Y88513D01*
X16536Y92804D02*
Y118963D01*
X77343Y91327D02*
X84256Y84415D01*
X27408Y91327D02*
X77343D01*
X84156Y82700D02*
Y82848D01*
X84256Y82948D02*
Y84415D01*
X19400Y92519D02*
X20592Y91327D01*
X27408D02*
X27408Y91327D01*
X20592Y91327D02*
X27408D01*
X77661Y88464D02*
X77708D01*
X84156Y82848D02*
X84256Y82948D01*
X62893Y88488D02*
X62993Y88588D01*
X53009Y88488D02*
X62893D01*
X52909Y88588D02*
X53009Y88488D01*
X51182Y88588D02*
X52909D01*
X51082Y88488D02*
X51182Y88588D01*
X38493Y88488D02*
X51082D01*
X16536Y118963D02*
X16636Y119063D01*
Y119876D01*
X38488Y88493D02*
X38493Y88488D01*
X31672Y88493D02*
X38488D01*
X31666Y88488D02*
X31672Y88493D01*
X27454Y88488D02*
X31666D01*
X27428Y88513D02*
X27454Y88488D01*
X20827Y88513D02*
X27428D01*
X137252Y193566D02*
X138074Y192744D01*
X137093Y193725D02*
X137252Y193566D01*
X144935Y118175D02*
Y120955D01*
X158669Y138842D02*
X159334Y138177D01*
X157847Y139664D02*
X158669Y138842D01*
X139721Y110461D02*
X147580Y118320D01*
Y119380D01*
X163821Y127647D02*
X164953D01*
X137614Y123385D02*
X137821Y123592D01*
X137343Y115159D02*
X137454Y115049D01*
X134612Y115159D02*
X137343D01*
X169902Y195803D02*
X172053Y197954D01*
X169063Y182063D02*
Y193566D01*
X155205Y128201D02*
X155334Y128072D01*
X155170Y128236D02*
X155205Y128201D01*
X58060Y124960D02*
X60846D01*
X42618D02*
X58060D01*
X139420Y220680D02*
X142100Y218000D01*
X130160Y220680D02*
X139420D01*
X137093Y127391D02*
X137774Y128072D01*
X155205Y138842D02*
X155269Y138777D01*
Y128266D02*
Y138777D01*
X116142Y225784D02*
X116660D01*
X104848Y225164D02*
X106992D01*
X102068Y225720D02*
X104291D01*
X165109Y139332D02*
X165616Y138824D01*
X164953Y127647D02*
X165634Y128328D01*
X154674Y207293D02*
Y207589D01*
X136934D02*
X137606D01*
X134593Y204952D02*
X136934Y207293D01*
X154906Y152513D02*
X165109Y142310D01*
X127009Y215306D02*
X130575Y211741D01*
X126812Y215306D02*
X127009D01*
X137252Y138842D02*
X137513Y138581D01*
X137093Y126939D02*
Y127391D01*
X130903Y118345D02*
Y118920D01*
X155755Y174365D02*
X155940Y174180D01*
X136934Y203061D02*
X137093Y202902D01*
X55779Y168124D02*
Y168200D01*
X55248Y167593D02*
X55779Y168124D01*
X55149Y167593D02*
X55248D01*
X77340Y71060D02*
Y78459D01*
X80440Y101260D02*
Y101303D01*
X175719Y138569D02*
X175992Y138842D01*
X175685Y128357D02*
X175714Y128328D01*
X107392Y225564D02*
X111000D01*
X150938Y224120D02*
X152418Y222640D01*
X130480Y224120D02*
X150938D01*
X175940Y138894D02*
X175992Y138842D01*
X172528Y161735D02*
Y193566D01*
X177695Y122565D02*
Y122961D01*
X175792Y124864D02*
X177695Y122961D01*
X173603Y203303D02*
X174212Y202695D01*
X169902Y194405D02*
Y195803D01*
X171160Y203546D02*
Y204640D01*
X77080Y78719D02*
Y86380D01*
X61080Y78600D02*
X68620Y71060D01*
X61080Y78600D02*
Y78800D01*
X68620Y71060D02*
X77340D01*
X122935Y161315D02*
X123120Y161500D01*
X68460Y154393D02*
X83300D01*
X74968Y146140D02*
X127280D01*
X125805Y135040D02*
Y137395D01*
Y135040D02*
X128940D01*
X124260Y138940D02*
X125805Y137395D01*
X77181Y104561D02*
Y106351D01*
Y104561D02*
X80440Y101303D01*
X158228Y114831D02*
X159740D01*
X175714Y124864D02*
X175792D01*
X144647Y152513D02*
X154906D01*
X156897Y143260D02*
X157847Y142310D01*
X147740Y143260D02*
X156897D01*
X157847Y139664D02*
Y142310D01*
X155205Y179155D02*
X158080Y176280D01*
X155205Y179155D02*
Y193566D01*
X137252Y138842D02*
Y157787D01*
X28764Y245455D02*
X38576Y255268D01*
X45140Y135560D02*
X47540Y133160D01*
X53856Y166300D02*
X55149Y167593D01*
X52900Y166300D02*
X53856D01*
X77340Y71060D02*
X77926Y70474D01*
X77080Y78719D02*
X77340Y78459D01*
X57340Y73480D02*
X64967Y65853D01*
X164631D01*
X101532Y226256D02*
X102068Y225720D01*
X104291D02*
X104848Y225164D01*
X106992D02*
X107392Y225564D01*
X111000D02*
X113260Y227824D01*
Y228600D01*
X113326D02*
X116142Y225784D01*
X113260Y228600D02*
X113326D01*
X109552Y221064D02*
X115740D01*
X116660Y220144D01*
X109552Y214936D02*
Y221064D01*
Y214936D02*
X110044Y214444D01*
X122171Y219947D02*
Y220144D01*
Y219947D02*
X126812Y215306D01*
X22100Y161887D02*
X23680Y163467D01*
X22100Y130140D02*
Y161887D01*
X16040Y184620D02*
Y197300D01*
X130580Y205120D02*
X130600Y205140D01*
X134434D01*
X136934Y207293D02*
Y207589D01*
X165109Y139332D02*
Y142310D01*
X57160Y202960D02*
X65340Y211140D01*
X64887Y131080D02*
X69380D01*
X172528Y193566D02*
X173262Y194300D01*
X169063Y193566D02*
X169902Y194405D01*
X152851Y205470D02*
X154674Y207293D01*
X137606Y207589D02*
X139724Y205470D01*
X152851D01*
X165674Y207589D02*
Y209594D01*
X159740Y114831D02*
X159831Y114740D01*
X156269Y112771D02*
X159831D01*
X153580Y115460D02*
X156269Y112771D01*
X82160Y137500D02*
X114380D01*
X126965Y118345D02*
Y130259D01*
X153200Y88840D02*
X171100D01*
X153806Y174365D02*
X155755D01*
X138074Y190097D02*
Y192744D01*
Y190097D02*
X153806Y174365D01*
X159334Y128752D02*
Y138177D01*
X146144Y128236D02*
X155170D01*
X137821Y123592D02*
X155286D01*
X155334Y123545D01*
X144935Y120955D02*
X145120Y121140D01*
X114380Y137500D02*
X119540Y142660D01*
X136799Y77900D02*
X136807D01*
X135444Y76545D02*
X136799Y77900D01*
X136807D02*
X138447Y79540D01*
X145060D01*
X16636Y119876D02*
X18840Y122080D01*
X171100Y88840D02*
X174760Y85180D01*
X142180Y83980D02*
Y93500D01*
X164220Y177220D02*
X169063Y182063D01*
X160191Y124017D02*
X163821Y127647D01*
X160191Y123545D02*
Y124017D01*
X171283Y128357D02*
X175685D01*
X171020Y128620D02*
X171283Y128357D01*
X164777Y194388D02*
Y197035D01*
X137093Y193725D02*
Y202902D01*
X154674Y203061D02*
X155005Y202730D01*
Y193766D02*
Y202730D01*
Y193766D02*
X155205Y193566D01*
X163226Y198584D02*
X164777Y197035D01*
Y194388D02*
X165599Y193566D01*
X175719Y128334D02*
Y138569D01*
X175714Y128328D02*
X175719Y128334D01*
X134174Y115598D02*
X134612Y115159D01*
X131583Y115598D02*
X134174D01*
X131493Y115689D02*
X131583Y115598D01*
X137454Y115049D02*
X137614Y115208D01*
Y123385D01*
X155334Y123545D02*
X160191D01*
X165616Y128346D02*
Y138824D01*
Y128346D02*
X165634Y128328D01*
X159334Y128752D02*
X160014Y128072D01*
X137513Y128333D02*
X137774Y128072D01*
X137513Y128333D02*
Y138581D01*
D17*
X178340Y131596D02*
Y142103D01*
D27*
X52900Y166300D02*
D03*
X33753Y177514D02*
D03*
X94189Y119395D02*
D03*
X137454Y115049D02*
D03*
X113260Y228600D02*
D03*
X171020Y128620D02*
D03*
D44*
X56520Y162144D02*
D03*
Y167656D02*
D03*
D45*
X104465Y109847D02*
D03*
Y114375D02*
D03*
X165674Y203061D02*
D03*
Y207589D02*
D03*
X154674Y203061D02*
D03*
Y207589D02*
D03*
X136934Y203061D02*
D03*
Y207589D02*
D03*
X160014Y123545D02*
D03*
Y128072D02*
D03*
X155334D02*
D03*
Y123545D02*
D03*
X137774Y128072D02*
D03*
Y123545D02*
D03*
D46*
X39470Y157913D02*
D03*
X33958D02*
D03*
X109937Y104513D02*
D03*
X104425D02*
D03*
X116660Y220144D02*
D03*
X122171D02*
D03*
X116660Y225784D02*
D03*
X122171D02*
D03*
D54*
X99386Y119237D02*
D03*
Y115773D02*
D03*
X99425Y104513D02*
D03*
Y107977D02*
D03*
X109701Y109906D02*
D03*
Y113371D02*
D03*
X101532Y226256D02*
D03*
Y222791D02*
D03*
X175714Y124864D02*
D03*
Y128328D02*
D03*
X165634Y128328D02*
D03*
Y124864D02*
D03*
D59*
X46379Y165433D02*
D03*
X34962D02*
D03*
X43899Y150393D02*
D03*
X55316D02*
D03*
X106788Y127308D02*
D03*
X95370D02*
D03*
D60*
X93520Y110477D02*
D03*
Y105162D02*
D03*
D64*
X37272Y172840D02*
D03*
X33808D02*
D03*
X52500Y172580D02*
D03*
X55965D02*
D03*
X52860Y157260D02*
D03*
X56325D02*
D03*
X104662Y119473D02*
D03*
X108126D02*
D03*
X110044Y214444D02*
D03*
X106579D02*
D03*
D121*
X174412Y144472D02*
X176394D01*
X178272Y131596D02*
X180806Y129062D01*
X55100Y181436D02*
X56796D01*
X53776Y182760D02*
X55100Y181436D01*
X52580Y182760D02*
X53776D01*
X45116Y190224D02*
X52580Y182760D01*
X45116Y190224D02*
Y192818D01*
X45016Y196216D02*
X47240Y198440D01*
X45016Y192918D02*
Y196216D01*
Y192918D02*
X45116Y192818D01*
X47240Y198440D02*
X48700D01*
X170825Y116376D02*
X176662D01*
X163769Y116709D02*
X170492D01*
X170825Y116376D01*
X180806Y120520D02*
Y129062D01*
X176662Y116376D02*
X180806Y120520D01*
X173466Y143526D02*
X174412Y144472D01*
X161260Y118520D02*
X174400D01*
X174560Y118360D01*
X134220Y135251D02*
Y152640D01*
X128934Y129965D02*
X134220Y135251D01*
X128934Y118345D02*
Y129965D01*
X178340Y142103D02*
Y142526D01*
X176394Y144472D02*
X178340Y142526D01*
X160548Y118368D02*
X160700Y118520D01*
X161260D01*
X174412Y144472D02*
X174716Y144776D01*
X107552Y222444D02*
X108247Y223139D01*
X40340Y166680D02*
Y169694D01*
X37272Y172761D02*
X40340Y169694D01*
X43860Y101200D02*
X64620D01*
X101532Y217868D02*
Y222791D01*
X107552Y221623D02*
Y222444D01*
X106579Y220651D02*
X107552Y221623D01*
X104438Y222791D02*
X106579Y220651D01*
X101532Y222791D02*
X104438D01*
X106579Y214444D02*
Y220651D01*
X37272Y172761D02*
Y172840D01*
X160548Y117367D02*
Y118368D01*
X159890Y116709D02*
X160548Y117367D01*
X159831Y116709D02*
X159890D01*
X174716Y146056D02*
X174940Y146280D01*
X174716Y144776D02*
Y146056D01*
X172528Y138842D02*
X173466Y139780D01*
Y143526D01*
X40620Y104440D02*
X43860Y101200D01*
D122*
X140991Y214031D02*
X141056Y214096D01*
X143005D01*
X151749Y215260D02*
X169540D01*
X150593Y214104D02*
X151749Y215260D01*
X143013Y214104D02*
X150593D01*
X143005Y214096D02*
X143013Y214104D01*
X161100Y200922D02*
Y200940D01*
X160971Y200793D02*
X161100Y200922D01*
X66401Y162374D02*
Y187100D01*
X66360Y162332D02*
X66401Y162374D01*
X66360Y162332D02*
X67280Y161412D01*
Y158700D02*
Y161412D01*
X84620Y156040D02*
Y185622D01*
X84540Y185702D02*
X84620Y185622D01*
X88420Y152240D02*
X89540Y153360D01*
X175491Y112240D02*
X177180D01*
X166500Y109260D02*
X172511D01*
X175491Y112240D01*
X168280Y107380D02*
X173720D01*
X175780Y109440D01*
X164772Y107532D02*
X166500Y109260D01*
X165300Y104400D02*
X168280Y107380D01*
X80990Y174490D02*
X81020Y174460D01*
X99102Y154376D02*
X99385D01*
X98086Y153360D02*
X99102Y154376D01*
X89540Y153360D02*
X98086D01*
X108800Y161245D02*
Y183680D01*
X91800Y150580D02*
X98135D01*
X105120Y160111D02*
Y183340D01*
X99385Y154376D02*
X105120Y160111D01*
X98135Y150580D02*
X108800Y161245D01*
X47000Y193740D02*
X47208D01*
X26190Y234480D02*
X32840D01*
X38412Y227500D02*
X40092Y229180D01*
X31540Y227500D02*
X38412D01*
X171220Y199920D02*
X171820Y200520D01*
X164395Y199920D02*
X171220D01*
X163522Y200793D02*
X164395Y199920D01*
X131751Y199071D02*
X131820Y199140D01*
X85686Y186848D02*
Y187056D01*
X80990Y186990D02*
X81020Y187020D01*
X80990Y174490D02*
Y186990D01*
X57752Y219000D02*
X57960D01*
X45240Y240980D02*
X57740D01*
X32508Y205696D02*
X32536Y205724D01*
X98480Y180640D02*
X101700Y183860D01*
X48928Y192020D02*
X57160D01*
X158800Y98720D02*
X177320D01*
X68200Y250440D02*
Y273180D01*
X18680Y229420D02*
X23750Y224350D01*
Y193390D02*
Y224350D01*
X32480Y196860D02*
X32508Y196888D01*
X35200Y195520D02*
Y207840D01*
X37704Y197780D02*
Y206160D01*
X40092Y229180D02*
X40300D01*
X27360Y211620D02*
X30960Y215220D01*
X48200Y201880D02*
X54900D01*
X57240Y199540D01*
X47208Y193740D02*
X48928Y192020D01*
X32508Y196888D02*
Y205696D01*
X30960Y215220D02*
X58320D01*
X23750Y193390D02*
X28820Y188320D01*
X35120Y207920D02*
X35200Y207840D01*
X25250Y235420D02*
X26190Y234480D01*
X35200Y195520D02*
X35280Y195440D01*
X84540Y185702D02*
X85686Y186848D01*
X31460Y242260D02*
X43960D01*
X31560Y237720D02*
X56932D01*
X131751Y192454D02*
Y199071D01*
X131681Y192385D02*
X131751Y192454D01*
X165632Y100972D02*
X169960Y105300D01*
X176580D01*
X152640Y104880D02*
X158800Y98720D01*
X160971Y200793D02*
X163522D01*
X98480Y156560D02*
Y180640D01*
X56432Y231560D02*
X57452Y232580D01*
X30700Y231560D02*
X56432D01*
X18600Y235420D02*
X25250D01*
X56932Y237720D02*
X57652Y237000D01*
X57860D01*
X57452Y232580D02*
X57660D01*
X43960Y242260D02*
X45240Y240980D01*
X56692Y217940D02*
X57752Y219000D01*
X30180Y217940D02*
X56692D01*
D123*
X158874Y145594D02*
X161545Y142923D01*
X144565Y140257D02*
Y143386D01*
X146773Y145594D02*
X158874D01*
X144565Y143386D02*
X146773Y145594D01*
X185101Y145615D02*
X186716Y144001D01*
X185038Y145615D02*
X185101D01*
X186716Y140933D02*
Y144001D01*
X184733Y145920D02*
X185038Y145615D01*
X184733Y145920D02*
X185540D01*
X185120Y186480D02*
Y186607D01*
X185896Y187383D01*
X157620Y189140D02*
Y189171D01*
X158081Y189632D01*
X161545Y139430D02*
X162134Y138842D01*
X161545Y139430D02*
Y142923D01*
X52500Y172501D02*
Y172580D01*
X52069Y172070D02*
X52500Y172501D01*
X52429Y157190D02*
X52543Y157076D01*
X52429Y157190D02*
Y158399D01*
X144240Y134820D02*
Y137897D01*
X143197Y138940D02*
X144240Y137897D01*
X175714Y124864D02*
X175714Y124864D01*
X165634Y124864D02*
X175714D01*
X143197Y138940D02*
X150441D01*
X143197D02*
X143248D01*
X144565Y140257D01*
X186716Y140933D02*
X187350Y140298D01*
X185896Y191934D02*
X186071Y192109D01*
X185896Y187383D02*
Y191934D01*
X158081Y189632D02*
Y192977D01*
X158669Y193566D01*
X151460Y188800D02*
Y192449D01*
X150441Y193468D02*
X151460Y192449D01*
X143197Y193468D02*
X150441D01*
X46379Y164449D02*
Y165433D01*
X131480Y173560D02*
Y185599D01*
X124260Y192819D02*
X131480Y185599D01*
X124260Y192819D02*
Y193468D01*
X46379Y166417D02*
X52032Y172070D01*
X52069D01*
X46379Y165433D02*
Y166417D01*
Y164449D02*
X52429Y158399D01*
D125*
X41100Y174780D02*
X49280D01*
X49300Y174800D01*
X32697Y179503D02*
X36377D01*
X41100Y174780D01*
X180700Y217980D02*
X187080D01*
X187257Y99057D02*
Y133242D01*
X181460Y93260D02*
X187257Y99057D01*
X181460Y75660D02*
Y93260D01*
X13140Y179360D02*
X18721Y173779D01*
Y129487D02*
Y173779D01*
X37583Y124480D02*
X45083Y116980D01*
X23728Y124480D02*
X37583D01*
X18721Y129487D02*
X23728Y124480D01*
X167210Y69684D02*
X168575Y68320D01*
X165070Y69684D02*
X167210D01*
X164970Y69584D02*
X165070Y69684D01*
X152417Y69584D02*
X164970D01*
X135940Y68000D02*
X150833D01*
X71400D02*
X135940D01*
X191418Y137403D02*
Y213643D01*
X187080Y217980D02*
X191418Y213643D01*
X168575Y68320D02*
X174120D01*
X150833Y68000D02*
X152417Y69584D01*
X94847Y110477D02*
X97166Y108158D01*
X93520Y110477D02*
X94847D01*
X58140Y116980D02*
X64660D01*
X45083D02*
X58140D01*
X171774Y226906D02*
X180700Y217980D01*
X129611Y226906D02*
X171774D01*
X122171Y225784D02*
X128489D01*
X97166Y108158D02*
X99244D01*
Y104694D02*
X99425Y104513D01*
X104425Y104513D02*
X104445Y104532D01*
Y109828D02*
X104465Y109847D01*
X109622Y113371D02*
X109701D01*
X108290Y114703D02*
X109622Y113371D01*
X99386Y115773D02*
X99406Y115753D01*
Y108036D02*
Y115753D01*
X99244Y108158D02*
X99425Y107977D01*
X93441Y110398D02*
X93520Y110477D01*
X89624Y110398D02*
X93441D01*
X89200Y109974D02*
X89624Y110398D01*
X108126Y119473D02*
Y125970D01*
X122171Y225784D02*
Y272271D01*
X125320Y275420D01*
X174120Y68320D02*
X181460Y75660D01*
X187257Y133242D02*
X191418Y137403D01*
X69620Y112020D02*
X75860D01*
X64660Y116980D02*
X69620Y112020D01*
X85636Y106351D02*
X89200Y109915D01*
Y109974D01*
X40340Y166680D02*
X41336Y165684D01*
X46128D01*
X46379Y165433D01*
X45292Y149000D02*
X48360D01*
X43899Y150393D02*
X45292Y149000D01*
X128489Y225784D02*
X129611Y226906D01*
X71040Y68360D02*
X71400Y68000D01*
X77181Y106351D02*
X85636D01*
X106788Y127308D02*
X108126Y125970D01*
Y119473D02*
X108290Y119310D01*
Y114703D02*
Y119310D01*
X104445Y104532D02*
Y109828D01*
X99425Y104513D02*
X104425D01*
X99425Y104513D02*
X99425Y104513D01*
X93520Y105162D02*
X93988Y104694D01*
X99244D01*
X99386Y108017D02*
X99406Y108036D01*
D128*
X52740Y180260D02*
X56520Y176480D01*
X48260Y180260D02*
X52740D01*
X56520Y167656D02*
Y176480D01*
X42060Y186460D02*
Y200102D01*
X46922Y204964D01*
X47064D02*
X47240Y205140D01*
X46922Y204964D02*
X47064D01*
X42060Y186460D02*
X48260Y180260D01*
X28560Y208060D02*
X31504Y211004D01*
X38881D01*
X41020Y208865D01*
X28560Y195671D02*
Y208060D01*
X33753Y177514D02*
Y178447D01*
X32697Y179503D02*
X33753Y178447D01*
X28560Y195671D02*
X32540Y191691D01*
Y179503D02*
Y191691D01*
X33781Y172866D02*
Y177514D01*
X41020Y208220D02*
Y208865D01*
X33753Y177514D02*
X33781D01*
X55316Y150393D02*
Y151378D01*
X54257Y152437D02*
X55316Y151378D01*
X85133Y125382D02*
X93404D01*
X55316Y149456D02*
X56375Y148397D01*
X62375D02*
X77007Y133766D01*
Y129950D02*
X77181Y129775D01*
X55316Y149456D02*
Y150393D01*
X77007Y129950D02*
Y133766D01*
X109701Y97253D02*
Y109906D01*
X92120Y87440D02*
Y89070D01*
Y82760D02*
Y87440D01*
X95370Y126324D02*
Y127308D01*
X94218Y125171D02*
X95370Y126324D01*
X56375Y148397D02*
X62375D01*
X50928Y152437D02*
X54257D01*
X45544Y157820D02*
X50928Y152437D01*
X33958Y164429D02*
X34033Y164354D01*
Y157988D02*
Y164354D01*
X33808Y166452D02*
Y172840D01*
Y166452D02*
X33958D01*
X92120Y89070D02*
X96211Y93161D01*
X105609D01*
X99386Y119395D02*
X99465Y119473D01*
X84304Y124552D02*
X85133Y125382D01*
X77181Y124552D02*
X84304D01*
X47240Y205140D02*
Y211460D01*
X105609Y93161D02*
X109701Y97253D01*
X77181Y124895D02*
Y129775D01*
X94189Y119395D02*
X99386D01*
X39470Y157895D02*
X39544Y157820D01*
X39470Y157895D02*
Y157913D01*
X39544Y157820D02*
X45544D01*
X56375Y155168D02*
X56753Y155546D01*
X56375Y151453D02*
Y155168D01*
X55316Y150393D02*
X56375Y151453D01*
X33958Y164429D02*
Y166452D01*
Y157913D02*
X34033Y157988D01*
X93404Y125382D02*
X95331Y127308D01*
X77181Y124552D02*
Y124895D01*
X56753Y155546D02*
Y162144D01*
X33781Y172866D02*
X33808Y172840D01*
X94189Y119395D02*
X94218Y119423D01*
X99465Y119473D02*
X104662D01*
X94218Y119423D02*
Y125171D01*
X95331Y127308D02*
X95370D01*
D130*
X180075Y136639D02*
Y140022D01*
Y142425D01*
X179672Y154591D02*
X180250Y154013D01*
X180075Y142425D02*
X180250Y142601D01*
Y154013D01*
X45800Y108000D02*
X49860Y103940D01*
X42980Y108000D02*
X45800D01*
D139*
X30564Y60202D02*
D03*
X64580D02*
D03*
D140*
X30564Y39100D02*
D03*
X64580D02*
D03*
D141*
X162340Y46600D02*
D03*
X35080Y84440D02*
D03*
X35020Y95400D02*
D03*
X24000Y95380D02*
D03*
X24020Y84460D02*
D03*
X57280Y95400D02*
D03*
Y84400D02*
D03*
X151120Y46580D02*
D03*
X173098Y35680D02*
D03*
X151120Y57580D02*
D03*
X151098Y35680D02*
D03*
X46160Y95400D02*
D03*
X161998Y35680D02*
D03*
X46200Y84420D02*
D03*
X184000Y35700D02*
D03*
X184040Y57620D02*
D03*
X184000Y46620D02*
D03*
X173260Y57640D02*
D03*
X173220Y46600D02*
D03*
X162140Y57620D02*
D03*
X57340Y73480D02*
D03*
D142*
X24020Y73520D02*
D03*
D143*
X141627Y34900D02*
D03*
D144*
X127060D02*
D03*
D145*
X58659Y185060D02*
D03*
X56160Y183920D02*
D03*
X142100Y216280D02*
D03*
X140000Y214620D02*
D03*
X150480Y217080D02*
D03*
X187872Y295165D02*
D03*
X189841Y291228D02*
D03*
X187872Y287291D02*
D03*
X189841Y283354D02*
D03*
X187872Y279417D02*
D03*
X189841Y275480D02*
D03*
X187872Y271543D02*
D03*
X189841Y267606D02*
D03*
X187872Y263669D02*
D03*
X189841Y259732D02*
D03*
X187872Y255795D02*
D03*
X189841Y251858D02*
D03*
X187872Y247921D02*
D03*
X189841Y243984D02*
D03*
X187872Y240047D02*
D03*
X189841Y236110D02*
D03*
X187872Y232173D02*
D03*
X189841Y228236D02*
D03*
X187872Y224299D02*
D03*
X189841Y220362D02*
D03*
X187872Y184929D02*
D03*
Y177055D02*
D03*
Y169181D02*
D03*
Y161307D02*
D03*
Y153433D02*
D03*
X189841Y94377D02*
D03*
X187872Y90440D02*
D03*
X189841Y86503D02*
D03*
X183935Y295165D02*
D03*
X185904Y291228D02*
D03*
X183935Y287291D02*
D03*
X185904Y283354D02*
D03*
X183935Y279417D02*
D03*
X185904Y275480D02*
D03*
X183935Y271543D02*
D03*
X185904Y267606D02*
D03*
X183935Y263669D02*
D03*
X185904Y259732D02*
D03*
X183935Y255795D02*
D03*
X185904Y251858D02*
D03*
X183935Y247921D02*
D03*
X185904Y243984D02*
D03*
X183935Y240047D02*
D03*
X185904Y236110D02*
D03*
X183935Y232173D02*
D03*
X185904Y228236D02*
D03*
Y180992D02*
D03*
Y173118D02*
D03*
Y165244D02*
D03*
Y157370D02*
D03*
Y149496D02*
D03*
X183935Y66818D02*
D03*
X185904Y62881D02*
D03*
X179998Y295165D02*
D03*
X181967Y291228D02*
D03*
X179998Y287291D02*
D03*
X181967Y283354D02*
D03*
X179998Y279417D02*
D03*
X181967Y275480D02*
D03*
X179998Y271543D02*
D03*
X181967Y267606D02*
D03*
X179998Y263669D02*
D03*
X181967Y259732D02*
D03*
X179998Y255795D02*
D03*
X181967Y251858D02*
D03*
X179998Y247921D02*
D03*
X181967Y243984D02*
D03*
Y236110D02*
D03*
X179998Y232173D02*
D03*
Y66818D02*
D03*
X181967Y62881D02*
D03*
X176061Y295165D02*
D03*
X178030Y291228D02*
D03*
X176061Y287291D02*
D03*
X178030Y283354D02*
D03*
X176061Y279417D02*
D03*
X178030Y275480D02*
D03*
X176061Y271543D02*
D03*
X178030Y267606D02*
D03*
X176061Y263669D02*
D03*
X178030Y259732D02*
D03*
X176061Y255795D02*
D03*
X178030Y251858D02*
D03*
X176061Y247921D02*
D03*
X178030Y243984D02*
D03*
X176061Y232173D02*
D03*
X178030Y39259D02*
D03*
X172124Y295165D02*
D03*
X174093Y291228D02*
D03*
X172124Y287291D02*
D03*
X174093Y283354D02*
D03*
X172124Y279417D02*
D03*
X174093Y275480D02*
D03*
X172124Y271543D02*
D03*
X174093Y267606D02*
D03*
X172124Y263669D02*
D03*
X174093Y259732D02*
D03*
X172124Y255795D02*
D03*
X174093Y251858D02*
D03*
X172124Y247921D02*
D03*
X174093Y243984D02*
D03*
X168187Y295165D02*
D03*
X170156Y291228D02*
D03*
X168187Y287291D02*
D03*
X170156Y283354D02*
D03*
X168187Y279417D02*
D03*
X170156Y275480D02*
D03*
X168187Y271543D02*
D03*
X170156Y267606D02*
D03*
X168187Y263669D02*
D03*
X170156Y259732D02*
D03*
X168187Y255795D02*
D03*
X170156Y251858D02*
D03*
X168187Y247921D02*
D03*
X170156Y243984D02*
D03*
X168187Y240047D02*
D03*
Y43196D02*
D03*
Y35322D02*
D03*
X164250Y295165D02*
D03*
X166219Y291228D02*
D03*
X164250Y287291D02*
D03*
X166219Y283354D02*
D03*
X164250Y279417D02*
D03*
X166219Y275480D02*
D03*
X164250Y271543D02*
D03*
X166219Y267606D02*
D03*
X164250Y263669D02*
D03*
X166219Y259732D02*
D03*
X164250Y255795D02*
D03*
X166219Y251858D02*
D03*
X164250Y247921D02*
D03*
X166219Y243984D02*
D03*
X164250Y240047D02*
D03*
X160313Y295165D02*
D03*
X162282Y291228D02*
D03*
X160313Y287291D02*
D03*
X162282Y283354D02*
D03*
X160313Y279417D02*
D03*
X162282Y275480D02*
D03*
X160313Y271543D02*
D03*
X162282Y267606D02*
D03*
X160313Y263669D02*
D03*
X162282Y259732D02*
D03*
X160313Y255795D02*
D03*
X162282Y251858D02*
D03*
X160313Y247921D02*
D03*
X162282Y243984D02*
D03*
X160313Y240047D02*
D03*
X156376Y295165D02*
D03*
X158345Y291228D02*
D03*
X156376Y287291D02*
D03*
X158345Y283354D02*
D03*
X156376Y279417D02*
D03*
X158345Y275480D02*
D03*
X156376Y271543D02*
D03*
X158345Y267606D02*
D03*
X156376Y263669D02*
D03*
X158345Y259732D02*
D03*
X156376Y255795D02*
D03*
X158345Y251858D02*
D03*
X156376Y247921D02*
D03*
X158345Y243984D02*
D03*
X156376Y240047D02*
D03*
Y43196D02*
D03*
Y35322D02*
D03*
X152439Y295165D02*
D03*
X154408Y291228D02*
D03*
X152439Y287291D02*
D03*
X154408Y283354D02*
D03*
X152439Y279417D02*
D03*
X154408Y275480D02*
D03*
X152439Y271543D02*
D03*
X154408Y267606D02*
D03*
Y259732D02*
D03*
Y251858D02*
D03*
X152439Y247921D02*
D03*
X154408Y243984D02*
D03*
X152439Y169181D02*
D03*
Y161307D02*
D03*
X148502Y295165D02*
D03*
X150471Y291228D02*
D03*
X148502Y287291D02*
D03*
X150471Y283354D02*
D03*
X148502Y279417D02*
D03*
X150471Y275480D02*
D03*
X148502Y271543D02*
D03*
X150471Y267606D02*
D03*
Y251858D02*
D03*
Y220362D02*
D03*
Y165244D02*
D03*
X148502Y161307D02*
D03*
X144565Y295165D02*
D03*
X146534Y291228D02*
D03*
X144565Y287291D02*
D03*
X146534Y283354D02*
D03*
X144565Y279417D02*
D03*
X146534Y275480D02*
D03*
Y267606D02*
D03*
Y251858D02*
D03*
X144565Y169181D02*
D03*
X146534Y165244D02*
D03*
X144565Y161307D02*
D03*
X146534Y157370D02*
D03*
Y62881D02*
D03*
X144565Y58944D02*
D03*
Y51070D02*
D03*
Y43196D02*
D03*
X146534Y39259D02*
D03*
X144565Y35322D02*
D03*
X140628Y295165D02*
D03*
X142597Y291228D02*
D03*
X140628Y287291D02*
D03*
X142597Y283354D02*
D03*
X140628Y279417D02*
D03*
Y255795D02*
D03*
X142597Y251858D02*
D03*
X140628Y247921D02*
D03*
Y240047D02*
D03*
Y177055D02*
D03*
X142597Y55007D02*
D03*
Y47133D02*
D03*
X136691Y295165D02*
D03*
X138660Y291228D02*
D03*
X136691Y287291D02*
D03*
X138660Y283354D02*
D03*
X136691Y279417D02*
D03*
X138660Y275480D02*
D03*
X136691Y90440D02*
D03*
Y82566D02*
D03*
Y51070D02*
D03*
Y35322D02*
D03*
X132754Y295165D02*
D03*
X134723Y291228D02*
D03*
X132754Y287291D02*
D03*
X134723Y283354D02*
D03*
X132754Y279417D02*
D03*
X134723Y275480D02*
D03*
X132754Y263669D02*
D03*
X134723Y94377D02*
D03*
X132754Y90440D02*
D03*
X134723Y86503D02*
D03*
X132754Y82566D02*
D03*
X134723Y47133D02*
D03*
X132754Y35322D02*
D03*
X128817Y295165D02*
D03*
X130786Y291228D02*
D03*
Y283354D02*
D03*
X128817Y279417D02*
D03*
X130786Y275480D02*
D03*
X128817Y271543D02*
D03*
X130786Y251858D02*
D03*
Y243984D02*
D03*
X128817Y184929D02*
D03*
X130786Y86503D02*
D03*
Y78629D02*
D03*
Y47133D02*
D03*
X126849Y251858D02*
D03*
X124880Y184929D02*
D03*
Y58944D02*
D03*
Y51070D02*
D03*
X126849Y47133D02*
D03*
X124880Y43196D02*
D03*
X122912Y62881D02*
D03*
X120943Y58944D02*
D03*
X122912Y55007D02*
D03*
X120943Y51070D02*
D03*
X122912Y47133D02*
D03*
X120943Y43196D02*
D03*
X122912Y39259D02*
D03*
X120943Y35322D02*
D03*
X117006Y295165D02*
D03*
X118974Y275480D02*
D03*
X117006Y263669D02*
D03*
X118974Y251858D02*
D03*
X117006Y90440D02*
D03*
X118974Y86503D02*
D03*
X117006Y82566D02*
D03*
X118974Y62881D02*
D03*
X117006Y58944D02*
D03*
X118974Y55007D02*
D03*
X117006Y51070D02*
D03*
X118974Y47133D02*
D03*
X113069Y287291D02*
D03*
X115038Y275480D02*
D03*
X113069Y271543D02*
D03*
X115038Y267606D02*
D03*
Y251858D02*
D03*
Y94377D02*
D03*
Y86503D02*
D03*
Y62881D02*
D03*
X113069Y58944D02*
D03*
X115038Y55007D02*
D03*
X113069Y51070D02*
D03*
X115038Y47133D02*
D03*
X109132Y287291D02*
D03*
X111100Y141621D02*
D03*
Y86503D02*
D03*
Y62881D02*
D03*
Y55007D02*
D03*
X109132Y51070D02*
D03*
X111100Y47133D02*
D03*
X109132Y43196D02*
D03*
Y35322D02*
D03*
X105195Y295165D02*
D03*
X107164Y291228D02*
D03*
X105195Y287291D02*
D03*
Y279417D02*
D03*
Y271543D02*
D03*
Y247921D02*
D03*
X107164Y86503D02*
D03*
X105195Y51070D02*
D03*
X107164Y47133D02*
D03*
X105195Y43196D02*
D03*
X107164Y39259D02*
D03*
X105195Y35322D02*
D03*
X101258Y295165D02*
D03*
X103226Y291228D02*
D03*
X101258Y287291D02*
D03*
X103226Y283354D02*
D03*
X101258Y279417D02*
D03*
X103226Y275480D02*
D03*
X101258Y271543D02*
D03*
Y263669D02*
D03*
X103226Y251858D02*
D03*
X101258Y51070D02*
D03*
X103226Y47133D02*
D03*
X101258Y43196D02*
D03*
X103226Y39259D02*
D03*
X101258Y35322D02*
D03*
X97321Y295165D02*
D03*
X99290Y291228D02*
D03*
X97321Y287291D02*
D03*
X99290Y283354D02*
D03*
X97321Y279417D02*
D03*
X99290Y275480D02*
D03*
X97321Y271543D02*
D03*
X99290Y251858D02*
D03*
Y141621D02*
D03*
Y133747D02*
D03*
Y86503D02*
D03*
X97321Y51070D02*
D03*
X99290Y47133D02*
D03*
X97321Y43196D02*
D03*
X99290Y39259D02*
D03*
X97321Y35322D02*
D03*
X93384Y295165D02*
D03*
X95353Y291228D02*
D03*
X93384Y287291D02*
D03*
X95353Y283354D02*
D03*
Y275480D02*
D03*
X93384Y271543D02*
D03*
X95353Y251858D02*
D03*
Y133747D02*
D03*
X93384Y51070D02*
D03*
X95353Y47133D02*
D03*
X93384Y43196D02*
D03*
X95353Y39259D02*
D03*
X93384Y35322D02*
D03*
X89447Y295165D02*
D03*
X91416Y291228D02*
D03*
X89447Y287291D02*
D03*
X91416Y275480D02*
D03*
X89447Y271543D02*
D03*
X91416Y251858D02*
D03*
Y173118D02*
D03*
X89447Y51070D02*
D03*
X91416Y47133D02*
D03*
X89447Y43196D02*
D03*
X91416Y39259D02*
D03*
X89447Y35322D02*
D03*
X85510Y287291D02*
D03*
Y271543D02*
D03*
Y263669D02*
D03*
X87479Y251858D02*
D03*
Y173118D02*
D03*
Y86503D02*
D03*
X85510Y58944D02*
D03*
Y51070D02*
D03*
X87479Y47133D02*
D03*
Y39259D02*
D03*
X81573Y295165D02*
D03*
Y271543D02*
D03*
X83542Y267606D02*
D03*
Y62881D02*
D03*
X81573Y58944D02*
D03*
X83542Y55007D02*
D03*
X81573Y51070D02*
D03*
X83542Y47133D02*
D03*
X77636Y295165D02*
D03*
X79604Y267606D02*
D03*
X77636Y161307D02*
D03*
X79604Y157370D02*
D03*
Y141621D02*
D03*
Y62881D02*
D03*
X77636Y58944D02*
D03*
X79604Y55007D02*
D03*
X77636Y51070D02*
D03*
X79604Y47133D02*
D03*
X75667Y283354D02*
D03*
X73699Y161307D02*
D03*
X75667Y157370D02*
D03*
Y141621D02*
D03*
Y62881D02*
D03*
X73699Y58944D02*
D03*
X75667Y55007D02*
D03*
X73699Y51070D02*
D03*
X75667Y47133D02*
D03*
X73699Y43196D02*
D03*
X75667Y39259D02*
D03*
X73699Y35322D02*
D03*
X69762Y295165D02*
D03*
X71730Y165244D02*
D03*
Y157370D02*
D03*
Y62881D02*
D03*
X69762Y58944D02*
D03*
X71730Y55007D02*
D03*
X69762Y51070D02*
D03*
X71730Y47133D02*
D03*
X69762Y43196D02*
D03*
X71730Y39259D02*
D03*
X69762Y35322D02*
D03*
X65825Y295165D02*
D03*
X67793Y291228D02*
D03*
Y55007D02*
D03*
X65825Y51070D02*
D03*
X67793Y47133D02*
D03*
X61888Y295165D02*
D03*
X63856Y291228D02*
D03*
Y283354D02*
D03*
X61888Y279417D02*
D03*
X63856Y251858D02*
D03*
X61888Y153433D02*
D03*
X63856Y47133D02*
D03*
X57951Y295165D02*
D03*
X59919Y291228D02*
D03*
Y283354D02*
D03*
X57951Y279417D02*
D03*
Y271543D02*
D03*
X59919Y251858D02*
D03*
X57951Y224299D02*
D03*
X59919Y141621D02*
D03*
X54014Y295165D02*
D03*
X55982Y291228D02*
D03*
X54014Y287291D02*
D03*
X55982Y141621D02*
D03*
X50077Y295165D02*
D03*
X52045Y291228D02*
D03*
X50077Y287291D02*
D03*
X52045Y283354D02*
D03*
X50077Y145559D02*
D03*
X52045Y141621D02*
D03*
X50077Y74692D02*
D03*
X46140Y295165D02*
D03*
X48108Y291228D02*
D03*
X46140Y287291D02*
D03*
X48108Y283354D02*
D03*
X46140Y279417D02*
D03*
X48108Y259732D02*
D03*
Y251858D02*
D03*
Y243984D02*
D03*
Y141621D02*
D03*
X46140Y74692D02*
D03*
X42203Y295165D02*
D03*
X44171Y291228D02*
D03*
X42203Y287291D02*
D03*
X44171Y283354D02*
D03*
X42203Y279417D02*
D03*
Y169181D02*
D03*
X44171Y141621D02*
D03*
X38266Y295165D02*
D03*
X40234Y291228D02*
D03*
X38266Y287291D02*
D03*
X40234Y283354D02*
D03*
X38266Y279417D02*
D03*
X40234Y275480D02*
D03*
X38266Y271543D02*
D03*
X34329Y295165D02*
D03*
X36297Y291228D02*
D03*
X34329Y287291D02*
D03*
X36297Y283354D02*
D03*
X34329Y279417D02*
D03*
X36297Y275480D02*
D03*
X34329Y271543D02*
D03*
X36297Y267606D02*
D03*
X30392Y295165D02*
D03*
X32360Y291228D02*
D03*
X30392Y287291D02*
D03*
X32360Y283354D02*
D03*
X30392Y279417D02*
D03*
X32360Y275480D02*
D03*
X30392Y271543D02*
D03*
X32360Y267606D02*
D03*
X30392Y263669D02*
D03*
X32360Y259732D02*
D03*
X30392Y255795D02*
D03*
Y224299D02*
D03*
Y51070D02*
D03*
X26455Y295165D02*
D03*
X28423Y291228D02*
D03*
X26455Y287291D02*
D03*
X28423Y283354D02*
D03*
X26455Y279417D02*
D03*
X28423Y275480D02*
D03*
X26455Y271543D02*
D03*
X28423Y267606D02*
D03*
X26455Y263669D02*
D03*
X28423Y259732D02*
D03*
X26455Y255795D02*
D03*
X28423Y251858D02*
D03*
Y220362D02*
D03*
Y133747D02*
D03*
X26455Y129811D02*
D03*
Y66818D02*
D03*
Y58944D02*
D03*
X28423Y55007D02*
D03*
X26455Y51070D02*
D03*
X28423Y47133D02*
D03*
X26455Y43196D02*
D03*
Y35322D02*
D03*
X22518Y295165D02*
D03*
X24486Y291228D02*
D03*
X22518Y287291D02*
D03*
X24486Y283354D02*
D03*
X22518Y279417D02*
D03*
X24486Y275480D02*
D03*
X22518Y271543D02*
D03*
X24486Y267606D02*
D03*
X22518Y263669D02*
D03*
X24486Y259732D02*
D03*
X22518Y255795D02*
D03*
X24486Y251858D02*
D03*
X22518Y247921D02*
D03*
Y66818D02*
D03*
X24486Y62881D02*
D03*
X22518Y58944D02*
D03*
X24486Y55007D02*
D03*
X22518Y51070D02*
D03*
X24486Y47133D02*
D03*
X22518Y43196D02*
D03*
X24486Y39259D02*
D03*
X22518Y35322D02*
D03*
X18581Y295165D02*
D03*
X20549Y291228D02*
D03*
X18581Y287291D02*
D03*
X20549Y283354D02*
D03*
X18581Y279417D02*
D03*
X20549Y275480D02*
D03*
X18581Y271543D02*
D03*
X20549Y267606D02*
D03*
X18581Y263669D02*
D03*
X20549Y259732D02*
D03*
X18581Y255795D02*
D03*
X20549Y251858D02*
D03*
X18581Y247921D02*
D03*
Y74692D02*
D03*
Y66818D02*
D03*
X20549Y62881D02*
D03*
X18581Y58944D02*
D03*
X20549Y55007D02*
D03*
X18581Y51070D02*
D03*
X20549Y47133D02*
D03*
X18581Y43196D02*
D03*
X20549Y39259D02*
D03*
X18581Y35322D02*
D03*
X14644Y295165D02*
D03*
X16612Y291228D02*
D03*
X14644Y287291D02*
D03*
X16612Y283354D02*
D03*
X14644Y279417D02*
D03*
X16612Y275480D02*
D03*
X14644Y271543D02*
D03*
X16612Y267606D02*
D03*
X14644Y263669D02*
D03*
X16612Y259732D02*
D03*
X14644Y255795D02*
D03*
X16612Y251858D02*
D03*
X14644Y247921D02*
D03*
X16612Y243984D02*
D03*
X14644Y240047D02*
D03*
X16612Y78629D02*
D03*
X14644Y74692D02*
D03*
X16612Y70755D02*
D03*
X14644Y66818D02*
D03*
X16612Y62881D02*
D03*
X14644Y58944D02*
D03*
X16612Y55007D02*
D03*
X14644Y51070D02*
D03*
X16612Y47133D02*
D03*
X14644Y43196D02*
D03*
X16612Y39259D02*
D03*
X14644Y35322D02*
D03*
X10707Y295165D02*
D03*
X12675Y291228D02*
D03*
X10707Y287291D02*
D03*
X12675Y283354D02*
D03*
X10707Y279417D02*
D03*
X12675Y275480D02*
D03*
X10707Y271543D02*
D03*
X12675Y267606D02*
D03*
X10707Y263669D02*
D03*
X12675Y259732D02*
D03*
X10707Y255795D02*
D03*
X12675Y251858D02*
D03*
X10707Y247921D02*
D03*
X12675Y243984D02*
D03*
X10707Y240047D02*
D03*
X12675Y236110D02*
D03*
X10707Y232173D02*
D03*
X12675Y228236D02*
D03*
X10707Y161307D02*
D03*
Y153433D02*
D03*
Y145559D02*
D03*
Y137685D02*
D03*
Y129811D02*
D03*
X12675Y125873D02*
D03*
X10707Y121937D02*
D03*
X12675Y117999D02*
D03*
X10707Y114062D02*
D03*
X12675Y110126D02*
D03*
X10707Y106188D02*
D03*
X12675Y102251D02*
D03*
X10707Y98314D02*
D03*
X12675Y94377D02*
D03*
X10707Y90440D02*
D03*
X12675Y86503D02*
D03*
X10707Y82566D02*
D03*
X12675Y78629D02*
D03*
X10707Y74692D02*
D03*
X12675Y70755D02*
D03*
X10707Y66818D02*
D03*
X12675Y62881D02*
D03*
X10707Y58944D02*
D03*
X12675Y55007D02*
D03*
X10707Y51070D02*
D03*
X12675Y47133D02*
D03*
X10707Y43196D02*
D03*
X12675Y39259D02*
D03*
X10707Y35322D02*
D03*
X49360Y127540D02*
D03*
X161100Y200940D02*
D03*
X66401Y187100D02*
D03*
X56920Y189360D02*
D03*
X69060Y162740D02*
D03*
X67280Y158700D02*
D03*
X84620Y156040D02*
D03*
X88420Y152240D02*
D03*
X176980Y123060D02*
D03*
X174560Y118360D02*
D03*
X26940Y121660D02*
D03*
X19240Y216940D02*
D03*
X52300Y132620D02*
D03*
X61520Y132960D02*
D03*
X130580Y211020D02*
D03*
X41920Y266740D02*
D03*
X78001Y117921D02*
D03*
X127580Y154640D02*
D03*
X152680Y222640D02*
D03*
X140280Y230420D02*
D03*
X145880Y128400D02*
D03*
X166140Y67100D02*
D03*
X175880Y142180D02*
D03*
X161260Y118520D02*
D03*
X47000Y193740D02*
D03*
X32840Y234480D02*
D03*
X31540Y227500D02*
D03*
X25440Y174900D02*
D03*
X30520Y135560D02*
D03*
X164220Y177220D02*
D03*
X180700Y217700D02*
D03*
X86400Y83440D02*
D03*
X185540Y145920D02*
D03*
X169540Y215260D02*
D03*
X130160Y220680D02*
D03*
X114320Y184660D02*
D03*
X143500Y273340D02*
D03*
X18620Y118100D02*
D03*
X177180Y112240D02*
D03*
X175780Y109440D02*
D03*
X188400Y212660D02*
D03*
X188500Y210540D02*
D03*
X171218Y203488D02*
D03*
X171820Y200520D02*
D03*
X64620Y101200D02*
D03*
X98480Y156560D02*
D03*
X77080Y86380D02*
D03*
X91800Y150580D02*
D03*
X108800Y183680D02*
D03*
X61080Y78800D02*
D03*
X75860Y112020D02*
D03*
X101532Y217868D02*
D03*
X128320Y285300D02*
D03*
X77800Y248440D02*
D03*
X71180Y249260D02*
D03*
X59520Y247760D02*
D03*
X129220Y247920D02*
D03*
X130960Y51920D02*
D03*
X137740Y261080D02*
D03*
X128940Y135040D02*
D03*
X71260Y287660D02*
D03*
X57160Y192020D02*
D03*
X61620Y271480D02*
D03*
X152640Y104880D02*
D03*
X153580Y115460D02*
D03*
X144240Y134820D02*
D03*
X185120Y186480D02*
D03*
X157620Y189140D02*
D03*
X131480Y173560D02*
D03*
X48360Y149000D02*
D03*
X151220Y241640D02*
D03*
X148740Y169140D02*
D03*
X151460Y188800D02*
D03*
X137500Y174180D02*
D03*
X95340Y172200D02*
D03*
X40340Y166680D02*
D03*
X43500Y225740D02*
D03*
X42280Y251040D02*
D03*
X53160Y261360D02*
D03*
X70880Y261700D02*
D03*
X80000Y263220D02*
D03*
X103760Y268960D02*
D03*
X104820Y262880D02*
D03*
X118460Y271800D02*
D03*
X125360Y275420D02*
D03*
X114400Y263220D02*
D03*
X153340Y265011D02*
D03*
X26560Y223280D02*
D03*
X14980Y205160D02*
D03*
X32536Y205724D02*
D03*
X37704Y206160D02*
D03*
X40300Y229180D02*
D03*
X35120Y207920D02*
D03*
X27360Y211620D02*
D03*
X184700Y77480D02*
D03*
X107700Y141700D02*
D03*
X44740Y129200D02*
D03*
X47540Y133160D02*
D03*
X56980Y111600D02*
D03*
X80440Y101260D02*
D03*
X80340Y97640D02*
D03*
X134920Y119200D02*
D03*
X112740Y126180D02*
D03*
X113260Y119180D02*
D03*
X118160Y98200D02*
D03*
X108260Y121940D02*
D03*
X113620Y89160D02*
D03*
X123140Y89720D02*
D03*
X102500Y88760D02*
D03*
X100820Y77320D02*
D03*
X34760Y64300D02*
D03*
X42900Y75280D02*
D03*
X134344Y44596D02*
D03*
X127217Y60857D02*
D03*
X184045Y89840D02*
D03*
X152920Y83280D02*
D03*
X48700Y198440D02*
D03*
X127280Y146140D02*
D03*
X28820Y188320D02*
D03*
X48200Y201880D02*
D03*
X32480Y196860D02*
D03*
X35280Y195440D02*
D03*
X37704Y197780D02*
D03*
X80960Y174460D02*
D03*
X56574Y195654D02*
D03*
X57240Y199540D02*
D03*
X123120Y161500D02*
D03*
X23720Y108320D02*
D03*
X31460Y242260D02*
D03*
X31560Y237720D02*
D03*
X84660Y276340D02*
D03*
X68200Y273180D02*
D03*
X188300Y207160D02*
D03*
X58140Y116980D02*
D03*
X13140Y179360D02*
D03*
X23760Y163740D02*
D03*
X16040Y197300D02*
D03*
X130480Y224120D02*
D03*
X130200Y217702D02*
D03*
X131820Y199140D02*
D03*
X130580Y205120D02*
D03*
X57160Y202960D02*
D03*
X134760Y153380D02*
D03*
X69380Y131080D02*
D03*
X72320Y133780D02*
D03*
X168840Y207620D02*
D03*
X174940Y146280D02*
D03*
X165632Y100972D02*
D03*
X165300Y104400D02*
D03*
X164620Y107380D02*
D03*
X176580Y105300D02*
D03*
X147740Y143260D02*
D03*
X119540Y142660D02*
D03*
X158080Y176280D02*
D03*
X153200Y88840D02*
D03*
X155940Y174180D02*
D03*
X147580Y119380D02*
D03*
X145120Y121140D02*
D03*
X82160Y137500D02*
D03*
X49860Y103940D02*
D03*
X42980Y108000D02*
D03*
X40620Y104440D02*
D03*
X19400Y115120D02*
D03*
X144507Y76300D02*
D03*
X144340Y72620D02*
D03*
X145060Y79540D02*
D03*
X177320Y98720D02*
D03*
X18840Y122080D02*
D03*
X135940Y68000D02*
D03*
X71040Y68360D02*
D03*
X22100Y130140D02*
D03*
X58060Y124960D02*
D03*
X174760Y85180D02*
D03*
X142180Y83980D02*
D03*
Y93500D02*
D03*
X174120Y68320D02*
D03*
X58320Y215220D02*
D03*
X18680Y229420D02*
D03*
X18600Y235420D02*
D03*
X30700Y231560D02*
D03*
X30180Y217940D02*
D03*
X68200Y250440D02*
D03*
X105120Y183340D02*
D03*
X101700Y183860D02*
D03*
X85686Y187056D02*
D03*
X81020Y187020D02*
D03*
X57960Y219000D02*
D03*
X57660Y232580D02*
D03*
X57860Y237000D02*
D03*
X57740Y240980D02*
D03*
D146*
X49300Y174800D02*
D03*
X115760Y157080D02*
D03*
X41020Y208220D02*
D03*
D147*
X47240Y211460D02*
D03*
D148*
X92140Y85320D02*
D03*
X92100Y87900D02*
D03*
X92120Y82760D02*
D03*
D149*
X187350Y140298D02*
D03*
D150*
X186071Y192109D02*
D03*
D151*
X175992Y193566D02*
D03*
X172528D02*
D03*
X169063D02*
D03*
X165599D02*
D03*
X162134D02*
D03*
X158669D02*
D03*
X155205D02*
D03*
X175992Y138842D02*
D03*
X172528D02*
D03*
X169063D02*
D03*
X165599D02*
D03*
X162134D02*
D03*
X158669D02*
D03*
X155205D02*
D03*
X137252Y193566D02*
D03*
Y138842D02*
D03*
D152*
X150441Y193468D02*
D03*
Y138940D02*
D03*
D153*
X143197Y193468D02*
D03*
Y138940D02*
D03*
D154*
X124260Y193468D02*
D03*
Y138940D02*
D03*
D155*
X131681Y192385D02*
D03*
D156*
X77181Y106351D02*
D03*
D157*
Y124552D02*
D03*
D158*
X159831Y116709D02*
D03*
Y114740D02*
D03*
Y112771D02*
D03*
X163769D02*
D03*
Y114740D02*
D03*
Y116709D02*
D03*
D159*
X126965Y118345D02*
D03*
X130903D02*
D03*
Y113031D02*
D03*
X126965D02*
D03*
D160*
X128934Y118345D02*
D03*
Y113031D02*
D03*
D161*
X131493Y115689D02*
D03*
X126375D02*
D03*
D162*
X108272Y223114D02*
D03*
X109552Y225164D02*
D03*
X106992D02*
D03*
Y221064D02*
D03*
X109552D02*
D03*
D163*
X115760Y157080D02*
Y183220D01*
X114320Y184660D02*
X115760Y183220D01*
D164*
X77181Y124895D02*
X84153D01*
X70206D02*
X77181D01*
X84304Y125249D02*
Y125251D01*
Y124915D02*
Y125249D01*
Y124915D02*
Y125249D01*
X84153Y124895D02*
Y124919D01*
X70206Y124895D02*
Y125215D01*
X70056D02*
X70206D01*
X70056D02*
Y125249D01*
D165*
X104465Y114375D02*
Y119276D01*
D166*
X77043Y129775D02*
D03*
M02*
