G04*
G04 #@! TF.GenerationSoftware,Altium Limited,Altium Designer,18.0.7 (293)*
G04*
G04 Layer_Color=16711935*
%FSLAX25Y25*%
%MOIN*%
G70*
G01*
G75*
%ADD21C,0.00300*%
%ADD124C,0.00000*%
D21*
X8080Y299940D02*
X193140D01*
X8080Y30640D02*
Y299940D01*
X193140Y30640D02*
Y299940D01*
X8080Y30640D02*
X193140D01*
D124*
X30564Y63352D02*
G03*
X29383Y62171I0J-1181D01*
G01*
X31745D02*
G03*
X30564Y63352I-1181J0D01*
G01*
Y57053D02*
G03*
X31745Y58234I0J1181D01*
G01*
X29383D02*
G03*
X30564Y57053I1181J0D01*
G01*
X64580Y63352D02*
G03*
X63399Y62171I0J-1181D01*
G01*
X65761D02*
G03*
X64580Y63352I-1181J0D01*
G01*
Y57053D02*
G03*
X65761Y58234I0J1181D01*
G01*
X63399D02*
G03*
X64580Y57053I1181J0D01*
G01*
X30564Y43234D02*
G03*
X29383Y42053I0J-1181D01*
G01*
X31745D02*
G03*
X30564Y43234I-1181J0D01*
G01*
Y34966D02*
G03*
X31745Y36147I0J1181D01*
G01*
X29383D02*
G03*
X30564Y34966I1181J0D01*
G01*
X64580Y43234D02*
G03*
X63399Y42053I0J-1181D01*
G01*
X65761D02*
G03*
X64580Y43234I-1181J0D01*
G01*
Y34966D02*
G03*
X65761Y36147I0J1181D01*
G01*
X63399D02*
G03*
X64580Y34966I1181J0D01*
G01*
X31745Y58234D02*
Y62171D01*
X29383Y58234D02*
Y62171D01*
X65761Y58234D02*
Y62171D01*
X63399Y58234D02*
Y62171D01*
X31745Y36147D02*
Y42053D01*
X29383Y36147D02*
Y42053D01*
X65761Y36147D02*
Y42053D01*
X63399Y36147D02*
Y42053D01*
M02*
